<svg width="19" height="13" viewBox="0 0 19 13" fill="none" xmlns="http://www.w3.org/2000/svg">
<path d="M18.5885 3.85633H17.195C17.0889 3.85633 16.9869 3.89485 16.9103 3.96379L16.6128 4.23144C16.1114 3.14172 15.3921 2.06412 14.4205 0.94849C13.8953 0.345687 13.1186 0 12.2895 0H6.7105C5.88122 0 5.10452 0.345728 4.57961 0.948531C3.57735 2.09925 2.87234 3.1509 2.38281 4.2276L2.08975 3.96379C2.01314 3.89485 1.91109 3.85633 1.80496 3.85633H0.41156C0.18424 3.85633 0 4.02938 0 4.24289V5.13773C0 5.34178 0.168883 5.51061 0.385686 5.52351L1.81794 5.60824C1.60153 6.20219 1.43256 7.08728 1.43256 8.3355C1.43256 9.41856 1.66287 10.1304 2.0637 10.5912V12.6763C2.0637 12.8551 2.21801 13 2.40837 13H3.99375C4.1842 13 4.33856 12.8551 4.33856 12.6763V11.3815H14.6615V12.6763C14.6615 12.8551 14.8158 13 15.0062 13H16.5916C16.7819 13 16.9363 12.8551 16.9363 12.6763V10.5912C17.337 10.1304 17.5675 9.41856 17.5675 8.3355C17.5675 7.08728 17.3985 6.20219 17.1821 5.60824L18.6144 5.52351C18.8311 5.51061 19 5.34178 19 5.13773V4.24289C19 4.02938 18.8158 3.85633 18.5885 3.85633ZM5.75585 1.8523C5.99109 1.58225 6.33907 1.4273 6.7105 1.4273H12.2895C12.6609 1.4273 13.009 1.58225 13.2442 1.8523C13.9239 2.63274 14.4607 3.37962 14.8756 4.12361L4.11494 4.12551C4.52073 3.39806 5.06056 2.65056 5.75585 1.8523ZM4.58322 9.7981C3.79411 9.7981 3.15448 9.55603 3.15448 8.96876C3.15448 8.38154 3.38656 7.90538 4.17562 7.90538C4.96468 7.90538 6.01186 8.38154 6.01186 8.96876C6.01186 9.55599 5.37219 9.7981 4.58322 9.7981ZM10.9977 9.67572H8.00242C7.55087 9.67572 7.18353 9.33069 7.18353 8.9066C7.18353 8.78765 7.28623 8.69119 7.41296 8.69119H11.5872C11.7139 8.69119 11.8165 8.78765 11.8165 8.9066C11.8165 9.33074 11.4492 9.67572 10.9977 9.67572ZM14.4168 9.7981C13.6278 9.7981 12.9881 9.55603 12.9881 8.96876C12.9881 8.38154 14.0354 7.90538 14.8243 7.90538C15.6134 7.90538 15.8455 8.38154 15.8455 8.96876C15.8455 9.55599 15.2059 9.7981 14.4168 9.7981Z" fill="#6A87A2"/>
</svg>
