<?xml version="1.0" encoding="utf-8"?>
<!-- Generator: Adobe Illustrator 26.3.1, SVG Export Plug-In . SVG Version: 6.00 Build 0)  -->
<svg version="1.1" id="Слой_1" xmlns="http://www.w3.org/2000/svg" xmlns:xlink="http://www.w3.org/1999/xlink" x="0px" y="0px"
	 viewBox="0 0 11 11" style="enable-background:new 0 0 11 11;" xml:space="preserve">
<style type="text/css">
	.st0{fill:#FF5C5C;}
</style>
<path class="st0" d="M6.9,5.5l3.8-3.8c0.4-0.4,0.4-1,0-1.4s-1-0.4-1.4,0L5.5,4.1L1.7,0.3c-0.4-0.4-1-0.4-1.4,0s-0.4,1,0,1.4l3.8,3.8
	L0.3,9.3c-0.4,0.4-0.4,1,0,1.4C0.5,10.9,0.7,11,1,11s0.5-0.1,0.7-0.3l3.8-3.8l3.8,3.8C9.5,10.9,9.7,11,10,11s0.5-0.1,0.7-0.3
	c0.4-0.4,0.4-1,0-1.4L6.9,5.5z"/>
</svg>
