<?xml version="1.0" encoding="utf-8"?>
<!-- Generator: Adobe Illustrator 26.3.1, SVG Export Plug-In . SVG Version: 6.00 Build 0)  -->
<svg version="1.1" id="Слой_1" xmlns="http://www.w3.org/2000/svg" xmlns:xlink="http://www.w3.org/1999/xlink" x="0px" y="0px"
	 viewBox="0 0 35 35" style="enable-background:new 0 0 35 35;" xml:space="preserve">
<g>
	<path d="M17.5,35c-2.1,0-4.1-0.4-6.1-1.1c-3.5-1.3-6.6-3.7-8.6-6.9c-2-3.1-3-6.9-2.8-10.7C0.3,12.6,1.8,9,4.2,6.1
		c2.4-2.8,5.8-4.9,9.4-5.7s7.6-0.4,11,1.1c0.8,0.3,1.1,1.2,0.8,2c-0.3,0.8-1.2,1.1-2,0.8c-2.8-1.3-6.1-1.6-9.1-0.9
		c-3,0.7-5.8,2.4-7.8,4.7c-2,2.4-3.2,5.4-3.4,8.5c-0.2,3.1,0.6,6.2,2.3,8.8C7,28,9.6,30,12.5,31.1c2.9,1.1,6.2,1.2,9.1,0.3
		c3-0.9,5.6-2.7,7.5-5.2s2.9-5.6,2.9-8.7V16c0-0.8,0.7-1.5,1.5-1.5S35,15.2,35,16v1.5c0,3.7-1.2,7.5-3.5,10.5
		c-2.2,3-5.5,5.2-9.1,6.3C20.9,34.8,19.2,35,17.5,35z"/>
</g>
<g>
	<path d="M17.5,22.2c-0.4,0-0.8-0.2-1.1-0.4L11.6,17c-0.6-0.6-0.6-1.5,0-2.1c0.6-0.6,1.5-0.6,2.1,0l3.7,3.7l14.9-15
		c0.6-0.6,1.5-0.6,2.1,0c0.6,0.6,0.6,1.5,0,2.1l-16,16C18.3,22.1,17.9,22.2,17.5,22.2z"/>
</g>
</svg>
