<?xml version="1.0" encoding="utf-8"?>
<!-- Generator: Adobe Illustrator 26.3.1, SVG Export Plug-In . SVG Version: 6.00 Build 0)  -->
<svg version="1.1" id="Слой_1" xmlns="http://www.w3.org/2000/svg" xmlns:xlink="http://www.w3.org/1999/xlink" x="0px" y="0px"
	 viewBox="0 0 20 16" style="enable-background:new 0 0 20 16;" xml:space="preserve">
<style type="text/css">
	.st0{fill:#B8B8B8;}
</style>
<path class="st0" d="M17.2,0.3H2.8c-1.3,0-2.3,1-2.3,2.3v10.8c0,1.3,1,2.3,2.3,2.3h14.4c1.3,0,2.3-1,2.3-2.3V2.6
	C19.5,1.3,18.5,0.3,17.2,0.3z M2.8,1.3h14.4c0.6,0,1.1,0.5,1.3,1.1L10,8.3L1.5,2.4C1.7,1.8,2.2,1.3,2.8,1.3z M17.2,14.7H2.8
	c-0.7,0-1.3-0.6-1.3-1.3V3.6l8.2,5.7C9.8,9.4,9.9,9.4,10,9.4s0.2,0,0.3-0.1l8.2-5.7v9.8C18.5,14.1,17.9,14.7,17.2,14.7z"/>
</svg>
