<svg width="20" height="20" viewBox="0 0 20 20" fill="none" xmlns="http://www.w3.org/2000/svg">
<path d="M8.19629 10.906C8.58538 11.4262 9.08179 11.8566 9.65186 12.1681C10.2219 12.4795 10.8523 12.6647 11.5002 12.7111C12.1482 12.7575 12.7985 12.664 13.4071 12.437C14.0157 12.21 14.5684 11.8547 15.0277 11.3953L17.7457 8.67721C18.5709 7.82282 19.0275 6.67851 19.0172 5.49073C19.0069 4.30296 18.5305 3.16675 17.6906 2.32684C16.8506 1.48692 15.7144 1.01049 14.5267 1.00017C13.3389 0.98985 12.1946 1.44646 11.3402 2.27165L9.78182 3.82095" stroke="black" stroke-linecap="round" stroke-linejoin="round"/>
<path d="M11.8211 9.09398C11.432 8.57381 10.9356 8.1434 10.3655 7.83195C9.79547 7.5205 9.1651 7.33529 8.51716 7.28889C7.86923 7.24248 7.21889 7.33597 6.61027 7.56301C6.00164 7.79004 5.44896 8.14531 4.98971 8.60473L2.27165 11.3228C1.44646 12.1772 0.98985 13.3215 1.00017 14.5093C1.01049 15.697 1.48692 16.8332 2.32684 17.6732C3.16675 18.5131 4.30296 18.9895 5.49073 18.9998C6.67851 19.0102 7.82282 18.5535 8.67721 17.7283L10.2265 16.1791" stroke="black" stroke-linecap="round" stroke-linejoin="round"/>
</svg>
