<svg width="12" height="12" viewBox="0 0 12 12" fill="none" xmlns="http://www.w3.org/2000/svg">
<path d="M6 11C8.76142 11 11 8.76142 11 6C11 3.23858 8.76142 1 6 1C3.23858 1 1 3.23858 1 6C1 8.76142 3.23858 11 6 11Z" stroke="#000102" stroke-linecap="round" stroke-linejoin="round"/>
<path d="M4.54492 4.50001C4.66247 4.16584 4.8945 3.88406 5.1999 3.70458C5.5053 3.52509 5.86437 3.45948 6.21351 3.51937C6.56265 3.57925 6.87933 3.76077 7.10746 4.03177C7.33559 4.30278 7.46045 4.64577 7.45992 5.00001C7.45992 6.00001 5.95992 6.50001 5.95992 6.50001" stroke="#000102" stroke-linecap="round" stroke-linejoin="round"/>
<path d="M6 8.5H6.01" stroke="#000102" stroke-linecap="round" stroke-linejoin="round"/>
</svg>
