<svg width="19" height="23" viewBox="0 0 19 23" fill="none" xmlns="http://www.w3.org/2000/svg">
<path d="M9.559 22.9995C9.56969 22.9992 9.58029 22.9985 9.5909 22.9976C9.59429 22.9973 9.59777 22.9972 9.60117 22.9968C9.61551 22.9952 9.62985 22.993 9.64402 22.9903L9.64902 22.9893C9.7343 22.9725 9.8144 22.936 9.87888 22.881L18.4387 15.5948C18.6212 15.4341 18.616 15.1778 18.4271 15.0225C18.3843 14.9873 18.3355 14.9606 18.2837 14.9417L18.2818 14.9411C18.2688 14.9364 18.2557 14.9323 18.2425 14.9287L18.2377 14.9274C18.2256 14.9241 18.2134 14.9215 18.2011 14.919C18.1982 14.9185 18.1955 14.9179 18.1926 14.9174C18.1817 14.9155 18.1708 14.9142 18.1598 14.9129C18.1554 14.9123 18.151 14.9117 18.1466 14.9113C18.1375 14.9105 18.1284 14.9101 18.1194 14.9098C18.113 14.9094 18.1066 14.9091 18.1003 14.909C18.0935 14.9089 18.0867 14.9093 18.0799 14.9095C18.0712 14.9098 18.0625 14.9099 18.0538 14.9105C18.0499 14.9108 18.046 14.9114 18.0421 14.9118C18.0307 14.9129 18.0193 14.9141 18.0079 14.916L18.0068 14.9161C17.9188 14.9303 17.8344 14.9656 17.7654 15.0225L10.0178 21.618L10.0178 0.404726C10.0177 0.262033 9.9309 0.136764 9.79997 0.0645917L9.7976 0.0632706C9.7836 0.0555909 9.76883 0.0488195 9.7539 0.0424611C9.73625 0.0350292 9.71818 0.0281753 9.69942 0.0225601L9.69518 0.0214866C9.67838 0.0166146 9.66124 0.0127335 9.64376 0.00951298C9.63256 0.00744853 9.62128 0.00571447 9.60982 0.00431066C9.59082 0.00208115 9.57147 0.000346946 9.55187 1.66922e-05C9.54975 -6.58372e-05 9.54754 0.000181886 9.54542 9.92213e-05C9.52234 1.65557e-05 9.49901 0.00109011 9.47525 0.00389773C9.46116 0.00554927 9.44708 0.00761372 9.43282 0.0103387C9.42052 0.0126508 9.40813 0.0154585 9.39574 0.018679L9.39218 0.0194222C9.38522 0.0213214 9.37809 0.0236336 9.37114 0.0256981C9.36452 0.0276798 9.3579 0.029414 9.3512 0.0317262C9.25549 0.0636835 9.15833 0.121322 9.06661 0.210175L9.06661 21.618L1.31904 15.0225C1.30707 15.0123 1.29451 15.0028 1.28145 14.9938C1.07102 14.8441 0.742982 14.8726 0.577524 15.084C0.454234 15.2416 0.480369 15.4496 0.634883 15.5857C0.6387 15.5891 0.642606 15.5924 0.646508 15.5957L9.20636 22.8818L9.20746 22.8827C9.21594 22.8898 9.22502 22.8966 9.23419 22.9032C9.23665 22.905 9.23894 22.9069 9.2414 22.9087C9.28247 22.9373 9.32956 22.9599 9.38038 22.9755C9.38641 22.9774 9.39235 22.9793 9.39846 22.9809C9.40542 22.9827 9.41246 22.9844 9.41959 22.986C9.42646 22.9876 9.43333 22.989 9.4402 22.9903C9.44674 22.9915 9.45319 22.9927 9.4598 22.9937C9.47262 22.9957 9.48534 22.9972 9.49824 22.9982C9.50299 22.9986 9.50783 22.9987 9.51258 22.9989C9.52242 22.9994 9.53227 22.9998 9.54211 22.9998C9.54517 22.9998 9.54796 23 9.55102 23C9.55374 22.9999 9.55637 22.9996 9.559 22.9995Z" fill="black"/>
</svg>
