<?xml version="1.0" encoding="utf-8"?>
<!-- Generator: Adobe Illustrator 26.3.1, SVG Export Plug-In . SVG Version: 6.00 Build 0)  -->
<svg version="1.1" id="Слой_1" xmlns="http://www.w3.org/2000/svg" xmlns:xlink="http://www.w3.org/1999/xlink" x="0px" y="0px"
	 viewBox="0 0 19 21" style="enable-background:new 0 0 19 21;" xml:space="preserve">
<path d="M15.5,14c-1.1,0-2.1,0.5-2.7,1.3l-6-3.5C6.9,11.4,7,11,7,10.5C7,10,6.9,9.6,6.7,9.2l6-3.5C13.4,6.5,14.4,7,15.5,7
	C17.4,7,19,5.4,19,3.5S17.4,0,15.5,0S12,1.6,12,3.5c0,0.5,0.1,0.9,0.3,1.3l-6,3.5C5.6,7.5,4.6,7,3.5,7C1.6,7,0,8.6,0,10.5
	S1.6,14,3.5,14c1.1,0,2.1-0.5,2.7-1.3l6,3.5C12.1,16.6,12,17,12,17.5c0,1.9,1.6,3.5,3.5,3.5s3.5-1.6,3.5-3.5S17.4,14,15.5,14z
	 M15.5,1C16.9,1,18,2.1,18,3.5S16.9,6,15.5,6S13,4.9,13,3.5S14.1,1,15.5,1z M3.5,13C2.1,13,1,11.9,1,10.5C1,9.1,2.1,8,3.5,8
	S6,9.1,6,10.5C6,11.9,4.9,13,3.5,13z M15.5,20c-1.4,0-2.5-1.1-2.5-2.5s1.1-2.5,2.5-2.5s2.5,1.1,2.5,2.5S16.9,20,15.5,20z"/>
</svg>
