<svg width="20" height="20" viewBox="0 0 20 20" fill="none" xmlns="http://www.w3.org/2000/svg">
<path d="M15.0093 10.0004C15.0093 12.7631 12.7617 15.0102 10 15.0102C7.23782 15.0102 4.9907 12.7626 4.9907 10.0004C4.9907 7.23827 7.23782 4.9907 10 4.9907C12.7617 4.9907 15.0093 7.23782 15.0093 10.0004ZM10 3.51816C10.5394 3.51816 10.9774 3.0806 10.9774 2.54119V0.977416C10.9774 0.437556 10.5399 0 10 0C9.46014 0 9.02258 0.437556 9.02258 0.977416V2.54119C9.02258 3.0806 9.46014 3.51816 10 3.51816ZM10 16.4814C9.46014 16.4814 9.02258 16.919 9.02258 17.4588V19.0221C9.02258 19.5624 9.46014 20 10 20C10.5399 20 10.9774 19.5624 10.9774 19.0221V17.4588C10.9774 16.919 10.5394 16.4814 10 16.4814ZM15.965 5.41674L17.0709 4.31089C17.4526 3.92958 17.4526 3.31045 17.0709 2.9287C16.6891 2.54739 16.07 2.54739 15.6887 2.9287L14.5828 4.03454C14.2015 4.4163 14.2015 5.03499 14.5828 5.41674C14.965 5.79849 15.5837 5.79849 15.965 5.41674ZM4.03454 14.5837L2.9287 15.6891C2.54739 16.0704 2.54695 16.69 2.9287 17.0713C3.31045 17.4526 3.92958 17.4526 4.31089 17.0713L5.41674 15.965C5.79849 15.5837 5.79849 14.9646 5.41674 14.5837C5.03499 14.2015 4.4163 14.2015 4.03454 14.5837ZM19.0226 9.02259H17.4588C16.919 9.02259 16.4814 9.46014 16.4814 10C16.4814 10.5399 16.919 10.977 17.4588 10.977H19.0226C19.5624 10.977 20 10.5399 20 10C20 9.46014 19.5624 9.02259 19.0226 9.02259ZM3.51816 10C3.51816 9.46014 3.0806 9.02259 2.54074 9.02259H0.977413C0.437556 9.02259 0 9.46014 0 10C0 10.5399 0.437556 10.977 0.977413 10.977H2.54119C3.0806 10.977 3.51816 10.5399 3.51816 10ZM15.965 14.5837C15.5837 14.2024 14.9646 14.2024 14.5828 14.5837C14.2011 14.965 14.2011 15.5837 14.5828 15.9655L15.6887 17.0713C16.0704 17.4526 16.6891 17.4526 17.0709 17.0713C17.4526 16.69 17.4526 16.0704 17.0709 15.6895L15.965 14.5837ZM4.03454 5.41674C4.4163 5.79894 5.03499 5.79894 5.41674 5.41674C5.79849 5.03499 5.79849 4.4163 5.41674 4.03454L4.31089 2.92914C3.92914 2.54739 3.31045 2.54739 2.9287 2.92914C2.54695 3.31045 2.54695 3.92958 2.9287 4.31089L4.03454 5.41674Z" fill="#FFC907"/>
</svg>
