<?xml version="1.0" encoding="utf-8"?>
<!-- Generator: Adobe Illustrator 26.3.1, SVG Export Plug-In . SVG Version: 6.00 Build 0)  -->
<svg version="1.1" id="Слой_1" xmlns="http://www.w3.org/2000/svg" xmlns:xlink="http://www.w3.org/1999/xlink" x="0px" y="0px"
	 viewBox="0 0 17 19" style="enable-background:new 0 0 17 19;" xml:space="preserve">
<path d="M3.4,5.2C3.4,2.3,5.7,0,8.5,0c2.8,0,5.1,2.3,5.1,5.2s-2.3,5.2-5.1,5.2C5.7,10.3,3.4,8,3.4,5.2z M12.8,12H4.2
	C1.9,12,0,14,0,16.3v1.8C0,18.6,0.4,19,0.8,19c0.5,0,14.8,0,15.3,0c0.5,0,0.9-0.4,0.9-0.9v-1.8C17,14,15.1,12,12.8,12z"/>
</svg>
