<?xml version="1.0" encoding="utf-8"?>
<!-- Generator: Adobe Illustrator 26.3.1, SVG Export Plug-In . SVG Version: 6.00 Build 0)  -->
<svg version="1.1" id="Слой_1" xmlns="http://www.w3.org/2000/svg" xmlns:xlink="http://www.w3.org/1999/xlink" x="0px" y="0px"
	 viewBox="0 0 22.9 23" style="enable-background:new 0 0 22.9 23;" xml:space="preserve">
<g>
	<path d="M22.8,22.2l-5-5c1.7-1.8,2.8-4.3,2.8-6.9C20.6,4.6,16,0,10.3,0S0,4.6,0,10.3c0,5.6,4.6,10.3,10.3,10.3c2.6,0,5-1,6.8-2.7
		l5,5c0.1,0.1,0.3,0.1,0.4,0.1s0.3,0,0.3-0.1C23,22.7,23,22.4,22.8,22.2z M1,10.3C1,5.2,5.2,1,10.3,1c5.1,0,9.3,4.2,9.3,9.3
		c0,2.5-1,4.9-2.7,6.5c0,0-0.1,0-0.1,0.1c0,0,0,0,0,0.1c-1.7,1.6-4,2.6-6.5,2.6C5.2,19.6,1,15.4,1,10.3z"/>
	<path d="M13.9,9.8h-3.1V6.6c0-0.3-0.2-0.5-0.5-0.5S9.8,6.3,9.8,6.6v3.2H6.6c-0.3,0-0.5,0.2-0.5,0.5s0.2,0.5,0.5,0.5h3.2v3.1
		c0,0.3,0.2,0.5,0.5,0.5s0.5-0.2,0.5-0.5v-3.1h3.1c0.3,0,0.5-0.2,0.5-0.5S14.2,9.8,13.9,9.8z"/>
</g>
</svg>
