<?xml version="1.0" encoding="utf-8"?>
<!-- Generator: Adobe Illustrator 26.3.1, SVG Export Plug-In . SVG Version: 6.00 Build 0)  -->
<svg version="1.1" id="Слой_1" xmlns="http://www.w3.org/2000/svg" xmlns:xlink="http://www.w3.org/1999/xlink" x="0px" y="0px"
	 viewBox="0 0 19 19" style="enable-background:new 0 0 19 19;" xml:space="preserve">
<g>
	<path d="M17.5,1.5C16.6,0.5,15.4,0,14,0c-1.3,0-2.6,0.5-3.5,1.4L8.9,3c-0.2,0.2-0.2,0.5,0,0.7c0.2,0.2,0.5,0.2,0.7,0l1.6-1.5
		C11.9,1.4,12.9,1,14,1c0,0,0,0,0,0c1.1,0,2.1,0.4,2.8,1.2C17.6,2.9,18,3.9,18,5c0,1.1-0.4,2.1-1.1,2.8l-2.7,2.7
		c-0.4,0.4-0.9,0.7-1.4,0.9c-0.5,0.2-1.1,0.3-1.7,0.2c-0.6,0-1.1-0.2-1.6-0.5c-0.5-0.3-1-0.7-1.3-1.1C7.9,9.9,7.6,9.8,7.4,10
		c-0.2,0.2-0.3,0.5-0.1,0.7c0.4,0.6,1,1.1,1.6,1.4c0.6,0.3,1.3,0.6,2.1,0.6c0.1,0,0.2,0,0.4,0c0.6,0,1.2-0.1,1.8-0.3
		c0.7-0.2,1.3-0.6,1.8-1.2l2.7-2.7C18.5,7.6,19,6.3,19,5C19,3.7,18.5,2.4,17.5,1.5z"/>
	<path d="M9.4,15.3l-1.5,1.5C7.1,17.6,6.1,18,5,18c-1.1,0-2.1-0.4-2.8-1.2C1.4,16.1,1,15.1,1,14c0-1.1,0.4-2.1,1.1-2.8l2.7-2.7
		c0.4-0.4,0.9-0.7,1.4-0.9C6.8,7.3,7.4,7.2,8,7.3c0.6,0,1.1,0.2,1.6,0.5c0.5,0.3,0.9,0.7,1.3,1.1c0.2,0.2,0.5,0.3,0.7,0.1
		c0.2-0.2,0.3-0.5,0.1-0.7c-0.4-0.6-1-1.1-1.6-1.4C9.5,6.5,8.8,6.3,8.1,6.3C7.3,6.2,6.6,6.3,5.9,6.6C5.3,6.8,4.6,7.2,4.1,7.8
		l-2.7,2.7C0.5,11.4,0,12.7,0,14c0,1.3,0.5,2.6,1.5,3.5C2.4,18.5,3.7,19,5,19c0,0,0,0,0,0c1.3,0,2.6-0.5,3.5-1.4l1.5-1.5
		c0.2-0.2,0.2-0.5,0-0.7S9.6,15.1,9.4,15.3z"/>
</g>
</svg>
