<?xml version="1.0" encoding="utf-8"?>
<!-- Generator: Adobe Illustrator 26.3.1, SVG Export Plug-In . SVG Version: 6.00 Build 0)  -->
<svg version="1.1" id="Слой_1" xmlns="http://www.w3.org/2000/svg" xmlns:xlink="http://www.w3.org/1999/xlink" x="0px" y="0px"
	 viewBox="0 0 36 40" style="enable-background:new 0 0 36 40;" xml:space="preserve">
<g>
	<path d="M33.2,28.1c-1.8-1.8-4.2-2.8-6.7-2.8h-17c-2.5,0-4.9,1-6.7,2.8C1,29.9,0,32.3,0,34.8V39c0,0.6,0.4,1,1,1s1-0.4,1-1v-4.2
		c0-2,0.8-3.9,2.2-5.3c1.4-1.4,3.3-2.2,5.3-2.2h17c2,0,3.9,0.8,5.3,2.2c1.4,1.4,2.2,3.3,2.2,5.3V39c0,0.6,0.4,1,1,1s1-0.4,1-1v-4.2
		C36,32.3,35,29.9,33.2,28.1z"/>
	<path d="M18,18.9c5.2,0,9.5-4.2,9.5-9.4S23.2,0,18,0S8.5,4.2,8.5,9.4S12.8,18.9,18,18.9z M18,2c4.1,0,7.5,3.3,7.5,7.4
		s-3.4,7.4-7.5,7.4s-7.5-3.3-7.5-7.4S13.9,2,18,2z"/>
</g>
</svg>
