<?xml version="1.0" encoding="utf-8"?>
<!-- Generator: Adobe Illustrator 26.3.1, SVG Export Plug-In . SVG Version: 6.00 Build 0)  -->
<svg version="1.1" id="Слой_1" xmlns="http://www.w3.org/2000/svg" xmlns:xlink="http://www.w3.org/1999/xlink" x="0px" y="0px"
	 viewBox="0 0 19 23" style="enable-background:new 0 0 19 23;" xml:space="preserve">
<g>
	<path d="M9.5,23c-0.1,0-0.2,0-0.3-0.1C8.8,22.7,0,16.7,0,9.5C0,7,1,4.6,2.8,2.8C4.6,1,7,0,9.5,0c2.5,0,4.9,1,6.7,2.8
		C18,4.6,19,7,19,9.5c0,7.2-8.8,13.2-9.2,13.4C9.7,23,9.6,23,9.5,23z M9.5,1c-2.3,0-4.4,0.9-6,2.5C1.9,5.1,1,7.2,1,9.5
		c0,6,7,11.3,8.5,12.4C11,20.8,18,15.5,18,9.5c0-2.3-0.9-4.4-2.5-6C13.9,1.9,11.8,1,9.5,1z"/>
</g>
<g>
	<path d="M9.5,13C7.6,13,6,11.4,6,9.5S7.6,6,9.5,6S13,7.6,13,9.5S11.4,13,9.5,13z M9.5,7C8.1,7,7,8.1,7,9.5S8.1,12,9.5,12
		c1.4,0,2.5-1.1,2.5-2.5S10.9,7,9.5,7z"/>
</g>
</svg>
