<?xml version="1.0" encoding="utf-8"?>
<!-- Generator: Adobe Illustrator 26.3.1, SVG Export Plug-In . SVG Version: 6.00 Build 0)  -->
<svg version="1.1" id="Слой_1" xmlns="http://www.w3.org/2000/svg" xmlns:xlink="http://www.w3.org/1999/xlink" x="0px" y="0px"
	 viewBox="0 0 21 19" style="enable-background:new 0 0 21 19;" xml:space="preserve">
<g>
	<path d="M18.5,15h-1c-0.3,0-0.5-0.2-0.5-0.5s0.2-0.5,0.5-0.5h1c0.4,0,0.8-0.2,1.1-0.4s0.4-0.7,0.4-1.1v-10c0-0.4-0.2-0.8-0.4-1.1
		S18.9,1,18.5,1h-16C2.1,1,1.7,1.2,1.4,1.4S1,2.1,1,2.5v10c0,0.4,0.2,0.8,0.4,1.1S2.1,14,2.5,14h1C3.8,14,4,14.2,4,14.5
		S3.8,15,3.5,15h-1c-0.7,0-1.3-0.3-1.8-0.7S0,13.2,0,12.5v-10c0-0.7,0.3-1.3,0.7-1.8S1.8,0,2.5,0h16c0.7,0,1.3,0.3,1.8,0.7
		S21,1.8,21,2.5v10c0,0.7-0.3,1.3-0.7,1.8S19.2,15,18.5,15z"/>
</g>
<g>
	<path d="M15.5,19h-10c-0.2,0-0.4-0.1-0.5-0.3C5,18.5,5,18.3,5.1,18.2l5-6c0.2-0.2,0.6-0.2,0.8,0l5,6c0.1,0.1,0.2,0.4,0.1,0.5
		C15.9,18.9,15.7,19,15.5,19z M6.6,18h7.9l-3.9-4.7L6.6,18z"/>
</g>
</svg>
