<svg width="17" height="18" viewBox="0 0 17 18" fill="none" xmlns="http://www.w3.org/2000/svg">
<path d="M12.3287 5.05068L13.0926 6.43668L14.5914 6.76689L13.5648 7.95371L13.7271 9.54376L12.3287 8.89125L10.9302 9.54376L11.0925 7.95371L10.066 6.76689L11.5647 6.43668L12.3287 5.05068ZM16.1053 12.8839L15.1234 12.6676L14.6229 11.7595L14.1224 12.6676L13.1406 12.8839L13.8131 13.6614L13.7068 14.7031L14.623 14.2756L15.5392 14.7031L15.4328 13.6614L16.1053 12.8839ZM7.69263 9C7.69263 5.47251 9.63686 2.4196 12.4674 0.943912C11.3094 0.340219 10.0034 0 8.62105 0C3.85977 0 0 4.02943 0 9C0 13.9706 3.85977 18 8.62105 18C10.0034 18 11.3094 17.6598 12.4674 17.0561C9.63686 15.5804 7.69263 12.5275 7.69263 9Z" fill="#78ADFD"/>
</svg>
