<svg width="10" height="19" viewBox="0 0 10 19" fill="none" xmlns="http://www.w3.org/2000/svg">
<path d="M4.20921 1.45416C4.27063 0.574375 4.94628 -0.0639018 5.71407 0.00510496C6.49722 0.0741118 7.06539 0.833134 7.00396 1.69567C6.94254 2.5582 6.26689 3.21372 5.49909 3.14473C4.73131 3.07572 4.16314 2.3167 4.20921 1.45416ZM9.75265 8.88919L7.83318 7.38838L6.42044 4.24876C6.17474 3.83475 5.7755 3.50699 5.29947 3.45524C4.93093 3.42073 4.5931 3.57599 4.3167 3.78299L1.47587 6.35334C1.38374 6.4396 1.30696 6.56035 1.27625 6.69836L0.662017 9.80347C0.662017 9.82072 0.646657 9.85522 0.646657 9.88973C0.615953 10.2865 0.892354 10.6143 1.23019 10.6488C1.568 10.6833 1.84442 10.4072 1.90584 10.0622L2.42794 7.40563L3.4107 6.5086L1.9212 13.9781L0.124566 17.3765C0.0784985 17.48 0.0170711 17.6525 0.00172074 17.825C-0.028993 18.4288 0.354903 18.9291 0.876994 18.9808C1.24554 19.0153 1.568 18.8083 1.76764 18.4633L3.70247 14.7889C3.73318 14.6854 3.87137 14.4611 3.88674 14.3404L4.36276 11.9253L6.37438 14.4094L7.00396 18.1528C7.11146 18.6013 7.43392 18.9636 7.86388 18.9981C8.40134 19.0326 8.84666 18.6013 8.89272 18.0148C8.90809 17.9285 8.89272 17.8768 8.89272 17.7905L8.21707 13.8056C8.18636 13.6849 8.15565 13.5641 8.09422 13.4606L5.60659 10.1657L6.25153 7.06062L6.77363 8.23367C6.80434 8.30266 6.86575 8.37167 6.92718 8.44067L9.03093 10.0622C9.13842 10.114 9.2152 10.1657 9.32268 10.1657C9.66052 10.183 9.96763 9.90697 9.99834 9.51021C10.0137 9.26871 9.92157 9.02719 9.75265 8.88919Z" fill="#6A87A1"/>
</svg>
