<svg width="33" height="36" viewBox="0 0 33 36" fill="none" xmlns="http://www.w3.org/2000/svg">
<path d="M28.1673 4.79284C25.0509 1.70215 20.9073 0 16.5 0C12.0927 0 7.94913 1.70215 4.83275 4.79284C1.71629 7.88368 0 11.993 0 16.364C0 23.8268 5.09119 30.3026 12.2642 32.1827C12.728 32.3042 13.1464 32.5654 13.4357 32.9479L14.9048 34.8906C15.705 35.9488 17.295 35.9488 18.0952 34.8906L19.5644 32.9478C19.8536 32.5654 20.272 32.3042 20.7359 32.1826C27.9088 30.3025 33 23.8268 33 16.364C33 11.993 31.2837 7.88368 28.1673 4.79284Z" fill="#FF5C5C"/>
</svg>
