<?xml version="1.0" encoding="utf-8"?>
<!-- Generator: Adobe Illustrator 26.3.1, SVG Export Plug-In . SVG Version: 6.00 Build 0)  -->
<svg version="1.1" id="Слой_1" xmlns="http://www.w3.org/2000/svg" xmlns:xlink="http://www.w3.org/1999/xlink" x="0px" y="0px"
	 viewBox="0 0 11 11" style="enable-background:new 0 0 11 11;" xml:space="preserve">
<style type="text/css">
	.st0{fill:#000102;}
</style>
<g>
	<path class="st0" d="M5.5,11C2.5,11,0,8.5,0,5.5C0,2.5,2.5,0,5.5,0c3,0,5.5,2.5,5.5,5.5C11,8.5,8.5,11,5.5,11z M5.5,1
		C3,1,1,3,1,5.5S3,10,5.5,10S10,8,10,5.5S8,1,5.5,1z"/>
</g>
<g>
	<path class="st0" d="M5.5,6.5C5.3,6.5,5.1,6.4,5,6.2C4.9,5.9,5,5.6,5.3,5.5c0.3-0.1,1.2-0.5,1.2-1c0-0.2-0.1-0.5-0.2-0.6
		C6.1,3.7,5.9,3.6,5.6,3.5c-0.2,0-0.5,0-0.7,0.1C4.8,3.8,4.6,3.9,4.5,4.2C4.4,4.4,4.1,4.6,3.9,4.5C3.6,4.4,3.5,4.1,3.6,3.8
		C3.7,3.4,4,3,4.4,2.8c0.4-0.2,0.9-0.3,1.4-0.2C6.3,2.6,6.7,2.8,7,3.2C7.3,3.6,7.5,4,7.5,4.5c0,1.3-1.7,1.9-1.8,2
		C5.6,6.5,5.5,6.5,5.5,6.5z"/>
</g>
<g>
	<path class="st0" d="M5.5,8.5C5.2,8.5,5,8.3,5,8s0.2-0.5,0.5-0.5h0C5.8,7.5,6,7.7,6,8S5.8,8.5,5.5,8.5z"/>
</g>
</svg>
