<?xml version="1.0" encoding="utf-8"?>
<!-- Generator: Adobe Illustrator 26.3.1, SVG Export Plug-In . SVG Version: 6.00 Build 0)  -->
<svg version="1.1" id="Слой_1" xmlns="http://www.w3.org/2000/svg" xmlns:xlink="http://www.w3.org/1999/xlink" x="0px" y="0px"
	 viewBox="0 0 20 20" style="enable-background:new 0 0 20 20;" xml:space="preserve">
<style type="text/css">
	.st0{fill:#0188FF;}
</style>
<path class="st0" d="M19.5,18.5l-3.8-3.8c1.3-1.5,2.1-3.5,2.1-5.6c0-4.8-3.9-8.8-8.8-8.8C4.2,0.2,0.2,4.2,0.2,9
	c0,4.8,3.9,8.8,8.8,8.8c2.1,0,4.1-0.8,5.6-2.1l3.8,3.8c0.1,0.1,0.3,0.2,0.5,0.2s0.4-0.1,0.5-0.2C19.8,19.2,19.8,18.8,19.5,18.5z
	 M1.8,9C1.8,5,5,1.8,9,1.8c4,0,7.2,3.3,7.2,7.2c0,2-0.8,3.8-2.1,5.1c0,0,0,0,0,0s0,0,0,0c-1.3,1.3-3.1,2.1-5.1,2.1
	C5,16.2,1.8,13,1.8,9z"/>
</svg>
