<?xml version="1.0" encoding="utf-8"?>
<!-- Generator: Adobe Illustrator 26.3.1, SVG Export Plug-In . SVG Version: 6.00 Build 0)  -->
<svg version="1.1" id="Слой_1" xmlns="http://www.w3.org/2000/svg" xmlns:xlink="http://www.w3.org/1999/xlink" x="0px" y="0px"
	 viewBox="0 0 21 21" style="enable-background:new 0 0 21 21;" xml:space="preserve">
<g>
	<path d="M10.5,21C4.7,21,0,16.3,0,10.5C0,4.7,4.7,0,10.5,0C16.3,0,21,4.7,21,10.5C21,16.3,16.3,21,10.5,21z M10.5,1
		C5.3,1,1,5.3,1,10.5S5.3,20,10.5,20s9.5-4.3,9.5-9.5S15.7,1,10.5,1z"/>
</g>
<g>
	<path d="M14.5,13c-0.1,0-0.2,0-0.2-0.1l-4-2c-0.2-0.1-0.3-0.3-0.3-0.4v-6C10,4.2,10.2,4,10.5,4S11,4.2,11,4.5v5.7l3.7,1.9
		c0.2,0.1,0.3,0.4,0.2,0.7C14.9,12.9,14.7,13,14.5,13z"/>
</g>
</svg>
