<svg width="386" height="412" viewBox="0 0 386 412" fill="none" xmlns="http://www.w3.org/2000/svg">
<path fill-rule="evenodd" clip-rule="evenodd" d="M236.409 330.758C220.487 324.297 201.647 300.157 210.618 279.312C219.365 258.989 261.184 247.685 255.042 282.429C243.426 289.608 245.291 286.635 231.167 284.937C229.318 319.519 263.746 310.684 275.496 296.095C293.462 273.787 272.664 162.177 162.372 266.369C140.069 287.439 108.403 324.136 56.653 315.088C15.3537 307.868 -3.87966 272.928 10.1774 232.662L13.1462 222.473C14.6845 210.672 3.62621 215.333 1.82327e-05 203.442L14.1605 193.027C12.3369 174.351 -2.72447 154.361 10.1033 129.048C18.852 111.782 33.1744 99.1563 56.6019 95.6227C109.822 87.5957 139.431 122.212 163.938 145.665C180.899 161.897 238.563 208.922 267.133 177.349C284.472 158.189 292.712 101.587 249.133 101.981C233.403 102.123 231.103 109.855 230.62 124.881C236.783 124.749 247.353 122.666 252.062 125.673C268.764 136.338 242.581 165.025 217.261 140.558C188.653 112.915 235.839 77.8838 236.034 77.6517C228.668 65.1589 221.47 61.9243 215.417 43.0943C211.116 29.7118 207.959 8.02071 220.619 -1.12304e-05C220.955 0.515492 221.292 1.98702 221.404 1.67046C221.518 1.35262 222 2.94487 222.149 3.36406C228.169 20.3296 227.353 29.6749 244.049 49.7349C255.521 63.5178 267.941 73.8378 279.986 86.4602C301.583 109.094 307.95 137.409 295.221 168.142C292.485 174.749 285.667 188.145 284.784 194.128C303.446 192.813 313.96 186.004 339.397 187.744C349.906 188.463 380.403 196.123 386 205.649C376.651 215.311 353.792 221.343 341.202 222.924C317.028 225.958 303.241 216.997 284.925 216.94C289.033 239.718 324.043 273.453 279.74 324.598C261.915 345.174 239.948 358.849 229.417 384.571C225.943 393.056 224.039 406.949 220.619 412C191.962 386.801 235.516 333.293 236.409 330.758ZM71.249 247.951C63.4703 246.43 54.1983 238.116 49.526 250.763C43.3424 267.503 73.6289 278.545 85.7869 253.821C91.4099 242.386 87.6903 232.475 87.2168 220.327C101.692 222.155 139.604 237.677 165.956 205.649C161.937 195.363 140.544 185.906 132.501 184.707C109.122 181.225 101.677 189.16 84.4082 190.741C90.6024 176.641 90.7456 158.523 79.0189 147.097C66.0105 134.422 39.4372 145.891 51.7522 163.719C62.6372 169.93 63.4796 163.687 70.191 160.217L72.2426 181.728C7.85353 226.659 -2.35192 87.4405 89.8105 116.552C121.162 126.456 203.117 195.859 207.742 205.649C202.045 216.546 118.792 287.669 83.0524 296.488C46.9373 305.4 22.9697 283.866 21.832 251.919C20.3461 210.197 82.0281 207.936 71.249 247.951Z" fill="white"/>
</svg>
