<svg width="743" height="698" viewBox="0 0 743 698" fill="none" xmlns="http://www.w3.org/2000/svg">
<path fill-rule="evenodd" clip-rule="evenodd" d="M146.511 270.504C158.164 299.296 201.698 333.364 239.289 317.142C275.94 301.325 296.325 225.703 233.669 236.811C220.721 257.814 226.083 254.443 229.145 279.982C166.781 283.326 182.713 221.07 209.024 199.823C249.254 167.336 450.53 204.944 262.631 404.385C224.633 444.715 158.454 501.977 174.77 595.555C187.792 670.236 250.802 705.016 323.417 679.596L341.792 674.228C363.074 671.446 354.669 691.443 376.112 698L394.895 672.394C428.576 675.691 464.625 702.927 510.276 679.73C541.413 663.91 564.182 638.011 570.554 595.647C585.03 499.41 522.603 445.868 480.308 401.553C451.035 370.883 366.23 266.608 423.169 214.945C457.722 183.593 559.798 168.691 559.088 247.495C558.831 275.94 544.888 280.098 517.79 280.972C518.028 269.828 521.784 250.715 516.361 242.199C497.129 211.997 445.395 259.343 489.517 305.13C539.369 356.86 602.544 271.535 602.963 271.182C625.493 284.501 631.326 297.518 665.284 308.464C689.418 316.241 728.535 321.95 743 299.056C742.07 298.45 739.417 297.84 739.987 297.637C740.561 297.432 737.689 296.56 736.933 296.29C706.338 285.404 689.484 286.879 653.308 256.689C628.452 235.944 609.841 213.485 587.078 191.705C546.26 152.651 495.196 141.137 439.774 164.154C427.858 169.103 403.699 181.431 392.91 183.028C395.281 149.281 407.561 130.268 404.422 84.2723C403.126 65.2693 389.312 10.1214 372.133 4.47687e-05C354.709 16.9063 343.83 58.2414 340.98 81.0085C335.508 124.721 351.668 149.653 351.771 182.773C310.693 175.345 249.855 112.036 157.621 192.149C120.513 224.382 95.8521 264.105 49.4662 283.147C34.1631 289.429 9.10855 292.872 -1.74384e-05 299.056C45.4439 350.877 141.94 272.118 146.511 270.504ZM295.845 569.161C298.588 583.227 313.583 599.994 290.775 608.443C260.586 619.624 240.673 564.858 285.259 542.872C305.881 532.704 323.756 539.43 345.663 540.287C342.367 514.111 314.374 445.556 372.133 397.904C390.682 405.171 407.737 443.856 409.899 458.399C416.18 500.676 401.869 514.139 399.018 545.366C424.446 534.165 457.12 533.906 477.726 555.111C500.584 578.634 479.9 626.686 447.749 604.417C436.548 584.734 447.807 583.21 454.064 571.074L415.272 567.364C334.244 683.799 585.31 702.253 532.81 535.597C514.95 478.904 389.788 330.705 372.133 322.342C352.48 332.645 224.218 483.19 208.314 547.817C192.243 613.124 231.077 656.464 288.69 658.521C363.931 661.208 368.008 549.669 295.845 569.161Z" fill="#F4F4F4"/>
</svg>
