<svg width="606" height="570" viewBox="0 0 606 570" fill="none" xmlns="http://www.w3.org/2000/svg">
<path fill-rule="evenodd" clip-rule="evenodd" d="M119.496 349.486C129 326.016 164.507 298.244 195.166 311.468C225.059 324.361 241.686 386.007 190.583 376.953C180.022 359.831 184.396 362.579 186.893 341.76C136.028 339.034 149.023 389.784 170.482 407.104C203.294 433.588 367.457 402.93 214.204 240.348C183.213 207.472 129.236 160.793 142.544 84.5093C153.165 23.6303 204.556 -4.72143 263.782 16L278.769 20.3763C296.127 22.6439 289.272 6.34291 306.761 0.997572L322.081 21.8714C349.552 19.1833 378.954 -3.01857 416.187 15.8907C441.582 28.7872 460.153 49.8997 465.35 84.434C477.157 162.885 426.241 206.532 391.745 242.657C367.869 267.659 298.701 352.662 345.141 394.777C373.323 420.335 456.578 432.483 455.999 368.243C455.789 345.055 444.417 341.665 422.315 340.953C422.51 350.038 425.573 365.618 421.15 372.56C405.464 397.181 363.269 358.584 399.256 321.26C439.916 279.09 491.442 348.646 491.784 348.934C510.159 338.076 514.917 327.465 542.613 318.542C562.297 312.202 594.202 307.548 605.999 326.211C605.241 326.705 603.077 327.202 603.542 327.368C604.01 327.535 601.668 328.246 601.051 328.466C576.097 337.341 562.351 336.137 532.846 360.748C512.573 377.659 497.393 395.968 478.827 413.723C445.536 445.559 403.887 454.945 358.684 436.181C348.966 432.147 329.261 422.098 320.462 420.796C322.395 448.305 332.411 463.805 329.851 501.3C328.794 516.791 317.527 561.747 303.516 569.998C289.304 556.216 280.431 522.52 278.107 503.961C273.644 468.327 286.824 448.003 286.908 421.004C253.405 427.059 203.784 478.668 128.557 413.361C98.2914 387.085 78.1776 354.703 40.3447 339.18C27.8633 334.059 7.4285 331.252 -0.000563532 326.211C37.0641 283.968 115.768 348.171 119.496 349.486ZM241.294 106.025C243.531 94.5587 255.762 80.8909 237.159 74.0035C212.537 64.8883 196.295 109.533 232.661 127.455C249.48 135.744 264.058 130.261 281.927 129.563C279.238 150.902 256.407 206.786 303.516 245.632C318.644 239.708 332.555 208.172 334.318 196.317C339.441 161.854 327.769 150.879 325.443 125.423C346.183 134.554 372.832 134.765 389.638 117.479C408.282 98.3031 391.412 59.1316 365.189 77.2851C356.053 93.3307 365.236 94.5724 370.34 104.466L338.7 107.49C272.613 12.5744 477.385 -2.46941 434.566 133.387C419.999 179.601 317.916 300.411 303.516 307.229C287.487 298.83 182.875 176.108 169.903 123.425C156.795 70.1875 188.469 34.857 235.458 33.18C296.826 30.9896 300.151 121.915 241.294 106.025Z" fill="#F4F4F4"/>
</svg>
