<svg width="112" height="89" viewBox="0 0 112 89" fill="none" xmlns="http://www.w3.org/2000/svg">
<path fill-rule="evenodd" clip-rule="evenodd" d="M52.1996 7.5405H55.8795H59.5595C59.2072 4.33631 57.519 4.30074 55.8795 3.08954C54.2401 4.30074 52.5519 4.33631 52.1996 7.5405Z" fill="#696969"/>
<path d="M3.09365 68.4612L2.87895 75.5448L5.94734 68.4612H10.594C10.535 69.8837 10.5056 71.4074 10.5056 73.032C10.5056 74.6651 10.535 76.193 10.594 77.6156H7.34891L7.57616 70.7214L4.52051 77.6156H0C0.06739 75.9826 0.101085 74.4547 0.101085 73.032C0.101085 71.6178 0.0673899 70.0942 0 68.4612H3.09365ZM36.479 70.7214L36.1886 71.4537C35.3889 73.5834 34.5512 75.6374 33.6758 77.6156C33.2213 78.6258 32.5646 79.436 31.7061 80.0462C30.8474 80.6566 29.7699 80.9491 28.4735 80.9239C28.3136 80.2252 28.181 79.6801 28.0758 79.2887C27.9705 78.8972 27.8338 78.5037 27.6654 78.1081C28.1284 78.2175 28.562 78.2722 28.966 78.2722C29.6226 78.2722 30.1445 78.1333 30.5317 77.8555C30.2287 76.9548 29.8709 75.9867 29.4584 74.9514C29.0459 73.9159 28.4483 72.5059 27.6654 70.7214H30.658C30.759 71.1423 30.8979 71.6305 31.0747 72.186C31.2515 72.7416 31.4282 73.2762 31.605 73.7897C31.6555 73.9496 31.7376 74.1917 31.8512 74.5157C31.9648 74.8398 32.0554 75.1113 32.1227 75.3301L32.451 74.3326C33.0824 72.5059 33.4569 71.3021 33.5748 70.7214H36.479ZM46.3531 70.7214C46.3111 72.0009 46.2901 73.1499 46.2901 74.1684C46.2901 75.187 46.3111 76.3361 46.3531 77.6156H36.984C37.0261 76.656 37.0472 75.5069 37.0472 74.1684C37.0472 72.8301 37.0261 71.681 36.984 70.7214H39.5852V75.3175H40.5574V70.7214H42.7925V75.3175H43.7521V70.7214H46.3531ZM81.3421 70.7214C81.3 72.0009 81.2789 73.1499 81.2789 74.1684C81.2789 75.187 81.3 76.3361 81.3421 77.6156H78.8546V75.4185H77.8319C77.251 76.3361 76.8133 77.0684 76.5186 77.6156H73.5514C74.2247 76.698 74.793 75.9068 75.256 75.2418C74.6077 75.0734 74.149 74.7998 73.8796 74.4211C73.6102 74.0422 73.4755 73.575 73.4755 73.0194C73.4755 72.3207 73.7281 71.7651 74.2332 71.3527C74.7382 70.9402 75.6305 70.734 76.91 70.734H78.8546V70.7214H81.3421ZM78.8546 73.6381V72.5523H77.7181C77.1037 72.5523 76.6891 72.5901 76.4745 72.6659C76.2598 72.7416 76.1524 72.8805 76.1524 73.0826C76.1524 73.293 76.264 73.4382 76.4871 73.5182C76.7101 73.5982 77.1205 73.6381 77.7181 73.6381H78.8546ZM111.621 75.8226H112V79.2192H109.614V77.8428H105.623V79.2445H103.237V75.8226H103.654C103.94 75.7805 104.157 75.6753 104.304 75.5069C104.451 75.3386 104.567 75.0608 104.651 74.6736C104.71 74.3705 104.74 73.6466 104.74 72.5017V70.7214L111.621 70.734V75.8226ZM106.886 75.4059C106.869 75.4985 106.836 75.6374 106.785 75.8226H109.21V72.8553H107.063V73.2341C107.054 73.7223 107.042 74.1074 107.025 74.3894C107.008 74.6714 106.962 75.0102 106.886 75.4059ZM19.3065 70.7214C19.2644 72.0009 19.2434 73.1499 19.2434 74.1684C19.2434 75.187 19.2644 76.3361 19.3065 77.6156H16.5665V75.3175H14.0916V77.6156H11.3515C11.3937 76.656 11.4147 75.5069 11.4147 74.1684C11.4147 72.8301 11.3937 71.681 11.3515 70.7214H14.0916V73.0194H16.5665V70.7214H19.3065ZM22.7536 77.6156H20.0641C20.1062 76.6476 20.1273 75.4985 20.1273 74.1684C20.1273 72.8301 20.1062 71.681 20.0641 70.7214H27.1604C27.152 71.016 27.1479 71.6052 27.1479 72.4891V73.1709H22.7536V77.6156ZM53.9167 74.4589H49.8003C49.8677 74.8293 50.0339 75.1302 50.2991 75.3617C50.5642 75.5932 50.9409 75.7089 51.4292 75.7089C51.7827 75.7089 52.1153 75.6395 52.4267 75.5006C52.7382 75.3617 52.9865 75.166 53.1717 74.9135C53.7357 75.1912 54.4849 75.4901 55.4193 75.81C55.1584 76.3993 54.6848 76.8685 53.9987 77.2178C53.3127 77.5672 52.4183 77.7419 51.3156 77.7419C49.8845 77.7419 48.826 77.4115 48.1399 76.7507C47.4538 76.0898 47.1108 75.2207 47.1108 74.1432C47.1108 73.091 47.4517 72.2366 48.1336 71.58C48.8154 70.9234 49.8761 70.595 51.3156 70.595C52.1742 70.595 52.9191 70.7381 53.5505 71.0243C54.1818 71.3106 54.6659 71.7083 55.0026 72.2177C55.3393 72.7269 55.5076 73.3098 55.5076 73.9665C55.5076 74.1853 55.4992 74.3495 55.4824 74.4589H53.9167ZM51.4923 72.5017C51.0714 72.5017 50.7263 72.5817 50.457 72.7416C50.1876 72.9016 49.9981 73.1205 49.8887 73.3983H52.8687C52.7676 73.1289 52.6035 72.9121 52.3762 72.748C52.1489 72.5838 51.8543 72.5017 51.4923 72.5017ZM64.056 73.0952C62.7933 73.0615 61.8758 73.0404 61.3033 73.032V77.6156H58.6265V73.032C58.0625 73.0404 57.1491 73.0615 55.8864 73.0952V70.7214H64.056V73.0952ZM72.718 70.7214C72.6759 71.9419 72.6548 73.0447 72.6548 74.0295C72.6548 74.9976 72.6759 76.1004 72.718 77.3378H70.1295L70.2683 72.9689L68.3365 77.3378H64.8135C64.864 76.2267 64.8893 75.1239 64.8893 74.0295C64.8893 72.9184 64.864 71.8157 64.8135 70.7214H67.3011L67.1748 75.2039L69.1067 70.7214H72.718ZM87.9585 77.6156H84.8775C84.9449 75.9741 84.9786 74.4462 84.9786 73.032C84.9786 71.6094 84.9449 70.0816 84.8775 68.4485H93.8173C93.8006 69.1388 93.7922 69.6649 93.7922 70.0268C93.7922 70.473 93.7964 70.8097 93.8048 71.037H87.9585V77.6156ZM102.606 70.7214C102.564 71.9419 102.543 73.0447 102.543 74.0295C102.543 74.9976 102.564 76.1004 102.606 77.3378H100.017L100.156 72.9689L98.2242 77.3378H94.7012C94.7518 76.2267 94.777 75.1239 94.777 74.0295C94.777 72.9184 94.7518 71.8157 94.7012 70.7214H97.1888L97.0625 75.2039L98.9944 70.7214H102.606Z" fill="#1A1A1A"/>
<path fill-rule="evenodd" clip-rule="evenodd" d="M17.8711 28.5574C17.9018 28.571 17.9465 28.605 17.961 28.5945C17.9894 28.5752 18.001 28.531 18.0198 28.4973C17.9842 28.4953 17.9495 28.4935 17.9138 28.4916C17.8995 28.5137 17.8854 28.5353 17.8711 28.5574ZM81.3856 50.4071C81.3717 50.4075 81.3617 50.4927 81.3496 50.5389C81.4092 50.536 81.4703 50.5389 81.5276 50.5259C81.5449 50.5215 81.5516 50.4711 81.5632 50.4417C81.504 50.4278 81.4444 50.4051 81.3856 50.4071ZM78.9495 49.4411C78.875 49.4935 78.8004 49.5454 78.7258 49.5974C78.7657 49.6465 78.81 49.7388 78.846 49.7365C78.9234 49.7302 78.9965 49.6744 79.077 49.6359C79.0182 49.546 78.9842 49.4941 78.9495 49.4411ZM65.4518 62.082C65.2084 62.0685 65.0053 62.0575 64.8023 62.0464C65.1896 62.3495 65.1896 62.3495 65.4518 62.082ZM68.0501 52.773C67.8832 52.773 67.7162 52.7817 67.5503 52.7706C67.3862 52.7605 67.2232 52.7303 67.06 52.7091C67.0591 52.7491 67.0582 52.7885 67.0571 52.8284H68.0497C68.0497 52.8101 68.0501 52.7913 68.0501 52.773ZM40.6377 55.5345L39.5899 55.5894C39.5913 55.6177 39.5928 55.6461 39.5938 55.6744H40.6598C40.6521 55.6277 40.6449 55.5811 40.6377 55.5345ZM21.8833 26.5393C21.5104 26.5229 21.2097 26.5095 20.9091 26.4964C21.5701 26.8126 21.5701 26.8126 21.8833 26.5393ZM66.2822 52.519C65.8785 52.5373 65.4754 52.5552 65.0717 52.5734C65.0722 52.5985 65.0731 52.6229 65.0737 52.6474H66.312C66.3018 52.6046 66.2923 52.5618 66.2822 52.519ZM63.578 52.3517H61.7095C61.7085 52.369 61.7076 52.3863 61.7071 52.4036C62.3297 52.4455 62.9526 52.4878 63.5752 52.5302C63.5761 52.4704 63.577 52.4113 63.578 52.3517ZM60.3938 62.0093C61.1778 62.0329 61.9625 62.0295 62.741 62.1878C63.1142 62.2643 63.5144 62.3075 63.9614 62.1777C63.8301 62.0911 63.7521 61.9992 63.6645 61.9882C61.9216 61.775 60.1705 61.701 58.4084 61.7206C59.0707 61.8197 59.7183 61.9891 60.3938 62.0093ZM48.4327 60.4318C48.5366 60.4497 48.64 60.4828 48.7445 60.4834C50.4036 60.4886 52.0628 60.4814 53.7221 60.4954C54.3331 60.5007 54.9464 60.5256 55.5541 60.5858C56.9876 60.7278 58.4126 60.9514 59.8592 60.949C60.5078 60.9481 61.1577 60.9899 61.8058 61.0356C63.2446 61.1371 64.6845 61.2348 66.121 61.3689C67.1963 61.4696 68.2858 61.3556 69.352 61.6201C69.6405 61.6913 69.972 61.6995 70.2843 61.5254C70.1943 61.4658 70.1409 61.4026 70.0788 61.3926C68.5529 61.1482 67.0346 60.8619 65.484 60.7864C64.2251 60.7252 62.9708 60.5694 61.7119 60.5079C60.0209 60.4251 58.328 60.3779 56.635 60.3429C54.512 60.2995 52.389 60.2788 50.266 60.2596C49.6589 60.2544 49.0509 60.2875 48.4432 60.3029C48.4399 60.3457 48.436 60.3886 48.4327 60.4318ZM47.9415 63.707C48.3461 63.823 48.7997 63.757 49.2279 63.808C49.6815 63.8615 50.0563 64.1468 50.5575 64.1521C52.3963 64.1713 54.235 64.2488 56.0716 64.3512C59.2397 64.5287 62.406 64.7366 65.5725 64.9401C66.8321 65.0209 68.09 65.1271 69.349 65.2143C69.5945 65.231 69.8691 65.2719 69.9643 64.8968C69.6483 64.4012 69.2528 63.9563 68.7304 63.5675C67.9357 63.8955 67.1139 63.8114 66.2869 63.7305C65.8555 63.6887 65.5744 63.504 65.4437 63.0898C65.6365 63.0302 65.8223 62.9729 66.0079 62.9152C65.661 62.7515 65.3196 62.702 64.9761 62.6828C64.3275 62.6463 63.6781 62.6328 63.0291 62.6016C60.6517 62.487 58.274 62.3643 55.8956 62.2575C55.4775 62.2388 55.0527 62.1806 54.7103 62.5904C54.5881 62.7371 54.2383 62.7342 53.9934 62.7304C52.1538 62.7025 50.3142 62.6539 48.4745 62.6174C47.9693 62.6073 47.4638 62.6026 46.9596 62.6241C46.7441 62.6332 46.5381 62.7247 46.5296 63.0764C46.9789 63.2842 47.4406 63.5627 47.9415 63.707ZM77.052 49.3261L77.0487 49.3933L77.1301 49.3628L77.052 49.3261ZM29.1918 27.4408C29.1332 27.4264 29.0749 27.4086 29.0152 27.4014C29.0042 27.3999 28.9878 27.4389 28.9739 27.4595C29.0322 27.4736 29.0904 27.4909 29.1495 27.4981C29.161 27.4995 29.1773 27.461 29.1918 27.4408ZM72.9758 49.9342C73.2232 50.0795 73.4642 50.292 73.6633 49.911C73.5609 49.8764 73.4598 49.8121 73.3641 49.8187C73.2327 49.8288 73.1053 49.8933 72.9758 49.9342ZM26.6503 27.436C27.1419 27.6673 27.587 27.5419 28.1696 27.4374C27.5875 27.3586 27.1438 27.1955 26.6503 27.436ZM53.0179 51.2298C53.5061 51.3163 54.0431 51.4842 54.5636 51.2298H53.0179ZM47.1376 51.6795C48.7819 51.9282 50.3955 51.6926 52.009 51.4717C52.0489 51.4659 52.0754 51.3582 52.1235 51.2688C51.3975 50.9834 50.7178 51.4115 50.0081 51.3942C49.0543 51.3712 48.0949 51.5736 47.1376 51.6795ZM17.9769 60.428C18.6913 60.1788 19.2176 59.9363 19.7709 59.8193C20.248 59.7188 20.5556 59.4965 20.7456 59.0689C20.7878 58.9737 20.8461 58.8847 20.9062 58.776C21.8559 58.5153 22.8478 58.6966 23.8947 58.5046C23.6238 58.2376 23.3323 58.3199 23.0898 58.2636C22.7391 58.1823 22.3802 58.1333 22.0328 58.0404C21.8664 57.9957 21.7178 57.8821 21.4551 57.7441C21.6423 57.631 21.7399 57.5223 21.8433 57.5165C23.391 57.4337 24.9391 57.35 26.4882 57.298C27.0621 57.2794 27.6394 57.3664 28.2147 57.3606C28.6804 57.3553 29.1447 57.2756 29.6109 57.2437C29.9674 57.2192 30.3267 57.1927 30.6827 57.21C32.1592 57.2816 33.6317 57.2899 35.0942 57.0325C35.2001 57.0137 35.3097 56.983 35.4141 56.9936C37.2995 57.1932 39.1584 56.8209 41.0313 56.7434C41.6803 56.7164 42.3277 56.6573 42.9757 56.6116C44.0909 56.5337 45.2287 56.5649 46.3139 56.3422C47.2454 56.1507 48.1603 56.2027 49.0826 56.1382C49.8927 56.0819 50.6995 55.9732 51.6198 55.8756C51.0435 55.5894 50.5398 55.5753 50.0415 55.571C48.309 55.5576 46.5765 55.5474 44.8443 55.5566C43.7985 55.5629 42.7534 55.6095 41.7081 55.6312C41.6437 55.6325 41.5786 55.5773 41.5002 55.5427C41.5936 55.2194 41.7528 54.897 41.7687 54.5675C41.8009 53.9075 41.4565 53.5602 40.7892 53.5389C40.3212 53.5244 39.8488 53.5471 39.3825 53.5971C36.9724 53.8559 34.5511 53.8522 32.1331 53.8953C29.3174 53.946 26.5002 53.9406 23.684 53.9574C23.1855 53.9604 22.6824 53.985 22.2258 53.713C22.2608 53.4601 22.4682 53.4513 22.6323 53.4447C23.569 53.4081 24.5066 53.399 25.4427 53.3605C26.0914 53.3335 26.7388 53.274 27.3863 53.23C27.7083 53.2079 28.0301 53.1786 28.3523 53.1695C29.8624 53.1276 31.374 53.1281 32.8813 53.0445C34.3928 52.9611 35.8986 52.7793 37.4091 52.6697C39.3845 52.5268 41.3626 52.4263 43.3375 52.2775C43.9817 52.2289 44.6186 52.085 45.2657 51.9836C44.4189 51.63 43.5771 51.6324 42.7247 51.9442C42.6 51.9898 42.4461 51.9537 42.306 51.9591C41.914 51.9725 41.5205 51.9672 41.1308 52.0062C40.4534 52.074 39.7876 52.2978 39.0948 52.1101C38.9606 52.074 38.8024 52.0828 38.6649 52.1136C37.2514 52.4248 35.8057 52.2664 34.3831 52.415C33.5936 52.4979 32.8121 52.6557 32.0134 52.5334C31.385 52.8795 30.7587 52.5936 30.1247 52.5532C29.3073 52.5012 28.4703 52.4012 27.6759 52.7548C27.5576 52.8073 27.3801 52.8134 27.2608 52.7649C26.4063 52.4171 25.5567 52.6307 24.699 52.7384C24.1708 52.8043 23.6321 52.801 23.098 52.7995C22.9811 52.799 22.8474 52.6927 22.752 52.6027C22.4654 52.3334 22.1295 52.2631 21.7524 52.2992C21.217 52.3502 20.6811 52.392 20.1465 52.4377C20.1076 52.3813 20.0345 52.3237 20.0393 52.2747C20.1192 51.4747 20.1211 51.4756 19.4082 51.1832C19.2753 51.1287 19.1478 51.0619 19.0151 51.007C18.9204 50.9675 18.8213 50.9382 18.585 50.8559C19.0887 50.7174 19.4687 50.6125 19.8738 50.5005C19.8738 50.2085 19.883 49.9597 19.8719 49.7123C19.8588 49.4411 19.9277 49.1952 20.1465 49.04C20.5544 48.7497 20.5675 48.3125 20.5982 47.8988C20.9375 47.6366 21.3137 47.7077 21.6644 47.6967C22.2435 47.6788 22.808 47.6096 23.3789 47.4956C24.0096 47.3711 24.6663 47.3642 25.3129 47.3354C25.9965 47.3056 26.6821 47.3224 27.3661 47.2984C29.4213 47.2267 31.4775 47.1737 33.5297 47.0543C34.6434 46.9901 35.7547 46.8821 36.8709 46.8241C38.7437 46.7274 40.6137 46.5662 42.4845 46.4306C42.6582 46.418 42.8315 46.3958 43.023 46.2486C42.8853 46.2083 42.7458 46.1279 42.611 46.1346C41.277 46.2006 39.9402 46.2414 38.6119 46.3665C35.9876 46.6129 33.358 46.7417 30.7256 46.8028C28.4168 46.8567 26.1072 46.8639 23.798 46.8899C23.1081 46.8981 22.438 46.8058 21.8318 46.5291C21.6279 46.0702 22.2182 46.0259 22.1964 45.6877C21.7625 45.4934 21.7625 45.4934 21.448 45.8676C21.3671 45.8383 21.2502 45.8297 21.1857 45.7671C20.8264 45.4173 20.4078 45.2807 19.908 45.312C19.4788 45.3394 19.0463 45.3177 18.6119 45.1735C19.157 45.1575 19.702 45.1474 20.2461 45.1229C20.5699 45.108 20.9005 45.1055 21.2141 45.0349C21.711 44.9228 21.8828 44.6028 21.7903 44.0698C21.7356 43.7538 21.6778 43.4387 21.6115 43.0658C21.368 43.0292 21.1284 42.9734 20.8865 42.9604C19.3725 42.8767 17.8557 42.832 16.3446 42.7137C15.5618 42.6525 14.7648 42.5603 14.0229 42.1109C14.2928 41.4802 14.1533 40.7658 14.3889 40.1101C14.4367 39.9772 14.4145 39.8204 14.4612 39.6881C14.5199 39.5193 14.6165 39.3644 14.6959 39.2032C14.7989 38.9935 14.7926 38.7895 14.6795 38.5832C14.5954 38.4305 14.5261 38.2705 14.416 38.0428C14.6556 38.0029 14.82 37.9721 14.986 37.9495C15.126 37.9298 15.2674 37.9191 15.4676 37.899C15.3506 37.7042 15.2343 37.5651 15.1764 37.4049C14.9941 36.9042 15.205 36.5285 15.7366 36.4832C16.2734 36.4375 16.817 36.4664 17.3577 36.464C17.5339 36.463 17.7099 36.464 18.0419 36.464C17.4559 36.0127 16.8482 36.1488 16.3585 35.9416C16.0834 35.4869 15.8102 35.0372 15.5108 34.5429C15.6013 34.1769 15.7101 33.7357 15.8534 33.1556C16.0237 32.9208 16.6674 33.055 16.7348 32.4047C16.5376 32.1752 16.2858 31.8817 16.0131 31.5637C16.497 31.4593 16.9921 31.2943 17.4953 31.2601C18.0289 31.224 18.5706 31.3212 19.1093 31.3457C19.6497 31.3698 20.1903 31.377 20.7316 31.3895C21.7053 31.4113 22.6789 31.4352 23.6527 31.4472C23.901 31.4501 24.1671 31.4453 24.3045 31.1046C22.9715 30.9802 21.6206 31.2116 20.3428 30.7453C20.2539 30.7126 20.1907 30.6077 20.1245 30.5452C20.1561 30.2715 20.366 30.2846 20.5251 30.2715C20.9471 30.2354 21.3709 30.2253 21.778 30.2061C21.7938 30.1065 21.8092 30.0746 21.7995 30.055C21.7846 30.0242 21.7553 29.982 21.7274 29.9776C21.0872 29.8895 20.4458 29.8054 19.7968 29.7192C19.729 29.1472 19.2686 29.0188 18.8125 28.8446C20.1086 28.9741 21.3391 28.9158 22.5501 28.77C21.966 28.5247 21.3378 28.4107 20.6839 28.3837C20.2895 28.3673 19.8922 28.2986 19.5077 28.2053C19.0511 28.0936 18.5964 27.9474 18.3388 27.4086C18.4893 27.3373 18.6585 27.1805 18.7818 27.211C19.4909 27.3864 20.1957 27.0929 20.9149 27.257C21.5778 27.4081 22.2753 27.4163 22.9589 27.4692C23.6739 27.5249 24.3907 27.5674 25.107 27.5971C25.3457 27.6063 25.586 27.5583 25.9339 27.5265C25.4466 26.9304 24.7827 27.4768 24.3295 27.0574C23.9082 26.6668 23.2804 27.0516 22.74 26.8063C22.8883 26.7235 23.0143 26.6528 23.201 26.5484C22.2312 26.3825 21.3199 26.2184 20.4064 26.0707C19.8233 25.9769 19.3018 25.7701 18.8549 25.3062C19.0416 25.213 19.2128 25.1274 19.3779 25.0451C19.3456 24.3408 18.62 24.3591 18.1449 23.8939C18.787 23.9251 19.2725 23.9491 19.7945 23.9751C19.7945 23.723 19.78 23.5195 19.7983 23.3189C19.8176 23.1068 19.8686 22.897 19.9161 22.6252C20.1461 22.6252 20.3891 22.6276 20.6319 22.6247C21.75 22.6127 22.8685 22.6108 23.9861 22.5751C24.2238 22.5685 24.4908 22.488 24.6879 22.3563C25.3538 21.9123 26.0451 21.7112 26.8336 21.9618C26.9255 21.9911 27.0414 21.9508 27.1447 21.9335C27.1766 21.9281 27.203 21.893 27.2354 21.8685C27.1919 21.6182 27.0131 21.6245 26.8365 21.6794C26.377 21.8223 25.9354 21.8348 25.4466 21.5678C25.551 21.4586 25.6068 21.3465 25.6823 21.3302C26.7379 21.1016 27.8006 21.0587 28.8772 21.1724C29.3011 21.2162 29.7374 21.1261 30.1685 21.1195C31.2143 21.1031 32.2607 21.081 33.3056 21.0954C35.3583 21.1232 37.4111 21.1589 39.4628 21.2209C41.4819 21.282 43.4996 21.3682 45.5169 21.4687C46.2351 21.5042 46.95 21.6135 47.6662 21.6895C47.7741 21.7005 47.8813 21.716 47.9891 21.7237C49.6796 21.8381 51.3697 21.957 53.0597 22.0653C54.678 22.1692 56.2902 22.328 57.8998 22.5179C58.9736 22.6445 60.055 22.7081 61.1332 22.797C61.1661 22.7997 64.0598 23.495 64.4329 23.6018C65.5284 23.9148 67.8284 24.0082 69.0454 24.1348C69.1889 24.1497 69.3451 24.1242 69.4746 24.1738C70.0924 24.4091 70.7499 24.3408 71.3792 24.449C72.6964 24.6751 74.029 24.6674 75.35 24.8103C75.6734 24.8455 75.9984 24.8742 76.3165 24.9377C77.1229 25.0984 77.9315 25.1764 78.7562 25.2274C80.1141 25.312 81.4737 25.4501 82.7991 25.8629C83.7545 26.1606 84.7249 26.443 85.7476 26.5142C87.047 26.6052 87.1467 26.6533 88.394 27.5347C88.7981 27.8203 89.2004 27.9931 89.669 28.0628C90.1687 28.1365 90.6744 28.1811 91.1689 28.2828C91.6163 28.3741 92.0719 28.401 92.4543 28.7706C92.6876 28.9966 93.1183 29.0111 93.4507 29.1448C94.0853 29.3997 94.689 29.7294 95.3991 29.7688C95.5958 29.7798 95.7829 29.9511 95.9777 30.0411C96.2033 30.1444 96.4247 30.273 96.6624 30.3302C96.9808 30.4067 97.2758 30.4533 97.499 30.7554C97.6073 30.9012 97.8747 30.9584 98.081 30.995C98.5785 31.0831 99.0813 31.1496 99.5839 31.1975C99.9183 31.2299 100.205 31.3347 100.544 31.6181C100.23 31.7041 100.003 31.8115 99.7731 31.8216C98.8007 31.8643 97.8285 31.8817 96.8558 31.9009C96.495 31.9085 96.1337 31.8884 95.7729 31.8952C95.5024 31.8995 95.2794 32.0149 95.1648 32.2694C95.0228 32.584 95.3245 32.698 95.4707 32.8875C95.2605 33.1599 94.9179 33.3846 95.263 33.8113C95.3783 33.9541 95.3452 34.2169 95.3871 34.4641C95.6314 34.5602 95.8937 34.6622 96.2688 34.809C95.9287 34.886 95.69 34.9105 95.475 34.9947C94.8077 35.2554 94.637 35.9246 95.0835 36.4838C95.3635 36.8344 95.6969 37.0874 96.176 37.0956C96.6076 37.1033 97.0386 37.136 97.5047 37.1602C97.5865 37.262 97.7005 37.3589 97.7563 37.4819C97.9589 37.9298 98.3241 38.1199 98.7839 38.1607C99.2149 38.1992 99.6479 38.2213 100.08 38.2463C100.435 38.2676 100.807 38.2088 101.177 38.5253C100.952 38.6115 100.773 38.7208 100.583 38.7438C100.336 38.7731 100.078 38.7577 99.8298 38.7211C99.2505 38.6355 98.7825 38.8121 98.3813 39.2933C98.5303 39.7637 98.9349 39.9913 99.3588 40.1784C99.2602 40.4112 99.178 40.6056 99.0663 40.8692C99.4079 41.0198 99.7244 41.1598 100.074 41.3146C99.8476 41.5841 99.6475 41.8222 99.4535 42.0532C98.9346 42.0532 98.4318 42.0479 97.9291 42.0551C97.6058 42.059 97.2771 42.0498 96.9602 42.1042C96.4703 42.1877 96.3318 42.554 96.5931 42.9913C96.7884 43.3194 97.0607 43.5367 97.4556 43.5638C97.7793 43.5859 98.1056 43.5921 98.4289 43.6243C98.7819 43.6608 99.1333 43.719 99.4897 43.7682C99.5103 44.043 99.3285 43.9842 99.2342 44.0352C99.0808 44.1179 98.909 44.1824 98.7834 44.2974C98.6834 44.3888 98.6631 44.5648 98.5674 44.6644C98.4742 44.7611 98.3316 44.863 98.2075 44.8674C97.6029 44.8892 97.1886 45.1778 96.9641 45.7065C96.6422 45.7849 96.3632 45.8556 96.0827 45.9186C95.9427 45.9499 95.7622 46.0335 95.6632 45.9792C94.7813 45.4972 93.8904 46.0264 92.9999 45.9378C92.1416 45.8533 92.0055 46.0606 91.8953 47.0275C89.2802 47.2204 86.6627 46.7033 84.0514 46.9271C83.9849 47.1661 84.136 47.2061 84.2718 47.2407C84.6088 47.3273 84.9924 47.2777 85.3108 47.6014C85.1511 47.6265 85.0399 47.6765 84.9471 47.6524C84.4401 47.5235 83.9579 47.5597 83.4626 47.742C83.1272 47.8652 82.751 47.9729 82.4042 47.9473C80.9171 47.8372 79.4815 48.3712 77.9964 48.2634C77.7247 48.2442 77.4428 48.3692 77.103 48.4405C77.5558 49.0591 78.2735 48.4294 78.6921 48.8879C78.2528 49.4291 77.8251 49.6681 77.3052 49.6701C76.8867 49.672 76.4676 49.6764 75.9726 49.6802C76.0649 49.8625 76.0919 50.0058 76.1562 50.0256C76.3926 50.0974 76.6437 50.1223 76.8833 50.1863C76.9053 50.1926 76.8861 50.3532 76.8861 50.4687C77.1556 50.4865 77.4369 50.5206 77.7179 50.5158C77.8483 50.5134 78.0542 50.4702 78.0927 50.385C78.2322 50.0766 78.463 50.1006 78.7234 50.1242C78.8639 50.1371 79.0159 50.1311 79.1486 50.0896C79.4893 49.9834 79.7658 50.0353 80.0448 50.2797C80.1887 50.4057 80.4288 50.4224 80.7661 50.536C80.5366 50.6097 80.4273 50.6712 80.3158 50.6761C79.5941 50.7068 78.8715 50.753 78.15 50.7423C76.5932 50.7208 75.0566 50.9214 73.5186 51.1167C73.3439 51.1388 73.0721 51.1639 73.0221 51.271C72.7815 51.7821 72.3712 51.5959 71.9994 51.5795C71.8554 51.5727 71.7112 51.5521 71.5692 51.5267C71.2142 51.464 70.8606 51.3423 70.5061 51.3399C69.8603 51.3355 69.2144 51.4001 68.5399 51.4381C68.6693 51.8007 68.956 51.7213 69.1777 51.7455C70.2535 51.8614 71.3311 51.9615 72.4082 52.0707C72.5132 52.0813 72.615 52.1197 72.7661 52.1568C72.2871 52.4887 71.7675 52.4185 71.2815 52.4512C70.8528 52.4805 70.417 52.4219 69.985 52.3926C69.5169 52.3612 69.047 52.2673 68.5827 52.2915C67.3897 52.352 66.2321 52.0611 65.0539 51.9861C63.8676 51.9109 62.7004 51.8305 61.5031 52.0399C60.0527 52.2935 58.57 52.3246 57.0872 52.2714C56.0799 52.2351 55.0677 52.3203 54.0579 52.3589C53.9251 52.3637 53.7937 52.4147 53.4219 52.4988C54.4789 52.5536 55.2841 52.6244 56.09 52.6307C57.3143 52.6399 58.5363 52.6575 59.752 52.8255C59.787 52.8307 59.8246 52.8298 59.8598 52.8237C61.2019 52.5898 62.5038 53.0165 63.8282 53.069C63.9725 53.0747 64.1159 53.1099 64.2597 53.1103C65.8506 53.1127 67.4271 53.308 69.0075 53.4576C69.2648 53.4822 69.2643 53.4817 69.8287 53.2305C69.6541 53.1464 69.5343 53.0886 69.3644 53.0064C69.949 52.6316 70.4272 52.9761 71.1145 52.9736C70.7943 53.1127 70.6715 53.166 70.5484 53.2199C70.5816 53.2686 70.6123 53.3575 70.6484 53.36C71.1872 53.3927 71.7266 53.4139 72.3288 53.4412C72.0167 53.4937 71.7572 53.5369 71.4984 53.5808C71.497 53.6217 71.4955 53.6626 71.4942 53.7039C71.6823 53.7476 71.8743 53.7819 72.0589 53.8401C72.2235 53.8916 72.3798 53.9699 72.5992 54.0618C72.4635 54.1701 72.3852 54.2326 72.3086 54.2937C72.772 54.6767 73.2482 54.8286 73.8097 54.8214C75.1763 54.8037 76.5432 54.7979 77.9104 54.7936C79.2387 54.7892 80.5668 54.7927 81.8908 54.7209C81.1013 54.8345 80.3109 54.9456 79.5214 55.0635C78.9899 55.1428 78.4751 55.241 77.917 55.1544C77.4321 55.0798 76.9164 55.2295 76.4132 55.2477C75.1524 55.2929 73.8905 55.3277 72.6291 55.3498C72.234 55.357 71.8579 55.3988 71.2873 55.6196C71.6121 55.7066 71.7285 55.7679 71.8425 55.7634C72.5589 55.7374 73.2752 55.9024 73.9938 55.7423C74.1988 55.6961 74.4288 55.7216 74.6413 55.7529C75.9005 55.941 77.1588 55.7802 78.4179 55.7736C79.2453 55.7697 80.0728 55.8636 80.9002 55.9106C81.2236 55.9294 81.5492 55.9689 81.8705 55.9481C82.2598 55.9227 82.6051 56.0478 82.8683 56.2859C83.183 56.5712 83.4817 56.9104 83.411 57.4019C82.3858 57.9019 81.2817 57.9803 80.1844 58.0631C79.177 58.139 78.1652 58.1654 77.1551 58.2077C76.903 58.2184 76.6427 58.2444 76.3987 58.1986C74.6395 57.8686 72.8759 58.1424 71.1145 58.1365C70.4243 58.3752 69.7258 58.408 69.0166 58.23C68.9839 58.2212 68.9455 58.2385 68.9099 58.2424C66.6545 58.4911 64.3809 58.4483 62.1241 58.663C61.303 58.7413 60.4905 58.9102 59.6697 58.9972C58.3073 59.1426 56.9414 59.256 55.5766 59.3803C55.4333 59.3932 55.287 59.3989 55.1433 59.3917C53.1924 59.2869 51.2734 59.6731 49.3356 59.7724C49.2279 59.7781 49.1205 59.8107 49.0134 59.8127C47.1386 59.8444 45.282 60.1191 43.4145 60.2428C42.805 60.2837 42.1974 60.3612 41.5893 60.4226C41.3738 60.4444 41.1569 60.4992 40.9431 60.4856C38.875 60.3563 36.8641 60.9164 34.8109 61.0024C33.9555 61.0389 33.0905 61.2501 32.2351 61.162C31.5477 61.0904 30.8708 61.0933 30.1887 61.1217C29.8288 61.1371 29.4704 61.1847 29.1111 61.2161C28.897 61.2348 28.6795 61.2814 28.4683 61.2622C26.7725 61.1097 25.081 61.281 23.3877 61.3156C22.3398 61.3372 21.292 61.3358 20.2447 61.3506C19.8373 61.3569 19.4668 61.2737 19.1166 61.0466C18.7961 60.8389 18.444 60.6786 17.9769 60.428Z" fill="#D1EFFF"/>
<path fill-rule="evenodd" clip-rule="evenodd" d="M38.4414 25.5469C38.301 25.5473 38.1052 25.5075 37.9453 25.5014C37.769 25.4945 37.5935 25.4995 37.4184 25.5166C36.4864 25.6076 35.6295 26.0363 35.0378 26.6539C34.9869 26.707 34.9494 26.737 34.9022 26.7954C34.8127 26.9061 34.7574 26.958 34.6594 27.0949C34.1327 27.831 33.882 28.6421 33.9236 29.6103C32.1388 29.6183 31.3626 31.6207 32.3415 32.8447C32.5301 33.0806 32.7956 33.3075 33.1534 33.4525C33.5016 33.5936 33.963 33.6966 34.1784 33.3084C34.2772 33.1304 34.2765 32.9283 34.1768 32.7525C34.0892 32.598 33.9623 32.52 33.7388 32.4758C32.8802 32.3062 32.7885 31.1762 33.484 30.8246C33.6567 30.7374 33.8408 30.6935 34.0609 30.7324C34.2508 30.7661 34.1335 30.7548 34.3497 31.1601C34.5543 31.5437 34.6727 31.688 34.9333 31.996C34.9622 32.03 34.9903 32.0493 35.021 32.081C35.1293 32.1927 35.163 32.234 35.2938 32.3394C36.0213 32.926 36.8506 33.2899 37.9337 33.2518C38.6566 33.2264 39.2508 33.0258 39.8423 32.6703C39.9183 32.6247 39.9864 32.5687 40.0544 32.5312C41.0252 33.9154 42.9184 33.5813 43.5184 32.2956C43.675 31.9601 43.7531 31.562 43.693 31.1434C43.6361 30.7468 43.5076 30.386 43.1273 30.3349C42.7295 30.2815 42.3916 30.6591 42.5269 31.0618C42.5972 31.2707 42.6381 31.4038 42.5801 31.645C42.395 32.4156 41.3355 32.5605 40.9516 31.8755C40.9422 31.8585 40.9008 31.782 40.8942 31.7582C40.879 31.7029 40.913 31.681 40.9401 31.6441C41.3936 31.0264 41.693 30.1877 41.6718 29.2841C41.6471 28.2266 41.2144 27.3166 40.5407 26.6424L40.3634 26.4731C40.1183 26.2627 39.8363 26.0514 39.5409 25.9118C39.6342 25.6984 39.7068 25.5677 39.7565 25.3013C39.87 24.6933 39.6723 24.0075 39.2491 23.5827C39.0742 23.407 38.9147 23.2603 38.643 23.1386C38.439 23.0473 38.2297 22.9817 37.9796 22.9586C37.2852 22.8942 36.6198 23.2073 36.2319 23.7041C35.9055 24.1221 36.265 24.6973 36.7605 24.6024C36.9445 24.5672 37.0307 24.4789 37.1348 24.3535C37.468 23.9517 38.1439 23.9927 38.4442 24.3414C38.7657 24.7145 38.7549 25.2388 38.4414 25.5469ZM37.6044 27.1695C36.4458 27.275 35.4719 28.2797 35.5878 29.5743C35.691 30.7281 36.7077 31.6979 37.9921 31.5837C39.1459 31.4809 40.1174 30.4644 40.0019 29.1768C39.899 28.0305 38.8844 27.0529 37.6044 27.1695Z" fill="#FF0000"/>
<path d="M12.5519 86.9575C12.2043 86.9575 11.905 86.8754 11.6545 86.7123C11.4039 86.5493 11.2127 86.3127 11.0809 86.0016L11.5605 85.8591C11.6491 86.0687 11.7776 86.2274 11.945 86.3364C12.1124 86.4456 12.3133 86.5006 12.5488 86.5006C12.8943 86.5006 13.1612 86.3926 13.348 86.1777C13.5348 85.9628 13.6428 85.6755 13.673 85.3148H12.1081V84.9065H13.673C13.6471 84.5544 13.5424 84.2682 13.3587 84.049C13.1752 83.8297 12.9084 83.7207 12.5584 83.7207C12.3252 83.7207 12.1199 83.7779 11.9417 83.8923C11.7635 84.0069 11.6318 84.1699 11.5476 84.3816L11.0809 84.2325C11.1803 83.9323 11.3618 83.6958 11.6242 83.523C11.8867 83.3502 12.1988 83.2637 12.5617 83.2637C12.903 83.2637 13.1957 83.3405 13.4398 83.4949C13.6839 83.6493 13.8707 83.8654 14.0003 84.143C14.1299 84.4205 14.1947 84.7445 14.1947 85.1139C14.1947 85.4811 14.1299 85.8029 13.9992 86.0794C13.8685 86.3559 13.6806 86.5708 13.4365 86.7253C13.1924 86.8797 12.8976 86.9575 12.5519 86.9575ZM14.7944 86.8603V86.4423C14.9239 86.4661 15.0233 86.4596 15.0913 86.4239C15.1594 86.3883 15.2091 86.3278 15.2415 86.2425C15.2739 86.1572 15.3009 86.0513 15.3225 85.9239C15.3571 85.7122 15.3883 85.4789 15.4164 85.2241C15.4446 84.9691 15.4704 84.6873 15.4931 84.3795C15.5158 84.0716 15.5384 83.7326 15.5622 83.361H17.9404V86.8603H17.4674V83.8178H16.0029C15.9878 84.0468 15.9705 84.2746 15.9511 84.5015C15.9316 84.7283 15.9122 84.9453 15.8917 85.1539C15.8712 85.3623 15.8484 85.5545 15.8246 85.7295C15.801 85.9045 15.7761 86.0556 15.7501 86.1831C15.7113 86.3754 15.6605 86.5287 15.5968 86.6432C15.5331 86.7577 15.438 86.8333 15.3128 86.87C15.1875 86.9067 15.0147 86.9035 14.7944 86.8603ZM20.5393 86.9575C20.198 86.9575 19.9031 86.8819 19.6537 86.7306C19.4041 86.5795 19.2098 86.3667 19.0715 86.0923C18.9333 85.818 18.8641 85.4962 18.8641 85.1268C18.8641 84.7445 18.9322 84.414 19.0682 84.1354C19.2043 83.8568 19.3966 83.6418 19.6439 83.4906C19.8913 83.3394 20.1828 83.2637 20.5199 83.2637C20.8654 83.2637 21.1603 83.3426 21.4043 83.5014C21.6484 83.6601 21.8332 83.888 21.9584 84.184C22.0837 84.4799 22.1409 84.833 22.1302 85.2434H21.6441V85.075C21.6355 84.6214 21.5383 84.279 21.3515 84.0479C21.1646 83.8168 20.8914 83.7012 20.5328 83.7012C20.1569 83.7012 19.8697 83.8232 19.6699 84.0673C19.47 84.3114 19.3696 84.6591 19.3696 85.1106C19.3696 85.5513 19.47 85.8926 19.6699 86.1356C19.8697 86.3785 20.1526 86.5006 20.5199 86.5006C20.7704 86.5006 20.9896 86.4423 21.1765 86.3267C21.3633 86.2112 21.5102 86.0449 21.6182 85.8267L22.0621 85.9984C21.9239 86.303 21.7208 86.5384 21.4519 86.7058C21.183 86.8732 20.8784 86.9575 20.5393 86.9575ZM19.2011 85.2434V84.8449H21.8742V85.2434H19.2011ZM23.0538 86.8603L23.0571 83.361H23.5366V85.0459L25.0983 83.361H25.7333L24.094 85.1106L25.9472 86.8603H25.2539L23.5366 85.1754V86.8603H23.0538ZM27.4315 86.8603V83.8016H26.1905V83.361H29.1488V83.8016H27.9078V86.8603H27.4315ZM31.5467 86.9575C31.2249 86.9575 30.9527 86.8754 30.7302 86.7123C30.5078 86.5493 30.3392 86.3278 30.2247 86.0481C30.1103 85.7684 30.053 85.4551 30.053 85.1073C30.053 84.7531 30.1114 84.4367 30.2269 84.1592C30.3425 83.8816 30.5121 83.6634 30.7367 83.5035C30.9613 83.3437 31.2378 83.2637 31.5661 83.2637C31.8858 83.2637 32.1602 83.3448 32.3891 83.5068C32.6181 83.6688 32.7941 83.8891 32.9162 84.1678C33.0383 84.4464 33.0987 84.7597 33.0987 85.1073C33.0987 85.4573 33.0371 85.7716 32.9141 86.0502C32.7909 86.3289 32.6138 86.5493 32.3826 86.7123C32.1515 86.8754 31.8728 86.9575 31.5467 86.9575ZM29.972 88.4155V83.361H30.3997V85.9952H30.4516V88.4155H29.972ZM31.4981 86.5136C31.7422 86.5136 31.9453 86.452 32.1073 86.3289C32.2692 86.2058 32.3912 86.0373 32.4723 85.8246C32.5532 85.6117 32.5932 85.3731 32.5932 85.1073C32.5932 84.8439 32.5532 84.6062 32.4733 84.3945C32.3935 84.1829 32.2725 84.0155 32.1094 83.8923C31.9463 83.7692 31.739 83.7077 31.4883 83.7077C31.2443 83.7077 31.0424 83.7671 30.8814 83.8859C30.7205 84.0047 30.5995 84.1689 30.5195 84.3795C30.4397 84.5901 30.3997 84.833 30.3997 85.1073C30.3997 85.3774 30.4397 85.6183 30.5195 85.831C30.5995 86.0438 30.7205 86.2112 30.8825 86.3321C31.0445 86.4531 31.2497 86.5136 31.4981 86.5136ZM35.4837 86.9575C35.1359 86.9575 34.8388 86.8786 34.5926 86.7209C34.3463 86.5633 34.1573 86.3451 34.0256 86.0664C33.8938 85.7878 33.8279 85.4682 33.8279 85.1073C33.8279 84.7402 33.8949 84.4183 34.0289 84.1418C34.1628 83.8654 34.3539 83.6493 34.6013 83.4949C34.8485 83.3405 35.1423 83.2637 35.4837 83.2637C35.8335 83.2637 36.1328 83.3415 36.38 83.4982C36.6274 83.6548 36.8164 83.8718 36.9471 84.1494C37.0778 84.427 37.1425 84.7466 37.1425 85.1073C37.1425 85.4746 37.0766 85.7965 36.9449 86.074C36.8132 86.3516 36.6231 86.5686 36.3747 86.7242C36.1263 86.8797 35.8292 86.9575 35.4837 86.9575ZM35.4837 86.5006C35.8725 86.5006 36.1618 86.3711 36.3519 86.1129C36.542 85.8548 36.6371 85.5199 36.6371 85.1073C36.6371 84.684 36.542 84.3471 36.3509 84.0964C36.1597 83.8459 35.8703 83.7207 35.4837 83.7207C35.2223 83.7207 35.0074 83.779 34.8378 83.8967C34.6682 84.0144 34.5418 84.1775 34.4587 84.3859C34.3755 84.5944 34.3334 84.8352 34.3334 85.1073C34.3334 85.5286 34.4306 85.8656 34.625 86.1194C34.8194 86.3732 35.1056 86.5006 35.4837 86.5006ZM38.063 86.8603V83.361H38.5393V84.8806H40.5126V83.361H40.9888V86.8603H40.5126V85.3374H38.5393V86.8603H38.063ZM42.1037 86.8603V83.361H42.58V84.8806H44.5532V83.361H45.0294V86.8603H44.5532V85.3374H42.58V86.8603H42.1037ZM46.1508 86.8603L46.1443 83.361H46.6239V84.6797H47.233C47.3345 84.6797 47.4338 84.6819 47.5311 84.6862C47.6282 84.6905 47.7157 84.6991 47.7935 84.7121C47.9663 84.7466 48.1197 84.805 48.2536 84.887C48.3876 84.9691 48.4933 85.0814 48.5711 85.2251C48.6489 85.3688 48.6877 85.5502 48.6877 85.7684C48.6877 86.0687 48.61 86.3052 48.4545 86.4779C48.2989 86.6507 48.1035 86.763 47.868 86.8149C47.7795 86.8343 47.6834 86.8462 47.5797 86.8517C47.476 86.857 47.3744 86.8603 47.2751 86.8603H46.1508ZM46.6239 86.452H47.2556C47.3269 86.452 47.4079 86.4499 47.4987 86.4456C47.5894 86.4413 47.6693 86.4294 47.7384 86.4099C47.8551 86.3775 47.9609 86.3116 48.0548 86.2133C48.1488 86.1151 48.1952 85.9671 48.1952 85.7684C48.1952 85.5718 48.1499 85.4228 48.0592 85.3223C47.9684 85.2219 47.8475 85.156 47.6963 85.1235C47.6272 85.1085 47.5549 85.0987 47.4781 85.0944C47.4014 85.0901 47.3269 85.088 47.2556 85.088H46.6239V86.452ZM49.1057 86.8603V83.361H49.582V86.8603H49.1057ZM52.1517 82.9463C51.9983 82.9463 51.8579 82.9085 51.7304 82.8328C51.6031 82.7572 51.5026 82.6558 51.4281 82.5294C51.3535 82.403 51.3157 82.2637 51.3157 82.1103H51.7111C51.7111 82.2313 51.7542 82.3349 51.8406 82.4214C51.927 82.5078 52.0307 82.5509 52.1517 82.5509C52.2748 82.5509 52.3796 82.5078 52.4649 82.4214C52.5502 82.3349 52.5924 82.2313 52.5924 82.1103H52.9876C52.9876 82.2637 52.9509 82.403 52.8764 82.5294C52.8018 82.6558 52.7004 82.7572 52.5729 82.8328C52.4454 82.9085 52.305 82.9463 52.1517 82.9463ZM53.4801 83.361V86.8603H53.0168V84.1354L51.0987 86.8603H50.6969V83.361H51.1602V86.0632L53.0816 83.361H53.4801ZM55.891 86.8603V83.361H58.6742V86.8603H58.1979V83.8178H56.3673V86.8603H55.891ZM60.2913 88.4155L60.9685 86.5784L60.9782 87.1227L59.4456 83.361H59.9511L61.2082 86.5071H61.0008L62.1608 83.361H62.6468L60.7676 88.4155H60.2913ZM64.3709 86.8603V83.8016H63.1299V83.361H66.0881V83.8016H64.8472V86.8603H64.3709ZM68.3953 86.9575C68.0541 86.9575 67.7592 86.8819 67.5097 86.7306C67.2602 86.5795 67.0658 86.3667 66.9276 86.0923C66.7893 85.818 66.7202 85.4962 66.7202 85.1268C66.7202 84.7445 66.7882 84.414 66.9243 84.1354C67.0604 83.8568 67.2526 83.6418 67.5 83.4906C67.7474 83.3394 68.0389 83.2637 68.3759 83.2637C68.7215 83.2637 69.0163 83.3426 69.2604 83.5014C69.5045 83.6601 69.6892 83.888 69.8145 84.184C69.9398 84.4799 69.997 84.833 69.9862 85.2434H69.5002V85.075C69.4916 84.6214 69.3943 84.279 69.2075 84.0479C69.0207 83.8168 68.7474 83.7012 68.3889 83.7012C68.013 83.7012 67.7257 83.8232 67.5259 84.0673C67.3261 84.3114 67.2257 84.6591 67.2257 85.1106C67.2257 85.5513 67.3261 85.8926 67.5259 86.1356C67.7257 86.3785 68.0087 86.5006 68.3759 86.5006C68.6265 86.5006 68.8457 86.4423 69.0326 86.3267C69.2194 86.2112 69.3663 86.0449 69.4743 85.8267L69.9182 85.9984C69.7799 86.303 69.5769 86.5384 69.3079 86.7058C69.039 86.8732 68.7345 86.9575 68.3953 86.9575ZM67.0572 85.2434V84.8449H69.7302V85.2434H67.0572ZM70.9099 86.8603V83.361H72.3517C72.4252 83.361 72.5149 83.3653 72.6196 83.3739C72.7243 83.3826 72.8216 83.3988 72.9123 83.4226C73.1088 83.4744 73.2676 83.5803 73.3875 83.74C73.5073 83.8999 73.5667 84.0921 73.5667 84.3168C73.5667 84.4421 73.5484 84.5534 73.5106 84.6516C73.4728 84.7499 73.4188 84.8352 73.3497 84.9065C73.3173 84.9432 73.2817 84.9745 73.2427 85.0016C73.2039 85.0285 73.1661 85.0512 73.1294 85.0685C73.1985 85.0814 73.273 85.1118 73.3529 85.1592C73.4782 85.2327 73.5732 85.3309 73.6381 85.4551C73.7028 85.5794 73.7352 85.7306 73.7352 85.9077C73.7352 86.1475 73.678 86.343 73.5636 86.4941C73.449 86.6454 73.2957 86.749 73.1035 86.8051C73.0171 86.8289 72.9241 86.8441 72.8237 86.8505C72.7233 86.857 72.6282 86.8603 72.5397 86.8603H70.9099ZM71.3895 86.4553H72.517C72.5623 86.4553 72.6196 86.451 72.6887 86.4434C72.7578 86.4358 72.8194 86.4261 72.8734 86.4132C73.0008 86.3807 73.0948 86.3149 73.1542 86.2165C73.2136 86.1183 73.2427 86.0114 73.2427 85.8948C73.2427 85.7414 73.1985 85.615 73.1088 85.5167C73.0192 85.4185 72.8993 85.359 72.7503 85.3374C72.7005 85.3266 72.6488 85.3202 72.5948 85.318C72.5408 85.3159 72.4921 85.3148 72.449 85.3148H71.3895V86.4553ZM71.3895 84.9065H72.3679C72.4241 84.9065 72.4878 84.9022 72.558 84.8946C72.6282 84.887 72.6887 84.8741 72.7405 84.8547C72.8529 84.8158 72.936 84.7488 72.989 84.6538C73.0419 84.5587 73.0678 84.4551 73.0678 84.3427C73.0678 84.2196 73.0397 84.1116 72.9824 84.0188C72.9253 83.9258 72.8389 83.8611 72.7243 83.8243C72.6465 83.7962 72.5634 83.78 72.4738 83.7757C72.3841 83.7714 72.3269 83.7692 72.3031 83.7692H71.3895V84.9065ZM76.0554 86.9575C75.7076 86.9575 75.4106 86.8786 75.1643 86.7209C74.9181 86.5633 74.7291 86.3451 74.5973 86.0664C74.4655 85.7878 74.3997 85.4682 74.3997 85.1073C74.3997 84.7402 74.4666 84.4183 74.6006 84.1418C74.7345 83.8654 74.9256 83.6493 75.173 83.4949C75.4203 83.3405 75.7141 83.2637 76.0554 83.2637C76.4053 83.2637 76.7045 83.3415 76.9517 83.4982C77.1991 83.6548 77.3881 83.8718 77.5189 84.1494C77.6495 84.427 77.7143 84.7466 77.7143 85.1073C77.7143 85.4746 77.6484 85.7965 77.5166 86.074C77.3849 86.3516 77.1948 86.5686 76.9464 86.7242C76.698 86.8797 76.401 86.9575 76.0554 86.9575ZM76.0554 86.5006C76.4442 86.5006 76.7336 86.3711 76.9237 86.1129C77.1138 85.8548 77.2089 85.5199 77.2089 85.1073C77.2089 84.684 77.1138 84.3471 76.9227 84.0964C76.7314 83.8459 76.442 83.7207 76.0554 83.7207C75.794 83.7207 75.5791 83.779 75.4095 83.8967C75.2399 84.0144 75.1136 84.1775 75.0305 84.3859C74.9473 84.5944 74.9051 84.8352 74.9051 85.1073C74.9051 85.5286 75.0024 85.8656 75.1968 86.1194C75.3912 86.3732 75.6774 86.5006 76.0554 86.5006ZM78.3788 87.6379V86.452C78.5775 86.452 78.7201 86.3873 78.8065 86.2587C78.8929 86.1301 78.9631 85.925 79.0171 85.642C79.0538 85.4584 79.084 85.2608 79.1078 85.049C79.1315 84.8374 79.1521 84.5944 79.1694 84.3212C79.1867 84.0479 79.2029 83.7282 79.218 83.361H81.5314V86.452H81.8683V87.6379H81.4082V86.8603H78.8356V87.6379H78.3788ZM79.1856 86.452H81.0584V83.7692H79.6586C79.6521 83.9334 79.6435 84.1073 79.6316 84.2909C79.6198 84.4745 79.6057 84.6581 79.5895 84.8417C79.5733 85.0253 79.555 85.197 79.5344 85.358C79.5139 85.5189 79.4891 85.6604 79.461 85.7813C79.4286 85.9369 79.394 86.0697 79.3562 86.1798C79.3184 86.29 79.2612 86.3807 79.1856 86.452ZM85.5072 83.361V86.8603H85.0439V84.1354L83.1258 86.8603H82.724V83.361H83.1873V86.0632L85.1087 83.361H85.5072ZM87.5747 86.8603V83.8016H86.3337V83.361H89.2919V83.8016H88.051V86.8603H87.5747ZM91.5991 86.9575C91.2579 86.9575 90.963 86.8819 90.7135 86.7306C90.464 86.5795 90.2696 86.3667 90.1314 86.0923C89.9931 85.818 89.924 85.4962 89.924 85.1268C89.924 84.7445 89.992 84.414 90.1281 84.1354C90.2642 83.8568 90.4564 83.6418 90.7038 83.4906C90.9512 83.3394 91.2427 83.2637 91.5797 83.2637C91.9253 83.2637 92.2201 83.3426 92.4642 83.5014C92.7083 83.6601 92.8931 83.888 93.0183 84.184C93.1436 84.4799 93.2008 84.833 93.19 85.2434H92.704V85.075C92.6954 84.6214 92.5981 84.279 92.4113 84.0479C92.2245 83.8168 91.9512 83.7012 91.5926 83.7012C91.2168 83.7012 90.9295 83.8232 90.7297 84.0673C90.5299 84.3114 90.4295 84.6591 90.4295 85.1106C90.4295 85.5513 90.5299 85.8926 90.7297 86.1356C90.9295 86.3785 91.2125 86.5006 91.5797 86.5006C91.8303 86.5006 92.0495 86.4423 92.2364 86.3267C92.4232 86.2112 92.5701 86.0449 92.6781 85.8267L93.122 85.9984C92.9837 86.303 92.7806 86.5384 92.5117 86.7058C92.2429 86.8732 91.9383 86.9575 91.5991 86.9575ZM90.261 85.2434V84.8449H92.934V85.2434H90.261ZM93.793 86.8603V86.4423C93.9225 86.4661 94.0219 86.4596 94.0899 86.4239C94.158 86.3883 94.2077 86.3278 94.24 86.2425C94.2724 86.1572 94.2995 86.0513 94.3211 85.9239C94.3556 85.7122 94.3869 85.4789 94.415 85.2241C94.4432 84.9691 94.469 84.6873 94.4917 84.3795C94.5144 84.0716 94.537 83.7326 94.5608 83.361H96.939V86.8603H96.466V83.8178H95.0014C94.9864 84.0468 94.9691 84.2746 94.9497 84.5015C94.9302 84.7283 94.9107 84.9453 94.8902 85.1539C94.8698 85.3623 94.847 85.5545 94.8232 85.7295C94.7996 85.9045 94.7747 86.0556 94.7487 86.1831C94.7099 86.3754 94.6591 86.5287 94.5954 86.6432C94.5317 86.7577 94.4366 86.8333 94.3114 86.87C94.1861 86.9067 94.0133 86.9035 93.793 86.8603ZM98.0604 86.8603L98.0539 83.361H98.5335V84.6797H99.3532C99.4547 84.6797 99.5552 84.6819 99.6534 84.6862C99.7517 84.6905 99.8381 84.6991 99.9137 84.7121C100.086 84.7445 100.241 84.8018 100.376 84.8839C100.511 84.9659 100.617 85.0793 100.694 85.2241C100.77 85.3688 100.808 85.5502 100.808 85.7684C100.808 86.0687 100.731 86.3052 100.577 86.4779C100.422 86.6507 100.227 86.763 99.9915 86.8149C99.903 86.8343 99.8068 86.8462 99.7031 86.8517C99.5994 86.857 99.4968 86.8603 99.3953 86.8603H98.0604ZM98.5335 86.452H99.3758C99.4493 86.452 99.5314 86.4499 99.6221 86.4456C99.7129 86.4413 99.7928 86.4294 99.8619 86.4099C99.9763 86.3775 100.081 86.3116 100.175 86.2133C100.269 86.1151 100.316 85.9671 100.316 85.7684C100.316 85.5718 100.27 85.4228 100.179 85.3223C100.089 85.2219 99.9677 85.156 99.8165 85.1235C99.7496 85.1085 99.6772 85.0987 99.5994 85.0944C99.5217 85.0901 99.4472 85.088 99.3758 85.088H98.5335V86.452Z" fill="#1A1A1A"/>
<path fill-rule="evenodd" clip-rule="evenodd" d="M17.8358 42.8104C17.8525 42.7627 17.8674 42.7152 17.8798 42.668C18.0873 41.8838 18.8341 40.0266 18.8341 40.0266C18.8341 40.0266 19.7884 39.3248 20.8672 39.0772C21.9458 38.8297 22.2364 38.871 22.8587 38.6646C23.481 38.4582 24.3937 37.9628 25.182 37.5089C25.9705 37.055 25.8461 36.3533 26.2193 36.2295C26.5927 36.1056 29.4555 35.7343 30.1194 35.7343C30.7832 35.7343 34.6833 35.4453 35.5131 35.4453C36.3428 35.4453 40.3674 34.9913 40.9898 34.9913C41.6121 34.9913 42.7739 35.6517 42.7739 35.6517C42.7739 35.6517 42.9399 35.7754 43.1888 36.2707C43.4376 36.766 43.728 37.5089 44.1015 37.674C44.4749 37.8391 46.7154 36.7248 47.4622 36.6422C48.2089 36.5597 48.8727 37.22 49.4537 37.7153C50.0345 38.2106 49.9931 39.1185 50.5739 39.7376L50.6079 39.7732C51.8847 39.1211 53.4776 38.3942 53.842 37.7565C54.3373 36.8899 54.7088 36.4772 55.2041 35.5691C55.6993 34.6611 55.9881 33.753 56.8961 33.3817C57.8042 33.0103 58.382 32.8452 59.4138 32.3086C60.4456 31.7721 61.2297 31.4006 61.9727 30.6164C62.7156 29.8323 62.8806 29.4607 63.3347 29.0068C63.7887 28.5529 66.265 27.1495 66.265 27.1495C66.265 27.1495 67.4619 27.1908 67.7508 27.4385C68.6854 28.2395 69.4519 29.4337 70.1034 29.4608C71.0939 29.5021 72.6209 29.1306 73.0337 29.0068C73.4464 28.883 73.8592 28.2641 74.7672 28.4703C75.6751 28.6766 76.5006 29.2338 77.3673 29.6878C78.234 30.1418 77.3262 31.8341 77.9864 32.6182C78.6466 33.4024 78.0689 35.0325 78.7293 35.6929C79.3896 36.3533 81.4119 38.6644 82.8977 39.9439C84.3835 41.2234 85.4154 40.3979 85.4567 40.6456C85.498 40.8932 87.4377 42.2553 87.933 42.8743C88.4283 43.4934 89.7904 42.7092 90.0792 43.0394C90.1895 43.1655 90.8954 44.9172 91.37 47.057C88.9298 47.1543 86.4878 46.7182 84.0513 46.9271C83.9848 47.1661 84.136 47.206 84.2717 47.2407C84.6087 47.3273 84.9923 47.2777 85.3108 47.6014C85.151 47.6265 85.0398 47.6765 84.9471 47.6524C84.44 47.5235 83.9579 47.5597 83.4625 47.742C83.1272 47.8652 82.7509 47.9729 82.4041 47.9473C80.917 47.8372 79.4814 48.3712 77.9963 48.2634C77.7246 48.2442 77.4427 48.3692 77.103 48.4405C77.5558 49.0591 78.2735 48.4294 78.692 48.8879C78.2527 49.4291 77.8251 49.6681 77.3051 49.6701C76.8866 49.672 76.4675 49.6764 75.9726 49.6802C76.0648 49.8625 76.0919 50.0058 76.1562 50.0256C76.3925 50.0974 76.6436 50.1223 76.8832 50.1863C76.9053 50.1925 76.886 50.3532 76.886 50.4687C77.1555 50.4865 77.4368 50.5206 77.7179 50.5158C77.8483 50.5134 78.0542 50.4701 78.0926 50.385C78.2322 50.0766 78.463 50.1006 78.7233 50.1242C78.8638 50.1371 79.0158 50.1311 79.1486 50.0896C79.4892 49.9834 79.7657 50.0353 80.0447 50.2797C80.1887 50.4056 80.4287 50.4224 80.766 50.536C80.5365 50.6097 80.4272 50.6712 80.3158 50.676C79.5941 50.7067 78.8714 50.753 78.1499 50.7423C76.5932 50.7208 75.0565 50.9214 73.5185 51.1167C73.3439 51.1388 73.0721 51.1639 73.022 51.271C72.7815 51.7821 72.3711 51.5959 71.9993 51.5795C71.8554 51.5727 71.7111 51.5521 71.5691 51.5266C71.2141 51.464 70.8605 51.3422 70.506 51.3399C69.8603 51.3355 69.2143 51.4001 68.5399 51.4381C68.6692 51.8007 68.9559 51.7213 69.1776 51.7454C70.2535 51.8614 71.331 51.9615 72.4082 52.0707C72.5131 52.0813 72.615 52.1196 72.766 52.1568C72.287 52.4887 71.7675 52.4185 71.2814 52.4512C70.8527 52.4805 70.417 52.4219 69.985 52.3926C69.5169 52.3612 69.0469 52.2673 68.5827 52.2915C67.3896 52.352 66.232 52.061 65.0539 51.9861C63.8676 51.9109 62.7004 51.8305 61.503 52.0399C60.0526 52.2934 58.5699 52.3246 57.0872 52.2714C56.0798 52.2351 55.0677 52.3203 54.0578 52.3589C53.925 52.3636 53.7937 52.4147 53.4218 52.4988C54.4788 52.5536 55.2841 52.6244 56.0899 52.6307C57.3142 52.6398 58.5362 52.6575 59.752 52.8255C59.787 52.8307 59.8245 52.8297 59.8597 52.8237C61.2018 52.5898 62.5037 53.0165 63.8282 53.069C63.9724 53.0747 64.1158 53.1099 64.2596 53.1102C65.8506 53.1127 67.427 53.308 69.0075 53.4576C69.2648 53.4822 69.2642 53.4817 69.8287 53.2305C69.654 53.1464 69.5342 53.0886 69.3643 53.0063C69.9489 52.6316 70.4271 52.9761 71.1145 52.9736C70.7942 53.1127 70.6715 53.166 70.5483 53.2199C70.5815 53.2686 70.6122 53.3575 70.6484 53.36C71.1872 53.3927 71.7266 53.4139 72.3287 53.4412C72.0166 53.4937 71.7572 53.5369 71.4984 53.5807C71.497 53.6216 71.4955 53.6625 71.4942 53.7039C71.6822 53.7476 71.8742 53.7819 72.0588 53.8401C72.2234 53.8916 72.3797 53.9699 72.5991 54.0618C72.4634 54.1701 72.3851 54.2326 72.3085 54.2937C72.7719 54.6767 73.2481 54.8286 73.8096 54.8214C75.1762 54.8037 76.5431 54.7979 77.9103 54.7936C79.2386 54.7892 80.5668 54.7927 81.8908 54.7209C81.1012 54.8345 80.3108 54.9456 79.5213 55.0634C78.9898 55.1428 78.475 55.241 77.917 55.1544C77.432 55.0798 76.9163 55.2295 76.4131 55.2477C75.1523 55.2929 73.8905 55.3277 72.629 55.3498C72.2339 55.357 71.8579 55.3988 71.2872 55.6196C71.612 55.7066 71.7284 55.7678 71.8424 55.7634C72.5588 55.7374 73.2752 55.9024 73.9938 55.7423C74.1987 55.6961 74.4287 55.7216 74.6412 55.7529C75.9004 55.941 77.1587 55.7802 78.4179 55.7736C78.6673 55.7724 78.9166 55.7801 79.1661 55.7927C74.4482 56.0569 69.0253 56.3491 64.9942 56.5492C63.9415 56.6015 62.935 56.285 61.9856 55.747C61.8644 56.5927 61.7665 57.2371 61.7665 57.2371C61.7665 57.2371 37.4513 57.8407 22.2736 58.0983C22.1929 58.0807 22.1125 58.0617 22.0328 58.0404C21.8664 57.9957 21.7177 57.8821 21.455 57.7441C21.6422 57.631 21.7398 57.5223 21.8433 57.5164C23.3909 57.4337 24.9391 57.3499 26.4881 57.298C27.0621 57.2794 27.6393 57.3663 28.2147 57.3606C28.6804 57.3553 29.1446 57.2755 29.6108 57.2437C29.9673 57.2192 30.3266 57.1927 30.6826 57.21C32.1592 57.2816 33.6317 57.2899 35.0941 57.0325C35.2 57.0137 35.3096 56.983 35.414 56.9936C37.2994 57.1932 39.1583 56.8209 41.0312 56.7434C41.6802 56.7164 42.3277 56.6573 42.9756 56.6116C44.0908 56.5337 45.2286 56.5649 46.3138 56.3422C47.2453 56.1507 48.1603 56.2027 49.0825 56.1382C49.8926 56.0819 50.6995 55.9732 51.6197 55.8756C51.0434 55.5894 50.5397 55.5753 50.0414 55.571C48.3089 55.5575 46.5765 55.5474 44.8442 55.5566C43.7984 55.5629 42.7533 55.6095 41.708 55.6312C41.6436 55.6325 41.5786 55.5773 41.5001 55.5427C41.5935 55.2194 41.7527 54.8969 41.7686 54.5675C41.8008 53.9075 41.4564 53.5601 40.7891 53.5389C40.3211 53.5244 39.8488 53.547 39.3825 53.5971C36.9723 53.8559 34.5511 53.8522 32.1331 53.8953C29.3174 53.9459 26.5001 53.9406 23.684 53.9574C23.1855 53.9603 22.6823 53.985 22.2258 53.713C22.2608 53.4601 22.4682 53.4513 22.6322 53.4447C23.5689 53.4081 24.5066 53.399 25.4427 53.3605C26.0913 53.3335 26.7388 53.2739 27.3863 53.23C27.7082 53.2079 28.03 53.1786 28.3522 53.1695C29.8624 53.1276 31.3739 53.1281 32.8813 53.0444C34.3927 52.9611 35.8985 52.7793 37.409 52.6697C39.3844 52.5268 41.3625 52.4263 43.3375 52.2774C43.9817 52.2289 44.6185 52.085 45.2656 51.9836C44.4189 51.63 43.5771 51.6324 42.7246 51.9442C42.5999 51.9898 42.446 51.9537 42.306 51.959C41.9139 51.9725 41.5204 51.9672 41.1307 52.0062C40.4534 52.074 39.7875 52.2977 39.0948 52.1101C38.9605 52.074 38.8024 52.0828 38.6648 52.1136C37.2513 52.4248 35.8057 52.2664 34.3831 52.415C33.5936 52.4979 32.812 52.6557 32.0134 52.5334C31.385 52.8794 30.7586 52.5936 30.1246 52.5532C29.3073 52.5012 28.4703 52.4012 27.6758 52.7548C27.5575 52.8073 27.3801 52.8134 27.2607 52.7649C26.4062 52.4171 25.5567 52.6307 24.6989 52.7384C24.1708 52.8043 23.632 52.801 23.098 52.7995C22.9811 52.799 22.8473 52.6927 22.752 52.6027C22.4654 52.3334 22.1295 52.2631 21.7524 52.2991C21.2169 52.3502 20.681 52.392 20.1465 52.4377C20.1076 52.3813 20.0345 52.3237 20.0392 52.2746C20.1192 51.4747 20.121 51.4756 19.4081 51.1831C19.2752 51.1287 19.1478 51.0619 19.015 51.007C18.9203 50.9675 18.8212 50.9382 18.585 50.8559C19.0886 50.7174 19.4687 50.6125 19.8738 50.5005C19.8738 50.2085 19.8829 49.9597 19.8719 49.7123C19.8588 49.4411 19.9277 49.1952 20.1465 49.0399C20.5544 48.7497 20.5675 48.3125 20.5982 47.8988C20.9374 47.6366 21.3136 47.7077 21.6643 47.6967C22.2435 47.6788 22.8079 47.6095 23.3788 47.4955C24.0096 47.3711 24.6662 47.3642 25.3129 47.3354C25.9965 47.3056 26.6821 47.3224 27.3661 47.2983C29.4213 47.2267 31.4774 47.1737 33.5297 47.0543C34.6433 46.99 35.7547 46.8821 36.8709 46.8241C38.7436 46.7274 40.6136 46.5662 42.4845 46.4305C42.6582 46.418 42.8314 46.3958 43.0229 46.2486C42.8852 46.2082 42.7458 46.1278 42.611 46.1346C41.2769 46.2006 39.9401 46.2414 38.6118 46.3665C35.9875 46.6129 33.3579 46.7417 30.7255 46.8028C28.4167 46.8567 26.1071 46.8639 23.798 46.8899C23.1081 46.8981 22.4379 46.8058 21.8317 46.5291C21.6278 46.0702 22.2181 46.0259 22.1964 45.6877C21.7625 45.4934 21.7625 45.4934 21.4479 45.8676C21.367 45.8383 21.2502 45.8297 21.1857 45.7671C20.8264 45.4173 20.4077 45.2806 19.9079 45.312C19.4787 45.3394 19.0463 45.3177 18.6118 45.1735C19.1569 45.1575 19.7019 45.1474 20.2461 45.1228C20.5698 45.108 20.9004 45.1055 21.214 45.0349C21.7109 44.9228 21.8827 44.6028 21.7903 44.0698C21.7355 43.7538 21.6778 43.4387 21.6114 43.0658C21.368 43.0291 21.1284 42.9734 20.8864 42.9604C19.8699 42.9042 18.8522 42.8656 17.8358 42.8104ZM81.3856 50.4071C81.3716 50.4075 81.3616 50.4927 81.3495 50.5389C81.4091 50.536 81.4703 50.5389 81.5275 50.5259C81.5448 50.5215 81.5515 50.4711 81.5631 50.4417C81.5039 50.4278 81.4443 50.4051 81.3856 50.4071ZM78.9495 49.4411C78.8749 49.4935 78.8003 49.5454 78.7257 49.5974C78.7657 49.6465 78.8099 49.7388 78.846 49.7365C78.9234 49.7302 78.9965 49.6744 79.077 49.6359C79.0182 49.546 78.9841 49.4941 78.9495 49.4411ZM68.05 52.773C67.8831 52.773 67.7162 52.7817 67.5502 52.7706C67.3861 52.7605 67.2231 52.7303 67.06 52.7091C67.059 52.7491 67.0581 52.7885 67.0571 52.8284H68.0496C68.0496 52.8101 68.05 52.7913 68.05 52.773ZM40.6376 55.5345L39.5899 55.5894C39.5913 55.6177 39.5928 55.6461 39.5937 55.6744H40.6597C40.6521 55.6277 40.6449 55.5811 40.6376 55.5345ZM66.2821 52.519C65.8784 52.5373 65.4753 52.5551 65.0717 52.5734C65.0721 52.5985 65.0731 52.6229 65.0736 52.6474H66.312C66.3018 52.6046 66.2922 52.5618 66.2821 52.519ZM63.5779 52.3517H61.7094C61.7085 52.369 61.7075 52.3863 61.7071 52.4036C62.3296 52.4455 62.9525 52.4878 63.5751 52.5301C63.576 52.4704 63.577 52.4113 63.5779 52.3517ZM77.052 49.3261L77.0486 49.3933L77.13 49.3627L77.052 49.3261ZM72.9758 49.9342C73.2231 50.0795 73.4641 50.292 73.6632 49.911C73.5608 49.8764 73.4597 49.8121 73.3641 49.8187C73.2327 49.8288 73.1052 49.8933 72.9758 49.9342ZM53.0178 51.2298C53.5061 51.3163 54.043 51.4842 54.5635 51.2298H53.0178ZM47.1376 51.6795C48.7818 51.9282 50.3954 51.6926 52.0089 51.4717C52.0488 51.4659 52.0753 51.3582 52.1234 51.2688C51.3974 50.9834 50.7177 51.4115 50.0081 51.3942C49.0542 51.3712 48.0948 51.5736 47.1376 51.6795Z" fill="white"/>
<path d="M52.4871 47.0871C52.0139 46.7301 51.5393 46.3755 51.0898 45.9887C50.3834 45.3808 53.131 45.5448 52.315 45.0841C52.4744 44.7354 54.9555 45.1069 49.1661 44.1402C52.3703 44.693 52.6814 44.0743 52.6541 44.0623C52.5382 43.8799 52.6178 38.2109 52.4763 38.1382C52.4347 38.0588 52.3888 37.9836 52.3336 37.9328C52.3549 37.8521 52.3311 37.7641 52.2321 37.7083C51.6668 37.3884 51.0017 37.3647 50.3926 37.1508C50.0377 37.0263 49.7676 36.8518 49.4518 36.8804C49.3207 36.6517 49.2002 36.4156 49.03 36.2141C48.9418 35.9858 48.84 35.7631 48.7098 35.5897C48.3247 35.0774 47.3145 35.3756 46.7778 35.3906C46.777 35.3907 44.4112 34.754 44.1434 34.643C43.4827 34.3687 43.229 33.7953 42.7934 33.2837C41.9793 32.3274 37.5767 35.4488 36.4042 35.4314C36.4462 35.5638 36.4758 35.7001 36.4927 35.838C36.6007 35.8372 36.7093 35.8375 36.8174 35.8397C36.8232 35.8572 36.8331 35.8744 36.8488 35.8907C36.9062 35.9504 36.9572 36.0158 37.0056 36.0831C36.9667 36.373 37.4455 36.9629 37.5892 37.2565L37.6599 37.4042C37.3869 37.68 36.991 38.4373 36.7734 38.8032C36.7491 38.797 36.5127 38.7152 36.4884 38.7381C36.0423 39.1545 35.5252 39.7095 35.4905 40.3252C35.4786 40.536 35.5476 40.7899 35.6243 41.0353C35.6645 41.4566 35.7286 41.8728 35.7756 42.2918C35.7316 42.4706 35.7041 42.6414 35.7555 42.8022C35.6967 42.8759 35.6821 43.002 35.7333 43.2024C35.8357 43.6037 36.441 43.7902 36.8272 43.9294C36.8445 43.9761 36.8758 44.0191 36.9297 44.0509C37.0156 44.1017 37.1159 44.1553 37.2253 44.2081C37.3809 44.3158 37.5543 44.4158 37.7496 44.5059C38.1036 44.6689 38.4331 44.8354 38.7447 45.0247C38.8934 45.2206 39.0565 45.4124 39.2299 45.5997C39.2832 45.7493 39.3353 45.8968 39.3753 46.0393C39.536 46.609 39.6636 47.157 40.0174 47.6424C40.0645 47.7072 40.1274 47.7443 40.1926 47.7604C40.2563 47.883 34.4851 49.1224 34.5431 49.1639C34.6819 49.2633 34.8233 49.2493 34.9861 49.2888C35.2259 49.3465 35.4525 49.4229 35.6712 49.5131C35.6738 49.5177 35.6769 49.52 35.6799 49.5223C36.4952 50.2483 37.3687 50.9188 38.2896 51.5061C38.3423 51.5384 38.4006 51.5501 38.4577 51.5431C38.7968 51.8067 39.1632 52.024 39.5309 52.2436L43.4005 56.0201V56.4363L42.3033 52.6598C47.8936 52.661 52.953 52.5967 57.531 52.4749V52.275C56.9783 52.2548 56.4012 52.2414 55.8092 52.2414C55.4502 52.0864 54.8248 51.5039 54.6357 51.342C54.2766 51.0321 54.0149 50.6644 53.6119 50.4079C53.5358 50.3593 53.4539 50.3154 53.3698 50.2714C52.8055 49.8602 52.2222 49.5563 51.5598 49.2405C50.4058 49.0593 52.9232 48.2462 52.4871 47.0871Z" fill="#AAD0E3"/>
<path d="M35.5092 52.3474C35.5139 52.2445 35.4665 52.1459 35.3405 52.0898C34.7873 51.8466 34.2301 51.7169 33.6552 51.5904C32.7663 51.1333 31.6663 51.8385 30.7639 51.3846C30.1255 51.0671 29.5375 49.9371 28.9802 49.5123C28.7275 49.1557 28.467 48.8087 28.2398 48.4783C28.0639 48.2221 27.8789 47.9756 27.6864 47.7356C27.5911 47.5857 27.4914 47.4388 27.3853 47.2977C26.6946 47.3213 26.003 47.3053 25.3128 47.3355C24.6662 47.3643 24.0095 47.3711 23.3788 47.4956C22.8079 47.6096 22.2434 47.6789 21.6643 47.6967C21.3136 47.7078 20.9374 47.6367 20.5981 47.8988C20.5674 48.3126 20.5543 48.7498 20.1464 49.04C19.9276 49.1953 19.8587 49.4412 19.8718 49.7124C19.8829 49.9597 19.8737 50.2085 19.8737 50.5005L18.5849 50.856C18.8212 50.9383 18.9203 50.9676 19.015 51.0071C19.1477 51.0619 19.2752 51.1287 19.4081 51.1832C20.121 51.4757 20.1191 51.4748 20.0392 52.2747C20.0344 52.3237 20.1075 52.3814 20.1464 52.4377C20.681 52.3921 21.2169 52.3502 21.7523 52.2992C22.1294 52.2632 22.4653 52.3335 22.7519 52.6027C22.8473 52.6928 22.981 52.7991 23.0979 52.7996C23.632 52.8011 24.1707 52.8044 24.6989 52.7385C25.5566 52.6307 26.4062 52.4172 27.2607 52.7649C27.38 52.8134 27.5575 52.8073 27.6758 52.7548C28.4702 52.4012 29.3072 52.5013 30.1246 52.5532C30.7586 52.5937 31.3849 52.8795 32.0133 52.5335C32.8119 52.6557 33.5935 52.4979 34.383 52.4151C34.7571 52.376 35.1329 52.3582 35.5092 52.3474ZM27.0027 46.8594C26.9621 46.8326 26.918 46.8197 26.8735 46.815C26.5433 46.468 26.2009 46.1343 25.8404 45.8133C24.9139 44.9911 23.8625 44.2309 23.0038 43.3523C22.3568 42.6905 21.9585 42.6052 21.0708 42.8127C20.9546 42.8081 20.8396 42.8098 20.7252 42.8177C20.7088 42.8089 20.6928 42.7997 20.6729 42.7956C20.1921 42.6984 19.7448 42.7684 19.3001 42.8823C19.829 42.9068 20.3579 42.9313 20.8864 42.9605C21.1283 42.9734 21.3679 43.0292 21.6114 43.0659C21.6777 43.4388 21.7355 43.7538 21.7902 44.0699C21.8827 44.6029 21.7109 44.9229 21.214 45.0349C20.9004 45.1056 20.5698 45.108 20.246 45.1229C19.7019 45.1474 19.1569 45.1575 18.6118 45.1735C19.0462 45.3178 19.4787 45.3395 19.9079 45.3121C20.4077 45.2807 20.8263 45.4174 21.1856 45.7671C21.2501 45.8297 21.367 45.8383 21.4479 45.8676C21.7624 45.4934 21.7624 45.4934 22.1963 45.6878C22.2181 46.026 21.6278 46.0703 21.8317 46.5291C22.4379 46.8058 23.108 46.8982 23.7979 46.89C24.8661 46.8779 25.9344 46.8699 27.0027 46.8594ZM18.0066 42.8197C18.0186 42.7831 18.0294 42.7464 18.0391 42.71C18.2254 42.0057 18.855 40.4185 18.969 40.1327C19.152 40.0045 19.9805 39.4497 20.9039 39.2379C21.3924 39.1258 21.7147 39.0738 21.9801 39.0309C22.3113 38.9775 22.5577 38.9376 22.9102 38.8208C23.2325 38.7139 23.6237 38.5354 24.0328 38.3267C24.4326 38.1227 24.8625 37.8826 25.2639 37.6515C25.7655 37.3627 25.929 36.9915 26.0563 36.7021C26.1267 36.5419 26.1828 36.4148 26.2709 36.3856C26.4522 36.3254 27.2842 36.1998 28.1431 36.0907C28.9607 35.9869 29.7992 35.8994 30.1194 35.8994C30.4319 35.8994 31.472 35.8346 32.5697 35.7663C33.786 35.6907 35.0741 35.6105 35.5131 35.6105C35.6935 35.6105 36.0249 35.5891 36.4396 35.5554C36.4633 35.6484 36.481 35.7429 36.4926 35.8381C36.6007 35.8373 36.7093 35.8376 36.8174 35.8398C36.8232 35.8573 36.8331 35.8745 36.8487 35.8908C36.9061 35.9505 36.9571 36.0159 37.0055 36.0832C36.9667 36.3731 37.4455 36.963 37.5892 37.2566L37.6598 37.4043C37.3868 37.6801 36.991 38.4374 36.7734 38.8034C36.7491 38.7971 36.5127 38.7153 36.4884 38.7382C36.0423 39.1546 35.5252 39.7096 35.4905 40.3253C35.4785 40.5361 35.5476 40.79 35.6243 41.0354C35.6645 41.4567 35.7285 41.873 35.7756 42.2919C35.7315 42.4707 35.7041 42.6415 35.7555 42.8023C35.6967 42.876 35.6821 43.0021 35.7333 43.2025C35.8357 43.6038 36.441 43.7903 36.8271 43.9295C36.8444 43.9762 36.8758 44.0192 36.9297 44.051C37.0155 44.1018 37.1159 44.1554 37.2253 44.2082C37.3808 44.3159 37.5543 44.4159 37.7496 44.506C38.1036 44.669 38.4331 44.8355 38.7447 45.0248C38.8934 45.2207 39.0564 45.4125 39.2299 45.5999C39.3138 45.8353 39.3806 46.0584 39.4473 46.2981C40.4999 46.2233 41.5562 46.1868 42.6109 46.1347C42.7457 46.1279 42.8852 46.2083 43.0229 46.2486C42.8314 46.3959 42.6581 46.4181 42.4844 46.4306C41.5064 46.5015 40.5284 46.5794 39.5502 46.6515C39.659 47.0001 39.7925 47.334 40.0174 47.6426C40.0644 47.7073 40.1273 47.7444 40.1926 47.7605C40.2562 47.8831 34.485 49.1225 34.5431 49.164C34.6819 49.2634 34.8233 49.2495 34.986 49.2889C35.2259 49.3466 35.4525 49.423 35.6711 49.5132C35.6738 49.5178 35.6769 49.5201 35.6799 49.5224C36.4952 50.2484 37.3687 50.9189 38.2895 51.5062C38.3422 51.5385 38.4005 51.5502 38.4576 51.5432C38.7583 51.7769 39.0802 51.974 39.4056 52.1688C39.988 52.234 40.5552 52.0638 41.1307 52.0063C41.5204 51.9672 41.9139 51.9726 42.3059 51.9591C42.446 51.9538 42.5999 51.9899 42.7246 51.9442C43.577 51.6325 44.4188 51.63 45.2656 51.9836C44.6185 52.0851 43.9816 52.2289 43.3374 52.2775C42.1607 52.3661 40.9828 52.4376 39.805 52.5112L40.8619 53.5427C41.3974 53.5804 41.7079 53.8439 41.762 54.3253L42.7869 54.3246L42.3032 52.6599C46.6104 52.6609 50.6025 52.6229 54.3019 52.5497C54.0262 52.5326 53.7351 52.5151 53.4218 52.4989C53.7936 52.4147 53.925 52.3637 54.0578 52.3589C55.0676 52.3204 56.0798 52.2352 57.0871 52.2714C58.5698 52.3247 60.0526 52.2935 61.503 52.04C62.7003 51.8306 63.8675 51.911 65.0538 51.9861C66.232 52.0611 67.3896 52.3521 68.5826 52.2915C69.0468 52.2674 69.5168 52.3613 69.9849 52.3926C70.4169 52.4219 70.8527 52.4806 71.2814 52.4512C71.7674 52.4186 72.287 52.4888 72.766 52.1569C72.6149 52.1197 72.5131 52.0813 72.4081 52.0708C71.331 51.9615 70.2534 51.8615 69.1776 51.7455C68.9559 51.7214 68.6692 51.8007 68.5398 51.4382C69.2143 51.4001 69.8602 51.3356 70.506 51.34C70.8605 51.3423 71.2141 51.4641 71.5691 51.5267C71.7111 51.5522 71.8553 51.5728 71.9992 51.5796C72.3711 51.5959 72.7814 51.7821 73.022 51.2711C73.072 51.1639 73.3438 51.1389 73.5185 51.1168L74.1115 51.0416C73.7187 50.8687 73.3985 50.5961 73.1648 50.2664C72.8629 50.0388 72.5617 49.8107 72.2748 49.5639C71.7786 49.137 71.3157 48.7221 70.7426 48.3985C70.1454 48.0608 69.667 47.5571 69.0322 47.2796C68.9509 47.1514 68.8593 47.0466 68.7599 46.9954C68.7307 46.9397 68.6986 46.8869 68.6596 46.8511C68.6746 46.7944 68.6578 46.7326 68.5884 46.6935C68.1914 46.4687 67.7242 46.4521 67.2963 46.3019C67.047 46.2144 66.8574 46.092 66.6355 46.1118C66.5434 45.9514 66.4588 45.7856 66.3393 45.6439C66.2773 45.4835 66.2058 45.3272 66.1142 45.2054C65.8437 44.8455 65.1342 45.055 64.7573 45.0656L64.7558 45.0658C64.6826 44.9272 64.5568 44.6544 64.3908 44.6405C64.2518 44.6285 64.1874 44.8184 64.0931 44.8978C63.8939 44.8315 63.6944 44.7594 63.5158 44.6854C63.0516 44.4925 62.8735 44.0899 62.5674 43.7307C61.7738 42.7981 60.536 42.9159 59.4139 42.9324C58.8432 42.941 58.5519 43.1394 58.1406 43.4914C57.8834 43.3027 57.6455 43.279 57.3664 43.1743C57.0299 43.0482 56.3755 43.3044 55.6374 43.5933C55.4394 43.671 55.241 43.7484 55.0415 43.8222C55.1236 43.7381 55.204 43.6523 55.2823 43.5641C55.6485 43.1517 55.9431 42.6721 56.4073 42.358C56.7189 42.1476 57.0733 42.035 57.4409 41.9519C57.3752 41.8864 57.3136 41.8165 57.2567 41.7423C56.7062 41.8955 56.1954 42.1115 55.769 42.5697C55.3683 43.0004 55.0355 43.4792 54.6104 43.8914L54.5537 43.9458C54.4715 43.9446 54.3906 43.926 54.2685 43.8981C54.1363 43.8678 53.9619 43.8279 53.7042 43.785C53.1102 43.686 52.6396 42.3238 52.3349 41.4416C52.2069 41.0707 52.1051 40.7763 52.0078 40.647C51.9532 40.5105 51.7948 40.4174 51.5781 40.2904C51.3857 40.1774 51.1367 40.0312 50.89 39.8145L51.2199 39.6486C52.3934 39.0598 53.6465 38.4309 53.9851 37.8385C54.2151 37.436 54.4152 37.1364 54.6132 36.8399C54.8476 36.4886 55.0797 36.1409 55.3485 35.6479C55.441 35.4783 55.5288 35.3038 55.6145 35.1331C55.9625 34.4406 56.2786 33.8118 56.9581 33.5339C57.1915 33.4386 57.4373 33.344 57.6744 33.2525C58.2398 33.0354 58.7515 32.839 59.4898 32.4548C60.4514 31.9564 61.331 31.5333 62.092 30.73C62.4953 30.3044 62.7307 29.9985 62.9328 29.7359C63.1022 29.5156 63.248 29.3261 63.4513 29.1236C63.858 28.717 65.9858 27.4981 66.3057 27.3158C66.5176 27.3255 67.4261 27.3772 67.6437 27.5637C67.9675 27.8413 68.2751 28.1719 68.5639 28.4823C69.1185 29.0785 69.6084 29.605 70.0969 29.6254C70.4918 29.6417 70.9676 29.5947 71.4261 29.5238C72.1463 29.4122 72.8253 29.2414 73.0807 29.1649C73.2279 29.1207 73.3621 29.0322 73.5102 28.9343C73.8038 28.7404 74.1645 28.5023 74.731 28.631C75.3751 28.7773 75.9874 29.1126 76.6042 29.4572C76.6739 29.6099 76.8046 29.8518 76.8278 29.9255C76.8546 30.0098 76.8877 30.1 76.9162 30.1896C76.8997 30.2274 76.9267 30.3317 76.9369 30.3722C76.9188 30.4216 76.9717 30.5128 76.9962 30.5554C77.0266 30.7584 77.0388 30.9429 77.0496 31.1476C76.9698 31.225 76.891 31.3063 76.8133 31.3845C76.7298 31.4376 76.6482 31.4934 76.569 31.5504C76.3954 31.5302 76.2216 31.4806 76.0399 31.4063C75.3748 31.1338 74.723 30.9143 73.9946 30.965C73.9792 30.9662 73.9681 30.9715 73.9568 30.9767C73.9148 30.961 73.8649 30.9741 73.8307 31.0032C73.765 30.9966 73.6982 30.9973 73.6318 31.005C73.4254 30.9649 73.2192 30.9803 73.0124 31.0064L72.2629 31.2982C72.0498 31.4495 71.8286 31.5471 71.6077 31.5993C71.7199 31.5918 71.8263 31.5807 71.9223 31.5611C72.4585 31.4522 73.1004 31.2225 73.6429 31.3687C73.7443 31.5926 73.9526 31.8309 74.0921 32.0063C74.2416 32.1945 74.4229 32.3576 74.5945 32.5283L74.5851 32.6249C74.4727 32.7645 74.3667 32.9076 74.2383 33.0353C74.1297 33.1431 74.0113 33.2426 73.973 33.3983C73.8064 33.8082 73.6621 34.2269 73.4921 34.6374C73.3804 34.9059 73.2422 35.1888 73.2057 35.4807C73.1551 35.6035 73.1049 35.727 73.0538 35.8478C73.0182 35.9313 73.0245 36.038 73.1161 36.0862C73.4228 36.2472 73.773 36.2646 74.087 36.4364C74.2846 36.5446 74.5541 36.6826 74.784 36.8395C74.8132 36.8726 74.843 36.9046 74.8735 36.9362L74.8746 36.9555C74.9716 37.0087 75.049 37.1028 75.0804 37.2474C75.291 38.2191 75.6049 39.1591 75.9362 40.0938C76.264 40.776 76.5613 41.4783 76.7155 42.2182C76.6819 42.2865 76.7115 42.3386 76.7486 42.3948C76.7592 42.4564 76.7688 42.4976 76.7704 42.5615C77.1545 43.3482 77.5815 44.1097 77.9938 44.8811C79.6986 45.42 81.2001 46.6275 82.7025 47.5382C82.8666 47.6377 83.0316 47.7337 83.1908 47.8338C83.2833 47.8056 83.3743 47.7744 83.4625 47.742C83.9578 47.5597 84.4399 47.5236 84.947 47.6525C85.0398 47.6765 85.151 47.6266 85.3107 47.6015C84.9922 47.2777 84.6087 47.3273 84.2717 47.2408C84.1359 47.2061 83.9848 47.1661 84.0512 46.9271C86.6626 46.7033 89.2801 47.2204 91.8952 47.0275C92.0054 46.0606 92.1415 45.8533 92.9998 45.9378C93.8903 46.0265 94.7812 45.4973 95.6631 45.9793C95.7621 46.0336 95.9426 45.95 96.0826 45.9186C96.3631 45.8557 96.6421 45.785 96.9639 45.7066C97.1885 45.1778 97.6028 44.8892 98.2074 44.8675C98.3315 44.8631 98.4741 44.7612 98.5673 44.6645C98.663 44.5649 98.6833 44.3889 98.7833 44.2975C98.9089 44.1825 99.0807 44.118 99.2341 44.0352C99.3146 43.9917 99.4587 44.0281 99.4865 43.869C99.4119 43.8266 99.3393 43.7831 99.2672 43.7366C98.9866 43.6958 98.7082 43.6533 98.4288 43.6244C98.1055 43.5922 97.7792 43.5859 97.4555 43.5638C97.0606 43.5368 96.7883 43.3195 96.593 42.9913C96.3317 42.554 96.4702 42.1878 96.9601 42.1042C97.0264 42.0928 97.0934 42.0842 97.1606 42.0777C96.7997 41.9225 96.3957 41.8933 96.0217 41.762C93.6182 40.4143 94.7196 41.0471 95.361 41.5719C95.2689 41.4114 95.1843 41.2456 95.0647 41.1039C95.0028 40.9436 94.9313 40.7873 94.8397 40.6654C94.6335 40.3911 92.4679 40.2394 92.2413 40.1454C91.7771 39.9525 91.5989 39.5499 91.2929 39.1907C90.4992 38.2582 89.2614 38.3759 88.1393 38.3924C87.6283 38.4002 87.3465 38.553 86.9641 38.8691C86.7891 38.7187 86.6031 38.5556 86.4035 38.4521C86.2408 38.2061 85.7355 38.1027 85.4699 37.9837C85.1299 37.7516 84.7394 37.5717 84.3777 37.3964C84.1809 37.3009 83.9656 37.1613 83.7467 37.0399C83.3028 36.5186 82.853 36.0873 82.5039 35.4851C82.1994 34.9598 81.6958 34.657 81.1918 34.3421C80.989 34.2152 80.7802 34.1198 80.6211 33.9599C80.5306 33.6648 80.3876 33.3881 80.2468 33.1097C80.1591 32.8073 80.061 32.4879 79.9336 32.2009C79.8896 32.0373 79.8431 31.8692 79.7847 31.7148C79.7795 31.6335 79.7372 31.378 79.6632 31.3318C79.6301 31.2366 79.4806 31.2301 79.4016 31.2059C79.3143 31.1798 79.2577 31.153 79.1776 31.112C78.9531 30.9956 78.7184 30.9222 78.4824 30.8355L78.262 30.5958C78.1288 30.3847 77.9909 30.122 77.8119 29.9183C77.7264 29.7419 77.6038 29.6269 77.4318 29.5361C77.3167 29.4419 77.2154 29.3582 77.0617 29.3355C76.3475 28.9373 75.6062 28.4921 74.8032 28.3098C74.0999 28.15 73.6746 28.4308 73.3283 28.6596C73.2017 28.7431 73.0872 28.8187 72.9866 28.8489C72.7366 28.9239 72.0741 29.0908 71.3757 29.1988C70.9363 29.2669 70.4826 29.312 70.1098 29.2965C69.7578 29.2819 69.311 28.8016 68.8052 28.2579C68.5106 27.9413 68.1971 27.6042 67.8578 27.3134C67.5788 27.0744 66.6171 26.9945 66.2234 26.9839L66.1837 27.0064C66.1766 27.0104 63.6864 28.4217 63.2183 28.8905C62.9997 29.1089 62.8483 29.3057 62.6722 29.5347C62.4752 29.7906 62.2458 30.0886 61.8533 30.503C61.1264 31.2703 60.2583 31.6866 59.3377 32.1623C58.6058 32.5429 58.1076 32.7341 57.5571 32.9448C57.3444 33.0264 57.1225 33.1117 56.8342 33.2295C55.851 33.6316 55.5278 34.6319 55.0595 35.4905C54.7978 35.9706 54.5698 36.3119 54.3397 36.6568C54.1352 36.9632 53.9284 37.2727 53.6987 37.6747C53.4085 38.1825 52.2023 38.7878 51.0728 39.3545L50.6449 39.57C50.146 38.9823 50.1661 38.1064 49.5607 37.5902C48.982 37.0907 48.2669 36.3875 47.4441 36.4785C47.0894 36.5176 46.4423 36.7668 45.7987 37.0147C45.0533 37.3016 44.3122 37.587 44.1679 37.5232C43.8504 37.3829 43.5131 36.5503 43.3357 36.1972C43.2625 36.0514 43.0102 35.5951 42.8537 35.5079C42.8504 35.506 41.6556 34.8263 40.9897 34.8263C40.6991 34.8263 39.6707 34.9247 38.5686 35.0302C37.3109 35.1506 35.9559 35.2803 35.5131 35.2803C35.076 35.2803 33.7769 35.3612 32.5505 35.4374C31.4635 35.5051 30.4335 35.5692 30.1194 35.5692C29.792 35.5692 28.9361 35.6585 28.1017 35.7645C27.2259 35.8756 26.3687 36.0068 26.1677 36.0734C25.9394 36.1491 25.8576 36.3349 25.7546 36.5692C25.646 36.8158 25.5067 37.1323 25.1001 37.3664C24.7134 37.5891 24.2924 37.8239 23.8833 38.0326C23.4834 38.2366 23.1068 38.4091 22.807 38.5085C22.4805 38.6167 22.245 38.6549 21.9285 38.7059C21.6546 38.7502 21.3218 38.8039 20.8303 38.9167C20.1165 39.0805 19.2944 39.4839 18.6989 39.9216L18.6812 39.9653C18.6792 39.9706 17.9304 41.8325 17.7205 42.6261C17.7052 42.6838 17.6862 42.7423 17.6641 42.801L18.0066 42.8197ZM55.2354 52.6041C55.2476 52.9877 55.204 53.371 55.0889 53.7412L54.8677 54.2225L55.2233 54.2204C55.2435 54.2481 55.2742 54.2692 55.3188 54.2757C55.5951 54.3164 55.8145 54.2872 56.0664 54.2189L59.7939 54.3044L60.2849 54.3037L60.19 54.219L62.0344 54.2191L62.0232 54.3017L62.3493 54.3013L62.3601 54.2191L67.3471 54.2194C68.205 54.0604 69.2189 54.0505 69.539 53.9854C70.1541 53.8604 71.2243 53.8397 72.199 53.8903C71.9696 53.7993 71.7332 53.7596 71.4941 53.704L71.4983 53.5808L72.3287 53.4413C71.7265 53.4139 71.1871 53.3928 70.6483 53.36C70.6122 53.3576 70.5815 53.2687 70.5483 53.22L71.1144 52.9737C70.4271 52.9762 69.9489 52.6317 69.3643 53.0064L69.8286 53.2306C69.2642 53.4818 69.2647 53.4822 69.0074 53.4576C67.427 53.3081 65.8505 53.1127 64.2596 53.1103C64.1158 53.1099 63.9724 53.0747 63.8281 53.069C62.793 53.028 61.7716 52.7585 60.7339 52.7543C60.8909 53.0559 60.417 53.4158 60.9251 53.7399C59.4343 53.7377 61.2587 53.7136 62.0989 53.7343L62.0894 53.8067C61.706 53.8327 61.0083 53.8666 59.8567 53.9104C59.4566 53.5295 59.0709 53.1257 58.7013 52.7146C58.5452 52.7027 58.3891 52.6924 58.2328 52.6838C58.5191 53.0098 58.8157 53.3335 59.122 53.6475C58.9217 53.5799 58.7194 53.5335 58.5126 53.488C58.0672 53.259 57.4876 53.2542 57.0356 53.0268C56.8104 52.9148 56.6119 52.7785 56.4167 52.6334C56.0213 52.6302 55.6308 52.6237 55.2354 52.6041ZM27.8022 53.1997C27.9139 53.1985 28.0228 53.1912 28.131 53.1786L27.8022 53.1997ZM32.7911 53.0494H36.3129V52.7596C35.1388 52.8643 33.9686 52.9858 32.7911 53.0494ZM68.05 52.7731C67.8831 52.7731 67.7161 52.7818 67.5502 52.7707C67.3861 52.7606 67.2231 52.7303 67.0599 52.7092L67.057 52.8285H68.0496L68.05 52.7731ZM66.2821 52.5191L65.0716 52.5734L65.0736 52.6475H66.3119L66.2821 52.5191ZM63.5779 52.3517H61.7094L61.707 52.4037L63.5751 52.5302L63.5779 52.3517ZM53.0177 51.2298C53.4953 51.3145 54.0193 51.4768 54.5289 51.246C54.5636 51.2785 54.5992 51.3106 54.6357 51.3421C54.7254 51.4189 54.913 51.5901 55.124 51.7656C54.9626 51.1235 54.5485 50.6605 54.0303 50.2612L54.0826 50.1594C54.4489 50.4603 54.7875 50.7516 55.1154 51.0959C55.1465 51.0992 55.1776 51.1106 55.2036 51.1381C55.3243 51.2647 55.4277 51.4077 55.5226 51.557C55.6996 51.7779 55.857 52.0131 56.0231 52.242C56.3427 52.2437 56.6574 52.2491 56.966 52.2572L57.816 52.2001C57.3465 51.6452 56.907 51.0946 56.5002 50.5849C55.3912 49.1951 54.5337 48.1207 54.0606 48.1567C53.4897 48.2001 52.8525 48.1837 52.1812 48.1233C51.6498 48.7194 50.7917 49.12 51.5597 49.2406C52.2222 49.5564 52.8055 49.8603 53.3698 50.2715C53.4539 50.3155 53.5358 50.3594 53.6119 50.408C53.9672 50.6341 54.2127 50.9466 54.5118 51.2298H53.0177ZM47.1375 51.6795C48.7818 51.9283 50.3953 51.6926 52.0089 51.4718C52.0488 51.4659 52.0753 51.3582 52.1234 51.2688C51.3974 50.9835 50.7177 51.4116 50.008 51.3943C49.0541 51.3712 48.0948 51.5737 47.1375 51.6795ZM52.4092 47.8117C52.5339 47.5898 52.5849 47.3472 52.4871 47.0872C52.0139 46.7302 51.5393 46.3756 51.0898 45.9888C50.3834 45.3809 53.131 45.5449 52.315 45.0842C52.3338 45.043 52.3852 45.012 52.4512 44.9875C52.5354 45.012 52.8103 45.0195 53.3764 44.9869C53.6651 44.7338 53.9593 44.487 54.2451 44.2308C54.0466 44.1857 53.8513 44.1435 53.6501 44.1099C53.2218 44.0385 52.8757 43.5688 52.5959 43.0015C52.607 43.5962 52.6239 44.015 52.654 44.0624C52.6814 44.0744 52.3703 44.6931 49.1661 44.1403C52.0682 44.6249 52.8919 44.7732 52.9718 44.8446C53.2691 44.8141 53.6303 44.8042 53.9044 44.85C54.125 44.6626 54.3457 44.4751 54.5605 44.2815C54.736 44.2852 54.9095 44.2264 55.3454 44.0603C55.4724 44.0121 55.616 43.9557 55.7574 43.9003C56.4337 43.6355 57.0334 43.4008 57.2517 43.4826C57.464 43.5621 57.69 43.5978 57.8852 43.7187C57.3697 44.1934 57.0663 44.595 56.3082 44.7036C55.018 44.8882 54.7705 46.4764 53.5443 46.8301C53.3689 46.8807 53.1903 46.9097 53.0101 46.9296C53.1332 46.9922 53.2507 47.0653 53.3612 47.1486C54.1016 47.0338 54.5136 46.6361 54.9699 46.0666C55.1679 45.8198 55.3542 45.5552 55.5805 45.3321C55.899 45.0174 56.2507 45.0174 56.6633 44.9416C57.1495 44.8527 57.396 44.562 57.7433 44.2283C57.8631 44.1132 57.9796 43.9995 58.097 43.892L58.1352 43.9332C58.3274 44.1494 58.5595 44.2284 58.8677 44.333C59.1503 44.4288 59.5047 44.5492 59.9446 44.829C60.0621 44.9038 60.19 45.0899 60.3232 45.3547C60.0398 45.6639 59.7449 46.056 59.728 46.3574C59.7196 46.5054 59.768 46.6838 59.822 46.8562C59.8502 47.152 59.8952 47.4444 59.9283 47.7388C59.8975 47.8642 59.8781 47.9843 59.9142 48.0972C59.8728 48.149 59.2631 51.7155 59.5113 52.0562C59.5267 52.0772 58.8987 52.1254 58.2252 52.1721C57.6984 51.558 57.208 50.9433 56.7581 50.3797C55.5876 48.9127 54.6824 47.7786 54.0361 47.8278C53.5394 47.8655 52.9894 47.8565 52.4092 47.8117ZM60.5523 45.1185C60.404 44.8392 60.2589 44.6393 60.1213 44.5518C59.6446 44.2486 59.2711 44.1217 58.9735 44.0207C58.7126 43.9322 58.5161 43.8655 58.3815 43.714L58.3471 43.6764C58.6995 43.3952 59.0832 43.1984 59.5991 43.213C59.9209 43.2219 60.2933 43.1995 60.66 43.2067C60.6642 43.2191 60.6711 43.231 60.6821 43.2425C60.7224 43.2843 60.7582 43.3304 60.7923 43.3777C60.7802 43.4679 60.8204 43.5585 60.8628 43.6357C60.8643 43.6679 60.8828 43.6973 60.9084 43.7127C60.9663 43.8037 61.0342 43.8935 61.0866 43.9764C61.1447 44.086 61.1964 44.1956 61.2519 44.3057C61.06 44.4994 60.8688 44.7415 60.716 44.9984C60.699 44.994 60.68 44.9965 60.6631 45.0126C60.6291 45.0443 60.5918 45.0798 60.5523 45.1185Z" fill="#AAD0E3"/>
<path fill-rule="evenodd" clip-rule="evenodd" d="M52.198 8.39294H55.8794H59.561L60.386 22.7384L62.0667 51.9615C61.8794 51.9812 61.6915 52.0071 61.5029 52.04C60.0525 52.2935 58.5698 52.3247 57.0871 52.2714C56.0797 52.2352 55.0676 52.3204 54.0577 52.359C53.9249 52.3637 53.7936 52.4148 53.4217 52.4989C54.4787 52.5537 55.284 52.6245 56.0898 52.6308C57.3141 52.6399 58.5361 52.6576 59.7519 52.8256C59.7869 52.8308 59.8244 52.8298 59.8596 52.8237C60.6219 52.6909 61.3713 52.7711 62.1191 52.875L62.1206 52.9009H55.8794H49.6383L49.7048 51.7431C50.475 51.6851 51.242 51.5768 52.0089 51.4718C52.0487 51.466 52.0752 51.3583 52.1233 51.2689C51.3973 50.9835 50.7176 51.4116 50.008 51.3943C49.9137 51.392 49.8194 51.3919 49.725 51.3937L49.9075 48.2201L51.4179 21.9574L52.198 8.39294ZM62.0891 52.3517L62.0935 52.4297L61.707 52.4037C61.7074 52.3864 61.7084 52.3691 61.7093 52.3517H62.0891ZM53.0177 51.2298C53.506 51.3164 54.0429 51.4843 54.5634 51.2298H53.0177Z" fill="#D6C7AB"/>
<path fill-rule="evenodd" clip-rule="evenodd" d="M50.9697 11.6739H60.7485V13.6296H50.9697V11.6739Z" fill="#A3967D"/>
<path fill-rule="evenodd" clip-rule="evenodd" d="M55.0853 11.7573H55.8874H56.6895C56.665 10.3561 56.5883 10.0607 55.8874 9.42804C55.1864 10.0607 55.1098 10.3561 55.0853 11.7573Z" fill="#A3967D"/>
<path fill-rule="evenodd" clip-rule="evenodd" d="M55.8873 28.7643H55.8874C56.2277 28.7643 56.506 29.0426 56.506 29.3829V30.7217H55.2687V29.3829C55.2687 29.0426 55.547 28.7643 55.8873 28.7643Z" fill="#A3967D"/>
<path fill-rule="evenodd" clip-rule="evenodd" d="M55.8873 19.5955H55.8874C56.2277 19.5955 56.506 19.8737 56.506 20.2141V21.5529H55.2687V20.2141C55.2687 19.8737 55.547 19.5955 55.8873 19.5955Z" fill="#A3967D"/>
<path d="M55.9194 1.97605V2.83075H55.8383V0.787292C55.884 0.798142 55.9183 0.838861 55.9194 0.8877V0.890037V0.973793V1.97605Z" fill="#696969"/>
<path fill-rule="evenodd" clip-rule="evenodd" d="M51.6661 7.54047H55.8794H60.0929L59.561 8.39292H55.8794H52.198L51.6661 7.54047Z" fill="#525252"/>
<path fill-rule="evenodd" clip-rule="evenodd" d="M55.8793 2.28357L56.1284 2.97554L56.3774 3.66742H55.8793H55.3813L55.6304 2.97554L55.8793 2.28357Z" fill="#696969"/>
<path d="M57.7932 2.07996C57.7782 2.12199 57.7383 2.14997 57.6938 2.14997H56.6354C56.5771 2.14997 56.5297 2.1027 56.5297 2.04432V1.97601H55.9194V0.973755H56.8721C56.9305 0.973755 56.9777 1.0211 56.9777 1.0794V1.1478H57.6938C57.7383 1.1478 57.7782 1.17577 57.7932 1.21779C57.8082 1.25981 57.7952 1.30677 57.7608 1.33503L57.3784 1.64888L57.7608 1.96272C57.7952 1.99098 57.8082 2.03795 57.7932 2.07996Z" fill="#00923F"/>
<path fill-rule="evenodd" clip-rule="evenodd" d="M50.9697 11.6739H60.7485V13.6296H50.9697V11.6739Z" fill="#A3967D"/>
<path fill-rule="evenodd" clip-rule="evenodd" d="M55.0853 11.7573H55.8874H56.6895C56.665 10.3561 56.5883 10.0607 55.8874 9.42804C55.1864 10.0607 55.1098 10.3561 55.0853 11.7573Z" fill="#A3967D"/>
<path fill-rule="evenodd" clip-rule="evenodd" d="M55.8873 28.7643H55.8874C56.2277 28.7643 56.506 29.0426 56.506 29.3829V30.7217H55.2687V29.3829C55.2687 29.0426 55.547 28.7643 55.8873 28.7643Z" fill="#A3967D"/>
<path fill-rule="evenodd" clip-rule="evenodd" d="M55.8873 19.5955H55.8874C56.2277 19.5955 56.506 19.8737 56.506 20.2141V21.5529H55.2687V20.2141C55.2687 19.8737 55.547 19.5955 55.8873 19.5955Z" fill="#A3967D"/>
<path fill-rule="evenodd" clip-rule="evenodd" d="M72.0899 52.4082H70.1899C70.5545 52.4382 70.9205 52.4759 71.2814 52.4512C71.545 52.4335 71.8184 52.446 72.0899 52.4082ZM63.577 52.4082H61.7752C62.375 52.4485 62.9752 52.4894 63.5751 52.5302L63.577 52.4082ZM53.7931 52.4082H41.4447C40.0995 52.4948 38.7536 52.5725 37.409 52.6697C35.8985 52.7793 34.3927 52.9611 32.8812 53.0445C31.3739 53.1281 29.8623 53.1276 28.3522 53.1695C28.03 53.1786 27.7082 53.2079 27.3862 53.23C26.7388 53.274 26.0913 53.3335 25.4427 53.3605C24.5065 53.399 23.5689 53.4081 22.6322 53.4447C22.4682 53.4513 22.2608 53.4601 22.2257 53.713C22.6823 53.985 23.1855 53.9604 23.6839 53.9574C26.5001 53.9406 29.3174 53.946 32.133 53.8953C34.551 53.8522 36.9723 53.8559 39.3824 53.5971C39.8487 53.5471 40.3211 53.5244 40.7891 53.5389C41.4564 53.5602 41.8008 53.9075 41.7686 54.5675C41.7527 54.897 41.5935 55.2194 41.5001 55.5427C41.5785 55.5773 41.6436 55.6325 41.708 55.6312C42.7533 55.6095 43.7984 55.5629 44.8442 55.5566C46.5764 55.5474 48.3089 55.5576 50.0414 55.571C50.5397 55.5753 51.0434 55.5894 51.6197 55.8756C50.6994 55.9732 49.8926 56.0819 49.0825 56.1382C48.1602 56.2027 47.2453 56.1507 46.3138 56.3422C45.2286 56.5649 44.0908 56.5337 42.9756 56.6116C42.3277 56.6573 41.6802 56.7164 41.0312 56.7434C39.1583 56.8209 37.2994 57.1932 35.414 56.9936C35.3096 56.983 35.2 57.0137 35.0941 57.0325C33.6317 57.2899 32.1592 57.2816 30.6826 57.21C30.3266 57.1927 29.9673 57.2192 29.6108 57.2437C29.1446 57.2756 28.6804 57.3553 28.2146 57.3606C27.6393 57.3664 27.062 57.2794 26.4881 57.298C24.939 57.35 23.3909 57.4337 21.8432 57.5165C21.7398 57.5223 21.6422 57.631 21.455 57.7441C21.7177 57.8821 21.8663 57.9957 22.0328 58.0404C22.3801 58.1333 22.739 58.1823 23.0897 58.2636C23.3322 58.3199 23.6238 58.2376 23.8946 58.5046C22.8477 58.6966 21.8558 58.5153 20.9061 58.776C20.846 58.8847 20.7877 58.9737 20.7455 59.0689C20.5555 59.4965 20.2479 59.7188 19.7708 59.8193C19.2175 59.9363 18.6912 60.1788 17.9769 60.428C18.4439 60.6786 18.796 60.8389 19.1165 61.0466C19.4667 61.2737 19.8372 61.3569 20.2446 61.3506C21.292 61.3358 22.3397 61.3373 23.3876 61.3156C25.0809 61.281 26.7725 61.1097 28.4682 61.2622C28.6794 61.2814 28.8969 61.2348 29.111 61.2161C29.4703 61.1847 29.8288 61.1371 30.1886 61.1217C30.8707 61.0934 31.5476 61.0904 32.2351 61.162C33.0904 61.2501 33.9554 61.0389 34.8109 61.0024C36.864 60.9164 38.8749 60.3563 40.943 60.4856C41.1568 60.4992 41.3737 60.4444 41.5892 60.4227C42.1973 60.3612 42.8049 60.2837 43.4144 60.2428C45.2819 60.1191 47.1385 59.8444 49.0133 59.8127C49.1204 59.8107 49.2278 59.7781 49.3355 59.7724C51.2733 59.6731 53.1923 59.2869 55.1432 59.3917C55.2869 59.3989 55.4332 59.3932 55.5765 59.3803C56.9413 59.256 58.3072 59.1426 59.6696 58.9972C60.4904 58.9102 61.3029 58.7413 62.1241 58.663C64.3808 58.4483 66.6544 58.4911 68.9098 58.2424C68.9454 58.2385 68.9838 58.2212 69.0165 58.23C69.7257 58.408 70.4242 58.3752 71.1144 58.1365C72.8758 58.1424 74.6394 57.8686 76.3987 58.1986C76.6426 58.2444 76.9029 58.2184 77.155 58.2077C78.1651 58.1654 79.1769 58.139 80.1843 58.0631C81.2816 57.9803 82.3858 57.9019 83.4109 57.4019C83.4817 56.9104 83.1829 56.5712 82.8682 56.2859C82.6051 56.0478 82.2597 55.9227 81.8704 55.9481C81.5491 55.9689 81.2235 55.9294 80.9001 55.9106C80.0727 55.8636 79.2452 55.7697 78.4179 55.7736C77.1587 55.7802 75.9004 55.941 74.6412 55.7529C74.4287 55.7216 74.1987 55.6961 73.9938 55.7423C73.2751 55.9024 72.5588 55.7374 71.8424 55.7634C71.7284 55.7679 71.612 55.7066 71.2872 55.6196C71.8579 55.3988 72.2339 55.357 72.629 55.3498C73.8904 55.3277 75.1523 55.293 76.4131 55.2478C76.9163 55.2295 77.432 55.0798 77.9169 55.1544C78.475 55.241 78.9898 55.1428 79.5213 55.0635C80.3108 54.9456 81.1012 54.8345 81.8908 54.7209C80.5668 54.7927 79.2386 54.7892 77.9103 54.7936C76.5431 54.7979 75.1762 54.8038 73.8096 54.8214C73.2481 54.8286 72.7719 54.6767 72.3085 54.2937C72.3851 54.2326 72.4634 54.1701 72.5991 54.0618C72.3797 53.9699 72.2234 53.8916 72.0588 53.8401C71.8742 53.7819 71.6822 53.7476 71.4941 53.7039C71.4954 53.6626 71.4969 53.6217 71.4984 53.5808C71.7571 53.5369 72.0166 53.4937 72.3287 53.4412C71.7265 53.4139 71.1872 53.3927 70.6483 53.36C70.6122 53.3575 70.5815 53.2686 70.5483 53.2199C70.6715 53.166 70.7942 53.1127 71.1144 52.9736C70.4271 52.9761 69.9489 52.6316 69.3643 53.0064C69.5342 53.0886 69.654 53.1464 69.8286 53.2305C69.2642 53.4817 69.2647 53.4822 69.0074 53.4576C67.427 53.308 65.8505 53.1127 64.2596 53.1103C64.1158 53.1099 63.9724 53.0747 63.8281 53.069C62.5037 53.0165 61.2018 52.5898 59.8597 52.8237C59.8245 52.8298 59.7869 52.8307 59.7519 52.8255C58.5362 52.6575 57.3142 52.6399 56.0899 52.6307C55.284 52.6244 54.4788 52.5536 53.4218 52.4988C53.5851 52.4618 53.7021 52.4312 53.7931 52.4082ZM34.4507 52.4082H22.4741C22.5712 52.456 22.6639 52.5199 22.7519 52.6027C22.8473 52.6927 22.9811 52.7991 23.0979 52.7995C23.632 52.801 24.1707 52.8043 24.6989 52.7384C25.5567 52.6307 26.4062 52.4171 27.2607 52.7649C27.3801 52.8134 27.5575 52.8073 27.6758 52.7548C28.4702 52.4012 29.3073 52.5012 30.1246 52.5532C30.7586 52.5936 31.3849 52.8795 32.0133 52.5334C32.812 52.6557 33.5936 52.4979 34.383 52.415L34.4507 52.4082ZM20.4963 52.4082H20.1236C20.1319 52.418 20.1397 52.4279 20.1465 52.4377L20.4963 52.4082ZM65.4517 62.082C65.2083 62.0685 65.0053 62.0575 64.8022 62.0464C65.1895 62.3495 65.1895 62.3495 65.4517 62.082ZM68.05 52.773C67.8831 52.773 67.7161 52.7817 67.5502 52.7706C67.3861 52.7605 67.2231 52.7303 67.0599 52.7091C67.059 52.7491 67.0581 52.7885 67.057 52.8284H68.0496C68.0496 52.8101 68.05 52.7913 68.05 52.773ZM40.6376 55.5345L39.5899 55.5894C39.5913 55.6177 39.5928 55.6461 39.5937 55.6744H40.6597C40.6521 55.6277 40.6448 55.5811 40.6376 55.5345ZM66.2821 52.519C65.8784 52.5373 65.4753 52.5552 65.0716 52.5734C65.0721 52.5985 65.0731 52.6229 65.0736 52.6474H66.3119C66.3017 52.6046 66.2922 52.5618 66.2821 52.519ZM60.3937 62.0094C61.1778 62.0329 61.9625 62.0295 62.7409 62.1878C63.1141 62.2643 63.5143 62.3075 63.9613 62.1777C63.83 62.0912 63.7521 61.9992 63.6645 61.9882C61.9215 61.775 60.1704 61.701 58.4083 61.7206C59.0706 61.8197 59.7182 61.9891 60.3937 62.0094ZM48.4326 60.4318C48.5365 60.4497 48.6399 60.4828 48.7444 60.4834C50.4035 60.4886 52.0627 60.4814 53.7221 60.4954C54.333 60.5007 54.9464 60.5256 55.554 60.5858C56.9876 60.7278 58.4125 60.9514 59.8591 60.949C60.5077 60.9481 61.1576 60.9899 61.8057 61.0356C63.2445 61.1371 64.6844 61.2348 66.1209 61.3689C67.1962 61.4696 68.2857 61.3556 69.3519 61.6201C69.6404 61.6913 69.9719 61.6995 70.2842 61.5254C70.1942 61.4658 70.1408 61.4026 70.0787 61.3926C68.5528 61.1482 67.0345 60.8619 65.4839 60.7864C64.225 60.7252 62.9707 60.5694 61.7118 60.5079C60.0208 60.4251 58.3279 60.3779 56.6349 60.3429C54.5119 60.2995 52.3889 60.2788 50.2659 60.2596C49.6589 60.2544 49.0508 60.2875 48.4431 60.3029C48.4398 60.3457 48.4359 60.3886 48.4326 60.4318ZM47.9414 63.707C48.346 63.823 48.7996 63.757 49.2278 63.808C49.6814 63.8615 50.0562 64.1468 50.5575 64.1521C52.3962 64.1713 54.2349 64.2488 56.0715 64.3512C59.2396 64.5287 62.4059 64.7366 65.5724 64.9401C66.832 65.0209 68.0899 65.1271 69.3489 65.2143C69.5944 65.231 69.869 65.2719 69.9642 64.8968C69.6482 64.4012 69.2528 63.9563 68.7303 63.5675C67.9356 63.8955 67.1139 63.8114 66.2869 63.7305C65.8554 63.6887 65.5743 63.504 65.4436 63.0898C65.6365 63.0302 65.8222 62.9729 66.0078 62.9152C65.6609 62.7515 65.3195 62.702 64.976 62.6829C64.3274 62.6463 63.678 62.6328 63.029 62.6016C60.6516 62.4871 58.2739 62.3643 55.8955 62.2575C55.4774 62.2388 55.0526 62.1806 54.7102 62.5904C54.588 62.7371 54.2382 62.7342 53.9933 62.7304C52.1537 62.7025 50.3141 62.6539 48.4744 62.6174C47.9692 62.6073 47.4637 62.6026 46.9595 62.6241C46.744 62.6332 46.538 62.7247 46.5295 63.0764C46.9788 63.2842 47.4405 63.5627 47.9414 63.707Z" fill="#00923F"/>
<path fill-rule="evenodd" clip-rule="evenodd" d="M57.0835 52.2713C57.0823 51.1145 57.0808 48.7655 57.0793 48.7218C57.0363 47.4728 56.8875 47.1761 55.8875 46.5714C54.907 47.1644 54.7448 47.4611 54.6984 48.6498C54.696 48.7116 54.6939 51.1844 54.692 52.3301C55.4898 52.29 56.2882 52.2429 57.0835 52.2713Z" fill="#A3967D"/>
<path fill-rule="evenodd" clip-rule="evenodd" d="M57.7348 1.35649H56.8906H56.8583V1.27892C56.8583 1.22587 56.8224 1.18256 56.7784 1.18256H56.657H55.9993H55.9973H55.9194V1.27649V1.27892V1.67119V1.67362V1.76756H55.9973H55.9993H56.657H56.6893V1.84513C56.6893 1.89819 56.7252 1.94152 56.7692 1.94152H56.8906H57.7348L57.3784 1.649L57.7348 1.35649Z" fill="#F2F2F2"/>
<path fill-rule="evenodd" clip-rule="evenodd" d="M52.6342 5.78815H59.1248C59.2387 6.04159 59.3358 6.33069 59.4135 6.66428H52.3455C52.4232 6.33069 52.5203 6.04159 52.6342 5.78815Z" fill="#525252"/>
<path fill-rule="evenodd" clip-rule="evenodd" d="M54.3321 4.03589H57.4269C57.8436 4.28232 58.2309 4.54503 58.5607 4.91202H53.1984C53.5281 4.54503 53.9154 4.28232 54.3321 4.03589Z" fill="#525252"/>
<path fill-rule="evenodd" clip-rule="evenodd" d="M55.8872 37.9329H55.8873C56.3359 37.9329 56.703 38.2999 56.703 38.7484V40.5136H55.0716V38.7484C55.0716 38.2999 55.4386 37.9329 55.8872 37.9329Z" fill="#A3967D"/>
<path fill-rule="evenodd" clip-rule="evenodd" d="M55.8872 37.9329H55.8873C56.3359 37.9329 56.703 38.2999 56.703 38.7484V40.5136H55.0716V38.7484C55.0716 38.2999 55.4386 37.9329 55.8872 37.9329Z" fill="#A3967D"/>
</svg>
