<svg aria-hidden="true" style="position: absolute; width: 0; height: 0; overflow: hidden;" version="1.1" xmlns="http://www.w3.org/2000/svg" xmlns:xlink="http://www.w3.org/1999/xlink">
<defs>
<symbol id="icon-time-outline" viewBox="0 0 32 32">
<path d="M16 32c-8.838 0-16-7.162-16-16s7.162-16 16-16c8.838 0 16 7.162 16 16s-7.162 16-16 16zM16 1.524c-7.924 0-14.476 6.552-14.476 14.476s6.552 14.476 14.476 14.476 14.476-6.552 14.476-14.476-6.552-14.476-14.476-14.476z"></path>
<path d="M22.095 19.81c-0.152 0-0.305 0-0.305-0.152l-6.095-3.048c-0.305-0.152-0.457-0.457-0.457-0.61v-9.143c0-0.457 0.305-0.762 0.762-0.762s0.762 0.305 0.762 0.762v8.686l5.638 2.895c0.305 0.152 0.457 0.61 0.305 1.067 0 0.152-0.305 0.305-0.61 0.305z"></path>
</symbol>
<symbol id="icon-arrow-down" viewBox="0 0 32 32">
<path d="M15.519 25.684c-0.481 0-1.444-0.481-2.406-0.962l-12.030-12.030c-1.444-1.444-1.444-3.85 0-5.293s3.85-1.444 5.293 0l9.624 9.624 9.624-9.624c1.444-1.444 3.85-1.444 5.293 0s1.444 3.85 0 5.293l-12.511 12.030c-0.962 0.481-1.925 0.962-2.887 0.962z"></path>
</symbol>
<symbol id="icon-arrow-top" viewBox="0 0 32 32">
<path d="M15.968 0.001c-0.015 0-0.030 0.001-0.044 0.003-0.005 0-0.010 0.001-0.014 0.001-0.020 0.002-0.040 0.005-0.059 0.009l-0.007 0.001c-0.118 0.023-0.229 0.074-0.319 0.151l-11.862 10.137c-0.253 0.224-0.246 0.58 0.016 0.796 0.059 0.049 0.127 0.086 0.199 0.112l0.003 0.001c0.018 0.007 0.036 0.012 0.054 0.017l0.007 0.002c0.017 0.004 0.034 0.008 0.051 0.012 0.004 0.001 0.008 0.002 0.012 0.002 0.015 0.003 0.030 0.004 0.045 0.006 0.006 0.001 0.012 0.002 0.018 0.002 0.013 0.001 0.025 0.002 0.038 0.002 0.009 0 0.018 0.001 0.026 0.001s0.019-0 0.028-0.001c0.012-0 0.024-0.001 0.036-0.001 0.005-0 0.011-0.001 0.016-0.002 0.016-0.002 0.032-0.003 0.047-0.006l0.002-0c0.122-0.020 0.239-0.069 0.335-0.148l10.736-9.176v29.514c0 0.199 0.12 0.373 0.302 0.473l0.003 0.002c0.019 0.011 0.040 0.020 0.061 0.029 0.024 0.010 0.050 0.020 0.075 0.028l0.006 0.002c0.023 0.007 0.047 0.012 0.071 0.017 0.016 0.003 0.031 0.005 0.047 0.007 0.026 0.003 0.053 0.006 0.080 0.006 0.003 0 0.006-0 0.009-0 0.032 0 0.064-0.001 0.097-0.005 0.020-0.002 0.039-0.005 0.059-0.009 0.017-0.003 0.034-0.007 0.051-0.012l0.005-0.001c0.010-0.003 0.020-0.006 0.029-0.009s0.018-0.005 0.028-0.008c0.133-0.045 0.267-0.125 0.394-0.248v-29.785l10.736 9.176c0.017 0.014 0.034 0.027 0.052 0.040 0.292 0.208 0.746 0.169 0.975-0.126 0.171-0.219 0.135-0.509-0.080-0.698-0.005-0.005-0.011-0.009-0.016-0.014l-11.863-10.138c-0.012-0.010-0.024-0.019-0.037-0.029-0.003-0.003-0.007-0.005-0.010-0.008-0.057-0.040-0.122-0.071-0.193-0.093-0.008-0.003-0.017-0.005-0.025-0.008-0.010-0.003-0.019-0.005-0.029-0.007s-0.019-0.004-0.029-0.006c-0.009-0.002-0.018-0.003-0.027-0.005-0.018-0.003-0.035-0.005-0.053-0.006-0.007-0.001-0.013-0.001-0.020-0.001-0.014-0.001-0.027-0.001-0.041-0.001-0.004 0-0.008-0-0.012-0s-0.007 0.001-0.011 0.001z"></path>
</symbol>
<symbol id="icon-bus" viewBox="0 0 32 32">
<path d="M30.5 8h-0.5v-3c0-2.8-6.2-5-14-5s-14 2.2-14 5v3h-0.5c-0.828 0-1.5 0.671-1.5 1.5v5c0 0.828 0.672 1.5 1.5 1.5h0.5v10c0 1.104 0.896 2 2 2v2c0 1.104 0.896 2 2 2h2c1.104 0 2-0.896 2-2v-2h12v2c0 1.104 0.896 2 2 2h2c1.104 0 2-0.896 2-2v-2h0.4c1 0 1.6-0.8 1.6-1.6v-10.4h0.5c0.828 0 1.5-0.672 1.5-1.5v-5c0-0.829-0.672-1.5-1.5-1.5zM7 25c-1.104 0-2-0.896-2-2s0.896-2 2-2c1.104 0 2 0.896 2 2s-0.896 2-2 2zM8 18c-1.104 0-2-0.896-2-2v-8c0-1.104 0.896-2 2-2h16c1.104 0 2 0.896 2 2v8c0 1.104-0.896 2-2 2h-16zM25 25c-1.104 0-2-0.896-2-2s0.896-2 2-2c1.104 0 2 0.896 2 2s-0.896 2-2 2z"></path>
</symbol>
<symbol id="icon-car" viewBox="0 0 32 32">
<path d="M31.307 11.547h-2.347c-0.179 0-0.35 0.065-0.48 0.181l-0.501 0.451c-0.844-1.835-2.056-3.65-3.692-5.529-0.885-1.015-2.193-1.597-3.589-1.597h-9.396c-1.397 0-2.705 0.582-3.589 1.598-1.688 1.938-2.875 3.709-3.7 5.523l-0.494-0.444c-0.129-0.116-0.301-0.181-0.48-0.181h-2.347c-0.383 0-0.693 0.291-0.693 0.651v1.507c0 0.344 0.284 0.628 0.65 0.65l2.412 0.143c-0.364 1-0.649 2.491-0.649 4.593 0 1.824 0.388 3.023 1.063 3.799v3.512c0 0.301 0.26 0.545 0.58 0.545h2.67c0.321 0 0.581-0.244 0.581-0.545v-2.181h17.386v2.181c0 0.301 0.26 0.545 0.581 0.545h2.67c0.32 0 0.581-0.244 0.581-0.545v-3.512c0.675-0.776 1.063-1.975 1.063-3.799 0-2.102-0.285-3.593-0.649-4.593l2.412-0.143c0.365-0.022 0.649-0.306 0.649-0.65v-1.507c0-0.36-0.31-0.651-0.693-0.651zM9.694 8.172c0.396-0.455 0.982-0.716 1.608-0.716h9.396c0.626 0 1.212 0.261 1.608 0.716 1.145 1.314 2.049 2.572 2.748 3.825l-18.123 0.003c0.683-1.225 1.593-2.484 2.764-3.829zM7.719 21.555c-1.329 0-2.406-0.408-2.406-1.397s0.391-1.791 1.72-1.791 3.093 0.802 3.093 1.791c0 0.989-1.077 1.397-2.406 1.397zM18.522 21.349h-5.045c-0.761 0-1.379-0.581-1.379-1.295 0-0.2 0.173-0.363 0.386-0.363h7.030c0.213 0 0.386 0.162 0.386 0.363 0 0.714-0.619 1.295-1.379 1.295zM24.281 21.555c-1.329 0-2.406-0.408-2.406-1.397s1.764-1.791 3.093-1.791c1.329 0 1.72 0.802 1.72 1.791s-1.077 1.397-2.406 1.397z"></path>
</symbol>
<symbol id="icon-check" viewBox="0 0 32 32">
<path d="M10.894 27.234c-0.681 0-1.135-0.227-1.589-0.681l-8.624-8.17c-0.908-0.908-0.908-2.27 0-3.177s2.269-0.908 3.177 0l7.035 6.808 17.248-16.567c0.908-0.908 2.27-0.908 3.177 0s0.908 2.269 0 3.177l-18.61 18.156c-0.681 0.227-1.362 0.454-1.816 0.454z"></path>
</symbol>
<symbol id="icon-cross" viewBox="0 0 32 32">
<path d="M20.073 16l11.055-11.055c1.164-1.164 1.164-2.909 0-4.073s-2.909-1.164-4.073 0l-11.055 11.055-11.055-11.055c-1.164-1.164-2.909-1.164-4.073 0s-1.164 2.909 0 4.073l11.055 11.055-11.055 11.055c-1.164 1.164-1.164 2.909 0 4.073 0.582 0.582 1.164 0.873 2.036 0.873s1.455-0.291 2.036-0.873l11.055-11.055 11.055 11.055c0.582 0.582 1.164 0.873 2.036 0.873s1.455-0.291 2.036-0.873c1.164-1.164 1.164-2.909 0-4.073l-11.055-11.055z"></path>
</symbol>
<symbol id="icon-done" viewBox="0 0 32 32">
<path d="M16 32c-1.92 0-3.749-0.366-5.577-1.006-3.2-1.189-6.034-3.383-7.863-6.309-1.829-2.834-2.743-6.309-2.56-9.783 0.274-3.383 1.646-6.674 3.84-9.326 2.194-2.56 5.303-4.48 8.594-5.211s6.949-0.366 10.057 1.006c0.731 0.274 1.006 1.097 0.731 1.829s-1.097 1.006-1.829 0.731c-2.56-1.189-5.577-1.463-8.32-0.823s-5.303 2.194-7.131 4.297c-1.829 2.194-2.926 4.937-3.109 7.771s0.549 5.669 2.103 8.046c1.463 2.377 3.84 4.206 6.491 5.211s5.669 1.097 8.32 0.274c2.743-0.823 5.12-2.469 6.857-4.754s2.651-5.12 2.651-7.954v-1.371c0-0.731 0.64-1.371 1.371-1.371s1.371 0.64 1.371 1.371v1.371c0 3.383-1.097 6.857-3.2 9.6-2.011 2.743-5.029 4.754-8.32 5.76-1.371 0.457-2.926 0.64-4.48 0.64z"></path>
<path d="M16 20.297c-0.366 0-0.731-0.183-1.006-0.366l-4.389-4.389c-0.549-0.549-0.549-1.371 0-1.92s1.371-0.549 1.92 0l3.383 3.383 13.623-13.714c0.549-0.549 1.371-0.549 1.92 0s0.549 1.371 0 1.92l-14.629 14.629c-0.091 0.366-0.457 0.457-0.823 0.457z"></path>
</symbol>
<symbol id="icon-letter" viewBox="0 0 32 32">
<path d="M28.126 3.032h-24.253c-2.189 0-3.874 1.684-3.874 3.874v18.189c0 2.189 1.684 3.874 3.874 3.874h24.253c2.189 0 3.874-1.684 3.874-3.874v-18.189c0-2.189-1.684-3.874-3.874-3.874zM3.874 4.716h24.253c1.011 0 1.853 0.842 2.189 1.853l-14.316 9.937-14.316-9.937c0.337-1.011 1.179-1.853 2.189-1.853zM28.126 27.284h-24.253c-1.179 0-2.189-1.011-2.189-2.189v-16.505l13.811 9.6c0.168 0.168 0.337 0.168 0.505 0.168s0.337 0 0.505-0.168l13.811-9.6v16.505c0 1.179-1.011 2.189-2.189 2.189z"></path>
</symbol>
<symbol id="icon-link" viewBox="0 0 32 32">
<path d="M29.474 2.526c-1.516-1.684-3.537-2.526-5.895-2.526-2.189 0-4.379 0.842-5.895 2.358l-2.695 2.695c-0.337 0.337-0.337 0.842 0 1.179s0.842 0.337 1.179 0l2.695-2.526c1.179-1.347 2.863-2.021 4.716-2.021 0 0 0 0 0 0 1.853 0 3.537 0.674 4.716 2.021 1.347 1.179 2.021 2.863 2.021 4.716s-0.674 3.537-1.853 4.716l-4.547 4.547c-0.674 0.674-1.516 1.179-2.358 1.516s-1.853 0.505-2.863 0.337c-1.011 0-1.853-0.337-2.695-0.842s-1.684-1.179-2.189-1.853c-0.505-0.168-1.011-0.337-1.347 0s-0.505 0.842-0.168 1.179c0.674 1.011 1.684 1.853 2.695 2.358s2.189 1.011 3.537 1.011c0.168 0 0.337 0 0.674 0 1.011 0 2.021-0.168 3.032-0.505 1.179-0.337 2.189-1.011 3.032-2.021l4.547-4.547c1.347-1.516 2.189-3.705 2.189-5.895s-0.842-4.379-2.526-5.895z"></path>
<path d="M15.832 25.768l-2.526 2.526c-1.347 1.347-3.032 2.021-4.884 2.021s-3.537-0.674-4.716-2.021c-1.347-1.179-2.021-2.863-2.021-4.716s0.674-3.537 1.853-4.716l4.547-4.547c0.674-0.674 1.516-1.179 2.358-1.516 1.011-0.505 2.021-0.674 3.032-0.505 1.011 0 1.853 0.337 2.695 0.842s1.516 1.179 2.189 1.853c0.337 0.337 0.842 0.505 1.179 0.168s0.505-0.842 0.168-1.179c-0.674-1.011-1.684-1.853-2.695-2.358-1.011-0.674-2.189-1.011-3.368-1.011-1.347-0.168-2.526 0-3.705 0.505-1.011 0.337-2.189 1.011-3.032 2.021l-4.547 4.547c-1.516 1.516-2.358 3.705-2.358 5.895s0.842 4.379 2.526 5.895c1.516 1.684 3.705 2.526 5.895 2.526 0 0 0 0 0 0 2.189 0 4.379-0.842 5.895-2.358l2.526-2.526c0.337-0.337 0.337-0.842 0-1.179s-0.674-0.505-1.011-0.168z"></path>
</symbol>
<symbol id="icon-login" viewBox="0 0 32 32">
<path d="M28.16 22.48c-1.44-1.44-3.36-2.24-5.36-2.24h-13.6c-2 0-3.92 0.8-5.36 2.24s-2.24 3.36-2.24 5.36v3.36c0 0.48 0.32 0.8 0.8 0.8s0.8-0.32 0.8-0.8v-3.36c0-1.6 0.64-3.12 1.76-4.24s2.64-1.76 4.24-1.76h13.6c1.6 0 3.12 0.64 4.24 1.76s1.76 2.64 1.76 4.24v3.36c0 0.48 0.32 0.8 0.8 0.8s0.8-0.32 0.8-0.8v-3.36c0-2-0.8-3.92-2.24-5.36z"></path>
<path d="M16 15.12c4.16 0 7.6-3.36 7.6-7.52s-3.44-7.6-7.6-7.6-7.6 3.36-7.6 7.52 3.44 7.6 7.6 7.6zM16 1.6c3.28 0 6 2.64 6 5.92s-2.72 5.92-6 5.92-6-2.64-6-5.92 2.72-5.92 6-5.92z"></path>
</symbol>
<symbol id="icon-marker" viewBox="0 0 32 32">
<path d="M16 32c-0.139 0-0.278 0-0.417-0.139-0.557-0.278-12.8-8.626-12.8-18.643 0-3.478 1.391-6.817 3.896-9.322s5.843-3.896 9.322-3.896c3.478 0 6.817 1.391 9.322 3.896s3.896 5.843 3.896 9.322c0 10.017-12.243 18.365-12.8 18.643-0.139 0.139-0.278 0.139-0.417 0.139zM16 1.391c-3.2 0-6.122 1.252-8.348 3.478s-3.478 5.148-3.478 8.348c0 8.348 9.739 15.722 11.826 17.252 2.087-1.53 11.826-8.904 11.826-17.252 0-3.2-1.252-6.122-3.478-8.348s-5.148-3.478-8.348-3.478z"></path>
<path d="M16 18.087c-2.643 0-4.87-2.226-4.87-4.87s2.226-4.87 4.87-4.87 4.87 2.226 4.87 4.87-2.226 4.87-4.87 4.87zM16 9.739c-1.948 0-3.478 1.53-3.478 3.478s1.53 3.478 3.478 3.478c1.948 0 3.478-1.53 3.478-3.478s-1.53-3.478-3.478-3.478z"></path>
</symbol>
<symbol id="icon-monitor" viewBox="0 0 32 32">
<path d="M28.19 24.381h-1.524c-0.457 0-0.762-0.305-0.762-0.762s0.305-0.762 0.762-0.762h1.524c0.61 0 1.219-0.305 1.676-0.61s0.61-1.067 0.61-1.676v-15.238c0-0.61-0.305-1.219-0.61-1.676s-1.067-0.61-1.676-0.61h-24.381c-0.61 0-1.219 0.305-1.676 0.61s-0.61 1.067-0.61 1.676v15.238c0 0.61 0.305 1.219 0.61 1.676s1.067 0.61 1.676 0.61h1.524c0.457 0 0.762 0.305 0.762 0.762s-0.305 0.762-0.762 0.762h-1.524c-1.067 0-1.981-0.457-2.743-1.067s-1.067-1.676-1.067-2.743v-15.238c0-1.067 0.457-1.981 1.067-2.743s1.676-1.067 2.743-1.067h24.381c1.067 0 1.981 0.457 2.743 1.067s1.067 1.676 1.067 2.743v15.238c0 1.067-0.457 1.981-1.067 2.743s-1.676 1.067-2.743 1.067z"></path>
<path d="M23.619 30.476h-15.238c-0.305 0-0.61-0.152-0.762-0.457 0-0.305 0-0.61 0.152-0.762l7.619-9.143c0.305-0.305 0.914-0.305 1.219 0l7.619 9.143c0.152 0.152 0.305 0.61 0.152 0.762-0.152 0.305-0.457 0.457-0.762 0.457zM10.057 28.952h12.038l-5.943-7.162-6.095 7.162z"></path>
</symbol>
<symbol id="icon-moon" viewBox="0 0 32 32">
<path d="M22.807 8.979l1.358 2.464 2.665 0.587-1.825 2.11 0.289 2.827-2.486-1.16-2.486 1.16 0.289-2.827-1.825-2.11 2.664-0.587 1.358-2.464zM29.521 22.905l-1.746-0.385-0.89-1.614-0.89 1.614-1.745 0.385 1.196 1.382-0.189 1.852 1.629-0.76 1.629 0.76-0.189-1.852 1.196-1.382zM14.565 16c0-6.271 3.456-11.698 8.488-14.322-2.059-1.073-4.38-1.678-6.838-1.678-8.464 0-15.326 7.163-15.326 16s6.862 16 15.326 16c2.457 0 4.779-0.605 6.838-1.678-5.032-2.623-8.488-8.051-8.488-14.322z"></path>
</symbol>
<symbol id="icon-ok" viewBox="0 0 32 32">
<path d="M23.273 0h-14.545c-4.8 0-8.727 3.927-8.727 8.727v14.545c0 4.8 3.927 8.727 8.727 8.727h14.545c4.8 0 8.727-3.927 8.727-8.727v-14.545c0-4.8-3.927-8.727-8.727-8.727zM16 4.364c3.345 0 6.109 2.618 6.109 5.964 0 3.2-2.764 5.818-6.109 5.818s-6.109-2.618-6.109-5.964c0-3.2 2.764-5.818 6.109-5.818zM22.836 18.473c-0.727 0.727-1.6 1.309-2.618 1.6s-2.036 0.582-3.055 0.582c0.145 0.145 0.291 0.291 0.291 0.291 1.455 1.309 2.764 2.618 4.218 4.073 0.436 0.436 0.582 1.018 0.291 1.6-0.145 0.727-0.873 1.018-1.455 1.018-0.436 0-0.727-0.145-1.018-0.436-1.018-1.018-2.182-2.036-3.2-3.055-0.291-0.291-0.436-0.291-0.727 0-1.018 1.018-2.036 2.036-3.2 3.055-0.436 0.436-1.018 0.582-1.6 0.291s-1.018-0.873-1.018-1.455c0-0.436 0.291-0.727 0.582-1.018 1.309-1.309 2.764-2.618 4.073-3.927 0.145-0.145 0.145-0.145 0.291-0.291-1.891-0.145-3.636-0.582-5.091-1.745-0.145-0.145-0.436-0.291-0.582-0.436-0.582-0.582-0.727-1.309-0.145-1.891 0.436-0.582 1.164-0.727 1.891-0.436 0.145 0 0.291 0.145 0.436 0.291 2.764 1.745 6.4 1.891 9.164 0.145 0.291-0.145 0.582-0.291 0.873-0.436 0.582-0.145 1.309 0 1.6 0.582 0.582 0.436 0.582 1.164 0 1.6z"></path>
<path d="M16 13.091c0 0 0 0 0 0 1.6 0 3.055-1.309 3.055-2.909 0 0 0 0 0 0v0c0-1.6-1.309-2.909-2.909-2.909 0 0 0 0 0 0-1.6 0-3.055 1.309-3.055 2.909 0 0 0 0 0 0-0.145 1.745 1.309 2.909 2.909 2.909z"></path>
</symbol>
<symbol id="icon-pause" viewBox="0 0 32 32">
<path stroke-linejoin="round" stroke-linecap="round" stroke-miterlimit="4" stroke-width="1.3333" d="M12.667 1.333h-7.333v29.333h7.333v-29.333z"></path>
<path stroke-linejoin="round" stroke-linecap="round" stroke-miterlimit="4" stroke-width="1.3333" d="M27.333 1.333h-7.333v29.333h7.333v-29.333z"></path>
</symbol>
<symbol id="icon-person" viewBox="0 0 32 32">
<path d="M14.668 2.449c0.103-1.482 1.241-2.557 2.535-2.441 1.319 0.116 2.276 1.395 2.172 2.847s-1.241 2.557-2.535 2.441c-1.293-0.116-2.25-1.395-2.172-2.847zM24.004 14.971l-3.233-2.528-2.379-5.288c-0.414-0.697-1.086-1.249-1.888-1.336-0.621-0.058-1.19 0.203-1.655 0.552l-4.785 4.329c-0.155 0.145-0.284 0.349-0.336 0.581l-1.034 5.23c0 0.029-0.026 0.087-0.026 0.145-0.052 0.668 0.414 1.22 0.983 1.278s1.034-0.407 1.138-0.988l0.879-4.474 1.655-1.511-2.509 12.58-3.026 5.724c-0.078 0.174-0.181 0.465-0.207 0.755-0.052 1.017 0.595 1.86 1.474 1.947 0.621 0.058 1.164-0.291 1.5-0.872l3.259-6.188c0.052-0.174 0.284-0.552 0.31-0.755l0.802-4.068 3.388 4.184 1.060 6.305c0.181 0.755 0.724 1.366 1.448 1.424 0.905 0.058 1.655-0.668 1.733-1.656 0.026-0.145 0-0.232 0-0.378l-1.138-6.711c-0.052-0.203-0.103-0.407-0.207-0.581l-4.19-5.549 1.086-5.23 0.879 1.976c0.052 0.116 0.155 0.232 0.259 0.349l3.543 2.731c0.181 0.087 0.31 0.174 0.491 0.174 0.569 0.029 1.086-0.436 1.138-1.104 0.026-0.407-0.129-0.813-0.414-1.046z"></path>
</symbol>
<symbol id="icon-phone" viewBox="0 0 32 32">
<path d="M22.545 0.727h-13.091c-1.891 0-3.345 1.455-3.345 3.345v23.855c0 1.891 1.455 3.345 3.345 3.345h13.091c1.891 0 3.345-1.455 3.345-3.345v-23.855c0-1.891-1.455-3.345-3.345-3.345zM24.436 27.927c0 1.018-0.873 1.891-1.891 1.891h-13.091c-1.018 0-1.891-0.873-1.891-1.891v-23.855c0-1.018 0.873-1.891 1.891-1.891h13.091c1.018 0 1.891 0.873 1.891 1.891v23.855z"></path>
<path d="M16 24.582v0c-0.436 0-0.727 0.291-0.727 0.727s0.291 0.727 0.727 0.727 0.727-0.291 0.727-0.727-0.291-0.727-0.727-0.727z"></path>
</symbol>
<symbol id="icon-play" viewBox="0 0 32 32">
<path d="M1.313 32c-0.164 0-0.328 0-0.656-0.164-0.492-0.164-0.656-0.656-0.656-0.985v-29.538c0-0.492 0.164-0.821 0.656-1.149 0.328-0.164 0.82-0.164 1.313 0l22.974 14.769c0.328 0.164 0.492 0.656 0.492 0.985s-0.164 0.821-0.492 0.985l-22.974 14.769c-0.328 0.328-0.492 0.328-0.656 0.328zM2.462 3.446v25.108l19.528-12.472-19.528-12.636z"></path>
</symbol>
<symbol id="icon-play-circle" viewBox="0 0 32 32">
<path stroke-linejoin="miter" stroke-linecap="butt" stroke-miterlimit="4" stroke-width="0.64" d="M31.68 16c0 8.66-7.020 15.68-15.68 15.68s-15.68-7.020-15.68-15.68c0-8.66 7.020-15.68 15.68-15.68s15.68 7.020 15.68 15.68z"></path>
<path stroke-linejoin="round" stroke-linecap="round" stroke-miterlimit="4" stroke-width="0.64" d="M12.8 11.412c0-0.506 0.56-0.812 0.986-0.538l7.136 4.588c0.392 0.252 0.392 0.825 0 1.077l-7.136 4.588c-0.426 0.274-0.986-0.032-0.986-0.538v-9.175z"></path>
</symbol>
<symbol id="icon-point" viewBox="0 0 29 32">
<path d="M25.038 4.26c-2.77-2.747-6.453-4.26-10.371-4.26s-7.601 1.513-10.371 4.26c-2.77 2.747-4.296 6.4-4.296 10.285 0 6.634 4.526 12.39 10.901 14.061 0.412 0.108 0.784 0.34 1.041 0.68l1.306 1.727c0.711 0.941 2.125 0.941 2.836 0l1.306-1.727c0.257-0.34 0.629-0.572 1.041-0.68 6.376-1.671 10.901-7.427 10.901-14.061 0-3.885-1.526-7.538-4.296-10.285z"></path>
</symbol>
<symbol id="icon-question" viewBox="0 0 32 32">
<path d="M16 32c-8.727 0-16-7.273-16-16s7.273-16 16-16c8.727 0 16 7.273 16 16s-7.273 16-16 16zM16 2.909c-7.273 0-13.091 5.818-13.091 13.091s5.818 13.091 13.091 13.091 13.091-5.818 13.091-13.091-5.818-13.091-13.091-13.091z"></path>
<path d="M16 18.909c-0.582 0-1.164-0.291-1.455-0.873-0.291-0.873 0-1.745 0.873-2.036s3.491-1.455 3.491-2.909c0-0.582-0.291-1.455-0.582-1.745-0.582-0.582-1.164-0.873-2.036-1.164-0.582 0-1.455 0-2.036 0.291-0.291 0.582-0.873 0.873-1.164 1.745-0.291 0.582-1.164 1.164-1.745 0.873-0.873-0.291-1.164-1.164-0.873-2.036 0.291-1.164 1.164-2.327 2.327-2.909s2.618-0.873 4.073-0.582c1.455 0 2.618 0.582 3.491 1.745s1.455 2.327 1.455 3.782c0 3.782-4.945 5.527-5.236 5.818-0.291 0-0.582 0-0.582 0z"></path>
<path d="M16 24.727c-0.873 0-1.455-0.582-1.455-1.455s0.582-1.455 1.455-1.455v0c0.873 0 1.455 0.582 1.455 1.455s-0.582 1.455-1.455 1.455z"></path>
</symbol>
<symbol id="icon-quotes" viewBox="0 0 32 32">
<path d="M6.139 2.424c-3.389 0-6.139 2.763-6.139 6.171 0 3.407 2.749 6.171 6.139 6.171 6.137 0 2.046 11.929-6.139 11.929v2.88c14.608 0.002 20.332-27.151 6.139-27.151zM23.822 2.424c-3.387 0-6.137 2.763-6.137 6.171 0 3.407 2.749 6.171 6.137 6.171 6.139 0 2.048 11.929-6.137 11.929v2.88c14.606 0.002 20.33-27.151 6.137-27.151z"></path>
</symbol>
<symbol id="icon-scroll-down" viewBox="0 0 32 32">
<path d="M16.082 31.999c0.015-0 0.030-0.001 0.044-0.003 0.005-0 0.010-0.001 0.014-0.001 0.020-0.002 0.040-0.005 0.060-0.009l0.007-0.001c0.119-0.023 0.23-0.074 0.32-0.151l11.909-10.137c0.254-0.224 0.247-0.58-0.016-0.796-0.060-0.049-0.127-0.086-0.2-0.112l-0.003-0.001c-0.018-0.007-0.036-0.012-0.055-0.017l-0.007-0.002c-0.017-0.005-0.034-0.008-0.051-0.012-0.004-0.001-0.008-0.002-0.012-0.002-0.015-0.003-0.030-0.004-0.046-0.006-0.006-0.001-0.012-0.002-0.018-0.002-0.013-0.001-0.025-0.002-0.038-0.002-0.009-0.001-0.018-0.001-0.027-0.001s-0.019 0-0.028 0.001c-0.012 0-0.024 0.001-0.036 0.001-0.005 0-0.011 0.001-0.016 0.002-0.016 0.002-0.032 0.003-0.048 0.006l-0.002 0c-0.122 0.020-0.24 0.069-0.336 0.148l-10.779 9.176v-29.514c-0-0.199-0.121-0.373-0.303-0.473l-0.003-0.002c-0.019-0.011-0.040-0.020-0.061-0.029-0.025-0.010-0.050-0.020-0.076-0.028l-0.006-0.002c-0.023-0.007-0.047-0.012-0.072-0.017-0.016-0.003-0.031-0.005-0.047-0.007-0.026-0.003-0.053-0.005-0.081-0.006-0.003-0-0.006 0-0.009 0-0.032-0-0.065 0.001-0.098 0.005-0.020 0.002-0.039 0.005-0.059 0.009-0.017 0.003-0.034 0.007-0.052 0.012l-0.005 0.001c-0.010 0.003-0.020 0.006-0.029 0.009s-0.018 0.005-0.028 0.008c-0.133 0.044-0.268 0.125-0.396 0.248v29.785l-10.779-9.176c-0.017-0.014-0.034-0.027-0.052-0.040-0.293-0.208-0.749-0.169-0.979 0.125-0.172 0.219-0.135 0.509 0.080 0.698 0.005 0.005 0.011 0.009 0.016 0.014l11.911 10.138c0.012 0.010 0.024 0.019 0.037 0.029 0.003 0.003 0.007 0.005 0.010 0.008 0.057 0.040 0.123 0.071 0.193 0.093 0.008 0.003 0.017 0.005 0.025 0.008 0.010 0.003 0.019 0.005 0.029 0.007s0.019 0.004 0.029 0.006c0.009 0.002 0.018 0.003 0.027 0.005 0.018 0.003 0.036 0.005 0.053 0.006 0.007 0.001 0.013 0.001 0.020 0.001 0.014 0.001 0.027 0.001 0.041 0.001 0.004 0 0.008 0 0.012 0s0.007-0.001 0.011-0.001z"></path>
</symbol>
<symbol id="icon-search" viewBox="0 0 32 32">
<path d="M31.2 29.6l-6.080-6.080c2.080-2.4 3.36-5.6 3.36-8.96 0-7.68-6.24-14.080-14.080-14.080-7.68-0.16-14.080 6.24-14.080 13.92s6.24 14.080 14.080 14.080c3.36 0 6.56-1.28 8.96-3.36l6.080 6.080c0.16 0.16 0.48 0.32 0.8 0.32s0.64-0.16 0.8-0.32c0.64-0.48 0.64-1.12 0.16-1.6zM2.88 14.4c0-6.4 5.12-11.52 11.52-11.52s11.52 5.28 11.52 11.52c0 3.2-1.28 6.080-3.36 8.16 0 0 0 0 0 0s0 0 0 0c-2.080 2.080-4.96 3.36-8.16 3.36-6.4 0-11.52-5.12-11.52-11.52z"></path>
</symbol>
<symbol id="icon-share" viewBox="0 0 32 32">
<path d="M25.143 21.333c-1.676 0-3.2 0.762-4.114 1.981l-9.143-5.333c0.152-0.61 0.305-1.219 0.305-1.981s-0.152-1.371-0.457-1.981l9.143-5.333c1.067 1.219 2.59 1.981 4.267 1.981 2.895 0 5.333-2.438 5.333-5.333s-2.438-5.333-5.333-5.333-5.333 2.438-5.333 5.333c0 0.762 0.152 1.371 0.457 1.981l-9.143 5.333c-1.067-1.219-2.59-1.981-4.267-1.981-2.895 0-5.333 2.438-5.333 5.333s2.438 5.333 5.333 5.333c1.676 0 3.2-0.762 4.114-1.981l9.143 5.333c-0.152 0.61-0.305 1.219-0.305 1.981 0 2.895 2.438 5.333 5.333 5.333s5.333-2.438 5.333-5.333-2.438-5.333-5.333-5.333zM25.143 1.524c2.133 0 3.81 1.676 3.81 3.81s-1.676 3.81-3.81 3.81-3.81-1.676-3.81-3.81 1.676-3.81 3.81-3.81zM6.857 19.81c-2.133 0-3.81-1.676-3.81-3.81s1.676-3.81 3.81-3.81 3.81 1.676 3.81 3.81c0 2.133-1.676 3.81-3.81 3.81zM25.143 30.476c-2.133 0-3.81-1.676-3.81-3.81s1.676-3.81 3.81-3.81 3.81 1.676 3.81 3.81-1.676 3.81-3.81 3.81z"></path>
</symbol>
<symbol id="icon-slider-left" viewBox="0 0 32 32">
<path d="M2.775 15.28l11.155-11.061-1.026-1.019-12.904 12.8 12.904 12.8 1.026-1.017-11.155-11.064h29.225v-1.438h-29.225z"></path>
</symbol>
<symbol id="icon-slider-right" viewBox="0 0 32 32">
<path d="M29.225 15.281l-11.155-11.061 1.026-1.019 12.904 12.8-12.904 12.8-1.026-1.017 11.155-11.064h-29.225v-1.438h29.225z"></path>
</symbol>
<symbol id="icon-sun" viewBox="0 0 32 32">
<path d="M24.015 16.001c0 4.42-3.596 8.016-8.015 8.016s-8.015-3.596-8.015-8.016c0-4.419 3.595-8.016 8.015-8.016s8.015 3.595 8.015 8.016zM16 5.629c0.863 0 1.564-0.7 1.564-1.563v-2.502c0-0.864-0.7-1.564-1.564-1.564s-1.564 0.7-1.564 1.564v2.502c0 0.863 0.7 1.563 1.564 1.563zM16 26.37c-0.864 0-1.564 0.7-1.564 1.564v2.501c0 0.864 0.7 1.565 1.564 1.565s1.564-0.7 1.564-1.565v-2.501c0-0.864-0.701-1.564-1.564-1.564zM25.544 8.667l1.769-1.769c0.611-0.61 0.611-1.601 0-2.212s-1.601-0.61-2.212 0l-1.769 1.769c-0.61 0.611-0.61 1.601 0 2.212 0.612 0.611 1.601 0.611 2.212 0zM6.455 23.334l-1.769 1.769c-0.61 0.61-0.611 1.601 0 2.212s1.601 0.61 2.212 0l1.769-1.77c0.611-0.61 0.611-1.601 0-2.21-0.611-0.612-1.601-0.612-2.212 0zM30.436 14.436h-2.502c-0.864 0-1.564 0.7-1.564 1.564s0.7 1.563 1.564 1.563h2.502c0.864 0 1.564-0.699 1.564-1.563s-0.7-1.564-1.564-1.564zM5.629 16c0-0.864-0.7-1.564-1.564-1.564h-2.501c-0.864 0-1.564 0.7-1.564 1.564s0.7 1.563 1.564 1.563h2.502c0.863 0 1.563-0.699 1.563-1.563zM25.544 23.334c-0.61-0.61-1.601-0.61-2.212 0s-0.611 1.6 0 2.211l1.769 1.769c0.611 0.61 1.601 0.61 2.212 0s0.611-1.601 0-2.211l-1.769-1.769zM6.455 8.667c0.611 0.612 1.601 0.612 2.212 0s0.611-1.601 0-2.212l-1.769-1.769c-0.611-0.611-1.601-0.611-2.212 0s-0.611 1.601 0 2.211l1.769 1.769z"></path>
</symbol>
<symbol id="icon-telegram" viewBox="0 0 32 32">
<path d="M23.273 0h-14.545c-4.8 0-8.727 3.927-8.727 8.727v14.545c0 4.8 3.927 8.727 8.727 8.727h14.545c4.8 0 8.727-3.927 8.727-8.727v-14.545c0-4.8-3.927-8.727-8.727-8.727zM20.364 24.291c0 0.436-0.436 0.582-0.727 0.291l-4.073-3.345c-0.291-0.145-0.582-0.145-0.873 0l-2.182 2.036c-0.291 0.291-0.582 0.145-0.727-0.291l-1.6-5.818-4.073-1.745c-0.436-0.145-0.436-0.873 0-1.018l16.436-7.273c0.436 0 0.727 0.436 0.727 0.873l-2.909 16.291z"></path>
<path d="M19.345 10.909l-7.855 5.527c-0.291 0.145-0.436 0.582-0.291 1.018l0.873 3.491c0 0.291 0.436 0.145 0.436 0l0.291-1.891c0-0.291 0.145-0.727 0.436-0.873l6.545-6.982c-0.145-0.145-0.291-0.436-0.436-0.291z"></path>
</symbol>
<symbol id="icon-time" viewBox="0 0 32 32">
<path d="M16 0c8.837 0 16 7.163 16 16s-7.163 16-16 16c-8.837 0-16-7.163-16-16s7.163-16 16-16zM17 9h-2l0 6.928-0.002 0.003 0.002 0.483 6.829 6.829 1.414-1.414-6.242-6.243-0.001-6.585z"></path>
</symbol>
<symbol id="icon-twitter" viewBox="0 0 32 32">
<path d="M26.667 0h-21.333c-2.933 0-5.333 2.4-5.333 5.333v21.333c0 2.933 2.4 5.333 5.333 5.333h21.333c2.933 0 5.333-2.4 5.333-5.333v-21.333c0-2.933-2.4-5.333-5.333-5.333zM24.089 11.822c0 9.689-9.333 13.867-16.978 9.689 2.133 0.089 4.178-0.533 5.956-1.689-7.644-3.378-4.267-10.933-4.267-10.933 0.889 1.244 2.044 2.222 3.378 2.844s2.844 0.978 4.267 0.978v-0.8c0-0.8 0.178-1.511 0.622-2.133s1.067-1.156 1.778-1.422c0.8-0.356 1.6-0.444 2.311-0.267s1.422 0.622 1.956 1.156c0.978-0.267 1.867-0.711 2.667-1.244-0.267 1.156-0.889 2.222-1.778 3.111 0.089 0.178 0.089 0.444 0.089 0.711z"></path>
</symbol>
<symbol id="icon-user" viewBox="0 0 32 32">
<path d="M7.41 8.688c0-4.798 3.845-8.688 8.589-8.688s8.589 3.89 8.589 8.688-3.846 8.688-8.589 8.688c-4.744 0-8.589-3.89-8.589-8.688zM23.158 20.272h-14.316c-3.953 0-7.158 3.242-7.158 7.24v3.039c0 0.8 0.641 1.448 1.432 1.448s24.978 0 25.768 0c0.791 0 1.432-0.648 1.432-1.448v-3.039c0-3.999-3.205-7.24-7.158-7.24z"></path>
</symbol>
<symbol id="icon-viber" viewBox="0 0 32 32">
<path d="M21.091 8l-0.291-0.145c-3.2-0.582-6.4-0.582-9.6 0l-0.291 0.145c-1.455 0.291-2.473 1.455-2.909 2.764-0.727 3.055-0.727 6.255 0 9.309 0.291 1.455 1.455 2.473 2.909 2.764h0.145c0.291 0 0.582 0.291 0.582 0.582l0.291 1.891 2.036-1.745c0.145-0.145 0.436-0.145 0.582-0.145 2.036 0.145 4.218 0 6.255-0.436l0.291-0.145c1.455-0.291 2.473-1.455 2.909-2.764 0.727-3.055 0.727-6.255 0-9.309-0.291-1.455-1.455-2.473-2.909-2.764zM16.727 12.509c0.582 0 1.164 0.291 1.6 0.582 0.436 0.436 0.582 1.018 0.582 1.6 0 0.291-0.145 0.582-0.436 0.582s-0.582-0.145-0.582-0.436c0-0.436-0.145-0.727-0.291-0.873s-0.436-0.291-0.873-0.291c-0.291 0-0.582-0.291-0.436-0.582s0.145-0.582 0.436-0.582zM16.145 11.345c0-0.291 0.291-0.582 0.582-0.582v0 0c1.164 0.145 2.182 0.436 2.909 1.164v0c0.727 0.727 1.018 1.745 1.018 2.764 0 0.291-0.291 0.582-0.582 0.436-0.291 0-0.582-0.291-0.582-0.582 0-0.873-0.291-1.455-0.727-2.036s-1.164-0.873-2.182-0.873v0c-0.145 0.145-0.436 0-0.436-0.291zM20.8 19.782v0c-0.291 0.436-0.582 0.727-0.873 1.018s-0.582 0.436-1.018 0.436c-0.145 0-0.291 0-0.436 0v0c-0.436-0.145-1.164-0.436-2.473-1.164-1.018-0.582-2.036-1.309-2.909-2.182v0 0 0 0c-0.873-0.873-1.6-1.891-2.182-2.909-0.436-0.727-0.727-1.455-1.018-2.327v0c0-0.145 0-0.291 0-0.436 0-0.291 0-0.582 0.291-0.873s0.727-0.582 1.018-0.873v0c0.291-0.145 0.436-0.145 0.582-0.145v0c0.145 0 0.291 0.145 0.436 0.291 0.582 0.582 1.018 1.309 1.455 1.891 0.291 0.582 0.145 1.018-0.145 1.164l-0.436 0.436c-0.291 0.145-0.291 0.582-0.291 0.582s0.727 2.909 3.636 3.636v0c0 0 0.436 0 0.582-0.291l0.436-0.582c0.145-0.291 0.727-0.436 1.164-0.145 0.727 0.436 1.309 0.873 2.036 1.455 0.291 0.291 0.291 0.727 0.145 1.018zM21.818 15.273c-0.291 0-0.582-0.291-0.436-0.582 0-0.582-0.145-1.309-0.291-1.891-0.291-0.582-0.582-1.164-1.018-1.6-0.873-0.582-2.036-1.018-3.345-1.018-0.291 0-0.582-0.291-0.582-0.582s0.291-0.582 0.582-0.582c1.6 0 2.909 0.582 4.073 1.6v0c0.582 0.582 1.018 1.164 1.309 1.891s0.436 1.455 0.436 2.327c-0.145 0.291-0.436 0.582-0.727 0.436z"></path>
<path d="M23.273 0h-14.545c-4.8 0-8.727 3.927-8.727 8.727v14.545c0 4.8 3.927 8.727 8.727 8.727h14.545c4.8 0 8.727-3.927 8.727-8.727v-14.545c0-4.8-3.927-8.727-8.727-8.727zM25.6 20.509c-0.436 1.891-2.036 3.491-4.073 3.927l-0.291 0.145c-2.182 0.436-4.218 0.582-6.4 0.582l-2.764 2.473c-0.436 0-0.727 0-1.018 0-0.291-0.145-0.436-0.291-0.582-0.582l-0.291-2.764c-1.745-0.582-3.2-2.036-3.636-3.782-0.873-3.345-0.873-6.836 0-10.036 0.436-1.891 2.036-3.491 4.073-3.927l0.291-0.145c3.345-0.727 6.836-0.727 10.182 0l0.291 0.145c2.036 0.436 3.636 1.891 4.073 3.927 0.873 3.2 0.873 6.691 0.145 10.036z"></path>
</symbol>
<symbol id="icon-vk" viewBox="0 0 32 32">
<path d="M23.273 0h-14.545c-4.8 0-8.727 3.927-8.727 8.727v14.545c0 4.8 3.927 8.727 8.727 8.727h14.545c4.8 0 8.727-3.927 8.727-8.727v-14.545c0-4.8-3.927-8.727-8.727-8.727zM22.545 23.273c-0.727-2.473-2.764-4.364-5.236-4.655v4.655h-0.436c-6.982 0-10.909-4.945-11.055-13.091h3.491c0.145 5.964 2.618 8.582 4.655 9.018v-9.018h3.345v5.236c2.036-0.291 4.073-2.618 4.8-5.236h3.345c-0.582 3.2-2.909 5.527-4.509 6.545 1.6 0.727 4.218 2.909 5.236 6.545h-3.636z"></path>
</symbol>
<symbol id="icon-whatsapp" viewBox="0 0 32 32">
<path d="M23.273 0h-14.545c-4.8 0-8.727 3.927-8.727 8.727v14.545c0 4.8 3.927 8.727 8.727 8.727h14.545c4.8 0 8.727-3.927 8.727-8.727v-14.545c0-4.8-3.927-8.727-8.727-8.727zM15.855 24.582c-1.309 0-2.618-0.291-3.782-0.873l-4.364 1.018c-0.291 0-0.436-0.145-0.436-0.436l0.873-4.509c-0.582-1.164-0.873-2.473-0.873-3.782 0-4.655 3.636-8.436 8.291-8.727 5.091-0.291 9.309 3.927 9.164 8.873-0.145 4.8-4.073 8.582-8.873 8.436z"></path>
<path d="M16 9.164c-1.745 0-3.491 0.727-4.8 2.036-1.309 1.164-2.036 2.909-2.036 4.8 0 1.018 0.291 2.182 0.727 3.055l0.291 0.582-0.582 2.764 2.764-0.582 0.582 0.291c1.018 0.436 2.036 0.727 3.055 0.727 1.891 0 3.491-0.727 4.8-2.036s2.036-3.055 2.036-4.8c0-1.745-0.727-3.491-2.036-4.8s-2.909-2.036-4.8-2.036zM20.655 18.764c-0.291 0.582-0.873 1.164-1.455 1.309-1.164 0.291-2.909 0-5.091-2.036-1.891-1.745-2.473-3.2-2.327-4.364 0-0.727 0.582-1.309 1.164-1.6 0.145-0.436 0.582-0.291 0.727 0l0.727 1.6c0.145 0.145 0 0.436-0.145 0.582l-0.291 0.436c-0.145 0.145-0.145 0.436 0 0.727 0.436 0.727 2.182 2.182 2.909 2.618 0.291 0.145 0.436 0 0.727-0.145l0.436-0.436c0.145-0.145 0.436-0.291 0.582-0.145l1.745 0.436c0.291 0.145 0.436 0.582 0.291 1.018z"></path>
</symbol>
<symbol id="icon-youtube" viewBox="0 0 32 32">
<path d="M13.527 13.091c-0.145-0.145-0.291 0-0.291 0.145v5.527c0 0.145 0.145 0.291 0.291 0.145l5.527-2.618c0.145-0.145 0.145-0.291 0-0.436l-5.527-2.764z"></path>
<path d="M23.273 0h-14.545c-4.8 0-8.727 3.927-8.727 8.727v14.545c0 4.8 3.927 8.727 8.727 8.727h14.545c4.8 0 8.727-3.927 8.727-8.727v-14.545c0-4.8-3.927-8.727-8.727-8.727zM26.182 19.055c0 2.327-1.891 4.218-4.218 4.218h-11.927c-2.327 0-4.218-1.891-4.218-4.218v-6.109c0-2.327 1.891-4.218 4.218-4.218h11.927c2.327 0 4.218 1.891 4.218 4.218v6.109z"></path>
</symbol>
<symbol id="icon-zoom" viewBox="0 0 32 32">
<path d="M31.722 30.887l-6.957-6.957c2.365-2.504 3.896-5.983 3.896-9.6 0-7.93-6.4-14.33-14.33-14.33s-14.33 6.4-14.33 14.33c0 7.791 6.4 14.33 14.33 14.33 3.617 0 6.957-1.391 9.461-3.757l6.957 6.957c0.139 0.139 0.417 0.139 0.557 0.139s0.417 0 0.417-0.139c0.278-0.278 0.278-0.696 0-0.974zM1.391 14.33c0-7.096 5.843-12.939 12.939-12.939s12.939 5.843 12.939 12.939c0 3.478-1.391 6.817-3.757 9.043 0 0-0.139 0-0.139 0.139 0 0 0 0 0 0.139-2.365 2.226-5.565 3.617-9.043 3.617-7.096 0-12.939-5.843-12.939-12.939z"></path>
<path d="M19.339 13.635h-4.313v-4.452c0-0.417-0.278-0.696-0.696-0.696s-0.696 0.278-0.696 0.696v4.452h-4.452c-0.417 0-0.696 0.278-0.696 0.696s0.278 0.696 0.696 0.696h4.452v4.313c0 0.417 0.278 0.696 0.696 0.696s0.696-0.278 0.696-0.696v-4.313h4.313c0.417 0 0.696-0.278 0.696-0.696s-0.278-0.696-0.696-0.696z"></path>
</symbol>
</defs>
</svg>
